<?xml version="1.0" encoding="iso-8859-1"?>
<!-- Generator: Adobe Illustrator 19.0.0, SVG Export Plug-In . SVG Version: 6.00 Build 0)  -->
<svg xmlns="http://www.w3.org/2000/svg" xmlns:xlink="http://www.w3.org/1999/xlink" version="1.1" id="Capa_1" x="0px" y="0px" viewBox="0 0 512 512" style="enable-background:new 0 0 512 512;" xml:space="preserve">
<g transform="matrix(1.25 0 0 -1.25 0 45)">
	<g>
		<g>
			<path style="fill:#FFCC4D;" d="M409.6-168.8c0-113.1-91.7-204.8-204.8-204.8S0-281.9,0-168.8S91.7,36,204.8,36     C317.9,36,409.6-55.7,409.6-168.8"/>
			<g>
				<path style="fill:#FF7892;" d="M386.8-214.3c0-31.4-25.5-56.9-56.9-56.9S273-245.7,273-214.3s25.5,56.9,56.9,56.9      S386.8-182.9,386.8-214.3"/>
				<path style="fill:#FF7892;" d="M136.5-214.3c0-31.4-25.5-56.9-56.9-56.9s-56.9,25.5-56.9,56.9s25.5,56.9,56.9,56.9      S136.5-182.9,136.5-214.3"/>
			</g>
			<g>
				<path style="fill:#664500;" d="M330-122.3c-2.7,0-5.3,1-7.4,3c-29.7,29.7-81.1,20-81.6,19.9c-5.6-1.1-11.1,2.6-12.2,8.2      c-1.1,5.6,2.5,11.1,8.2,12.2c2.5,0.5,62.8,12,100.4-25.6c4.1-4.1,4.1-10.6,0-14.7C335.3-121.3,332.6-122.3,330-122.3z"/>
				<path style="fill:#664500;" d="M79.6-122.3c-2.7,0-5.3,1-7.4,3c-4.1,4.1-4.1,10.6,0,14.7C109.8-67,170.1-78.5,172.6-79      c5.6-1.1,9.3-6.6,8.2-12.2c-1.1-5.6-6.6-9.3-12.2-8.2c-0.7,0.1-52,9.7-81.6-19.9C85-121.3,82.3-122.3,79.6-122.3z"/>
				<path style="fill:#664500;" d="M295.8-179.2c-2.7,0-5.3,1-7.4,3c-18.1,18.1-58,8.7-58.4,8.6c-5.6-1.4-11.2,2-12.6,7.6      c-1.4,5.6,2,11.2,7.6,12.6c2.1,0.5,51.5,12.5,78.1-14.1c4.1-4.1,4.1-10.6,0-14.7C301.1-178.2,298.5-179.2,295.8-179.2z"/>
				<path style="fill:#664500;" d="M113.8-179.2c-2.7,0-5.3,1-7.4,3c-4.1,4.1-4.1,10.6,0,14.7c26.6,26.6,76.1,14.6,78.1,14.1      c5.6-1.4,9-7,7.6-12.6s-7-9-12.6-7.6c-11.1,2.7-43.2,6.5-58.4-8.6C119.1-178.2,116.4-179.2,113.8-179.2z"/>
				<path style="fill:#664500;" d="M147.9-248.4c0,0,11.4-45.5,56.9-45.5s56.9,45.5,56.9,45.5s-11.4-11.4-56.9-11.4      S147.9-248.4,147.9-248.4"/>
			</g>
			<path style="fill:none;stroke:#664500;stroke-linecap:round;stroke-linejoin:round;" d="M147.9-248.4c0,0,11.4-45.5,56.9-45.5     s56.9,45.5,56.9,45.5s-11.4-11.4-56.9-11.4S147.9-248.4,147.9-248.4z"/>
		</g>
	</g>
</g>
<g>
</g>
<g>
</g>
<g>
</g>
<g>
</g>
<g>
</g>
<g>
</g>
<g>
</g>
<g>
</g>
<g>
</g>
<g>
</g>
<g>
</g>
<g>
</g>
<g>
</g>
<g>
</g>
<g>
</g>
</svg>
