<?xml version="1.0" encoding="iso-8859-1"?>
<!-- Generator: Adobe Illustrator 19.0.0, SVG Export Plug-In . SVG Version: 6.00 Build 0)  -->
<svg xmlns="http://www.w3.org/2000/svg" xmlns:xlink="http://www.w3.org/1999/xlink" version="1.1" id="Capa_1" x="0px" y="0px" viewBox="0 0 512 512" style="enable-background:new 0 0 512 512;" xml:space="preserve">
<g>
	<g>
		<g transform="matrix(1.25 0 0 -1.25 0 45)">
			<path style="fill:#FFCC4D;" d="M341.333-237.067c0-75.412-61.121-136.533-136.533-136.533     c-75.401,0-136.533,61.121-136.533,136.533c0,75.401,61.133,136.533,136.533,136.533     C280.212-100.533,341.333-161.666,341.333-237.067"/>
			<g>
				<path style="fill:#F4900C;" d="M153.6-98.144c4.392,5.018,18.739-0.785,22.756-5.245s52.998-10.138,51.2-3.857      c-5.689,19.922,11.378,29.298,14.393,22.687c1.638-3.595-2.173-17.772-0.364-19.092c4.938-3.595,10.672,2.458,14.643,0.262      c6.975-3.857-4.619-20.924-4.619-20.924l-91.295-8.09C160.313-132.402,149.129-103.253,153.6-98.144"/>
				<path style="fill:#F4900C;" d="M251.563-149.458c0-9.421-20.958-17.067-46.808-17.067s-46.808,7.646-46.808,17.067      c0,9.421,20.958,17.067,46.808,17.067S251.563-140.037,251.563-149.458"/>
			</g>
			<g>
				<path style="fill:#DA2F47;" d="M160.199-42.165c6.372-19.752,21.811-81.146,6.372-107.315      c6.36-9.876,19.092-12.709,38.195-12.709v129.9"/>
				<path style="fill:#DA2F47;" d="M249.367-42.165c-6.372-19.752-21.811-81.146-6.372-107.315      c-6.36-9.876-19.092-12.709-38.195-12.709v129.9"/>
			</g>
			<g>
				<g transform="translate(15 31.5)">
					<path id="SVGCleanerId_0" style="fill:#EA596E;" d="M170.667-15.2c0-15.713-12.732-28.444-28.444-28.444       S113.778-30.913,113.778-15.2s12.732,28.444,28.444,28.444S170.667,0.513,170.667-15.2"/>
				</g>
				<g transform="translate(13 29.5)">
					<path id="SVGCleanerId_0_1_" style="fill:#EA596E;" d="M147.911-37.956c0-15.713-12.732-28.444-28.444-28.444       S91.022-53.668,91.022-37.956s12.732,28.444,28.444,28.444S147.911-22.243,147.911-37.956"/>
				</g>
				<path style="fill:#EA596E;" d="M227.556-3.822c0-9.421-7.646-17.067-17.067-17.067c-9.421,0-17.067,7.646-17.067,17.067      s7.646,17.067,17.067,17.067C219.91,13.244,227.556,5.599,227.556-3.822"/>
			</g>
			<g>
				<g style="opacity:0.29;">
					<path style="fill:#9D0522;" d="M249.151-46.011c0.535,0.887,0.831,2.856,1.445,3.755c-15.406,3.686-30.982,7.384-31.334,7.384       c-0.717,0-80.361-9.239-82.489-9.717c-2.071-0.455-0.478,7.111-0.478,7.111s14.598-27.705,29.4-32.233       c2.048-0.637,5.416-14.95,5.678-21.948c7.1,0.205,11.446,2.002,18.022,7.248c4.267-2.844,15.167-4.745,20.617,0.944       c4.574-2.287,17.943-4.676,30.345,4.096C241.789-67.14,246.363-50.619,249.151-46.011"/>
				</g>
				<g transform="translate(18 30.5)">
					<path id="SVGCleanerId_0_2_" style="fill:#CCD6DD;" d="M204.8-26.578c0-15.713-12.732-28.444-28.444-28.444       s-28.444,12.732-28.444,28.444s12.732,28.444,28.444,28.444S204.8-10.865,204.8-26.578"/>
				</g>
				<g>
					<g transform="translate(18 33.5)">
						<path id="SVGCleanerId_0_3_" style="fill:#EA596E;" d="M204.8,7.556c0-15.713-12.732-28.444-28.444-28.444        S147.911-8.157,147.911,7.556S160.643,36,176.356,36S204.8,23.268,204.8,7.556"/>
					</g>
					<path style="fill:#EA596E;" d="M206.165-40.686c0-20.378-16.521-36.898-36.898-36.898s-36.898,16.521-36.898,36.898       S148.89-3.788,169.267-3.788S206.165-20.309,206.165-40.686"/>
					<g transform="translate(22 29.5)">
						<path id="SVGCleanerId_0_4_" style="fill:#EA596E;" d="M250.311-37.956c0-15.713-12.732-28.444-28.444-28.444        s-28.444,12.732-28.444,28.444s12.732,28.444,28.444,28.444S250.311-22.243,250.311-37.956"/>
					</g>
					<g transform="translate(26 30.5)">
						<path id="SVGCleanerId_0_5_" style="fill:#EA596E;" d="M295.822-26.578c0-15.713-12.732-28.444-28.444-28.444        s-28.444,12.732-28.444,28.444s12.732,28.444,28.444,28.444S295.822-10.865,295.822-26.578"/>
					</g>
					<path style="fill:#EA596E;" d="M318.578-32.267c0-12.572-10.183-22.756-22.756-22.756s-22.756,10.183-22.756,22.756       S283.25-9.511,295.822-9.511S318.578-19.694,318.578-32.267"/>
					<g transform="translate(24 31.5)">
						<path id="SVGCleanerId_0_6_" style="fill:#EA596E;" d="M273.067-15.2c0-15.713-12.732-28.444-28.444-28.444        S216.178-30.913,216.178-15.2s12.732,28.444,28.444,28.444S273.067,0.513,273.067-15.2"/>
					</g>
				</g>
				<g transform="translate(16 30.5)">
					<path id="SVGCleanerId_0_7_" style="fill:#F4ABBA;" d="M182.044-26.578c0-15.713-12.732-28.444-28.444-28.444       s-28.444,12.732-28.444,28.444S137.887,1.867,153.6,1.867S182.044-10.865,182.044-26.578"/>
				</g>
				<g transform="translate(18 32.5)">
					<path id="SVGCleanerId_1" style="fill:#F4ABBA;" d="M204.8-3.822c0-9.421-7.646-17.067-17.067-17.067       s-17.067,7.646-17.067,17.067s7.646,17.067,17.067,17.067S204.8,5.599,204.8-3.822"/>
				</g>
				<g transform="translate(20 30.5)">
					<path id="SVGCleanerId_1_1_" style="fill:#F4ABBA;" d="M227.556-26.578c0-9.421-7.646-17.067-17.067-17.067       c-9.421,0-17.067,7.646-17.067,17.067s7.646,17.067,17.067,17.067C219.91-9.511,227.556-17.157,227.556-26.578"/>
				</g>
				<g>
					<path style="fill:#F4ABBA;" d="M180.622-46.011c0-9.432-7.646-17.067-17.067-17.067c-9.421,0-17.067,7.634-17.067,17.067       c0,9.421,7.646,17.067,17.067,17.067C172.976-28.944,180.622-36.59,180.622-46.011"/>
					<path style="fill:#F4ABBA;" d="M134.633-33.78c0-8.431-6.827-15.258-15.258-15.258s-15.269,6.827-15.269,15.258       s6.838,15.258,15.269,15.258S134.633-25.349,134.633-33.78"/>
					<path style="fill:#F4ABBA;" d="M205.483-34.872c0-9.421-7.646-17.067-17.067-17.067c-9.421,0-17.067,7.646-17.067,17.067       c0,9.432,7.646,17.067,17.067,17.067C197.837-17.806,205.483-25.44,205.483-34.872"/>
				</g>
				<g transform="translate(25 30.5)">
					<path id="SVGCleanerId_1_2_" style="fill:#F4ABBA;" d="M284.444-26.578c0-9.421-7.646-17.067-17.067-17.067       s-17.067,7.646-17.067,17.067s7.646,17.067,17.067,17.067S284.444-17.157,284.444-26.578"/>
				</g>
				<g>
					<path style="fill:#FFCC4D;" d="M160.199-129.535c-2.241,5.234,0.125,17.692,6.235,12.937c6.11-4.756,2.742-15.565,9.887-15.667       c7.134-0.114,9.148,16.395,17.067,16.839c7.919,0.444,11.935-16.509,17.067-15.167c5.131,1.331,3.789,8.476,9.591,7.134       c5.803-1.331,4.46-13.13,10.411-10.24c5.951,2.879,5.86,18.694,12.231,19.376c6.36,0.683,2.48-13.949,8.886-9.978       c6.394,3.971,5.404-4.938-1.024-9.853c-6.406-4.915-36.477-17.636-68.073-9.489       C150.881-135.509,162.441-134.769,160.199-129.535"/>
					<path style="fill:#FFCC4D;" d="M257.9-168.8H150.71v36.409l112.629-6.622L257.9-168.8z"/>
				</g>
				<g>
					<path style="fill:#664500;" d="M170.667-202.933c0-12.572-7.646-22.756-17.067-22.756c-9.432,0-17.067,10.183-17.067,22.756       c0,12.572,7.634,22.756,17.067,22.756C163.021-180.178,170.667-190.361,170.667-202.933"/>
					<path style="fill:#664500;" d="M273.067-202.933c0-12.572-7.646-22.756-17.067-22.756c-9.421,0-17.067,10.183-17.067,22.756       c0,12.561,7.646,22.756,17.067,22.756C265.421-180.178,273.067-190.372,273.067-202.933"/>
					<path style="fill:#664500;" d="M244.622-297.119c0-25.145-17.84-45.511-39.822-45.511c-21.993,0-39.822,20.366-39.822,45.511       c0,25.134,17.829,45.511,39.822,45.511C226.782-251.607,244.622-271.985,244.622-297.119"/>
				</g>
			</g>
		</g>
	</g>
</g>
<g>
</g>
<g>
</g>
<g>
</g>
<g>
</g>
<g>
</g>
<g>
</g>
<g>
</g>
<g>
</g>
<g>
</g>
<g>
</g>
<g>
</g>
<g>
</g>
<g>
</g>
<g>
</g>
<g>
</g>
</svg>
