<?xml version="1.0" encoding="iso-8859-1"?>
<!-- Generator: Adobe Illustrator 19.0.0, SVG Export Plug-In . SVG Version: 6.00 Build 0)  -->
<svg xmlns="http://www.w3.org/2000/svg" xmlns:xlink="http://www.w3.org/1999/xlink" version="1.1" id="Capa_1" x="0px" y="0px" viewBox="0 0 512.006 512.006" style="enable-background:new 0 0 512.006 512.006;" xml:space="preserve">
<g transform="matrix(1.25 0 0 -1.25 0 45)">
	<g>
		<g>
			<path style="fill:#FFCC4D;" d="M398.225-157.422c0-106.826-86.596-193.422-193.422-193.422     c-106.815,0-193.422,86.596-193.422,193.422C11.38-50.608,97.988,36,204.802,36C311.628,36,398.225-50.608,398.225-157.422"/>
			<g>
				<path style="fill:#664500;" d="M323.78-126.668c-0.671,1.536-17.055,37.513-50.711,37.513      c-33.644,0-50.028-35.977-50.711-37.513c-1.047-2.355-0.364-5.109,1.638-6.724c1.991-1.616,4.847-1.673,6.952-0.159      c0.137,0.102,14.359,10.263,42.121,10.263c27.602,0,41.802-10.024,42.121-10.251c1.001-0.751,2.207-1.126,3.391-1.126      c1.252,0,2.514,0.421,3.55,1.24C324.144-131.811,324.838-129.035,323.78-126.668"/>
				<path style="fill:#664500;" d="M187.247-126.668c-0.683,1.536-17.055,37.513-50.711,37.513      c-33.644,0-50.028-35.977-50.711-37.513c-1.047-2.355-0.364-5.109,1.638-6.724c2.002-1.616,4.858-1.673,6.94-0.159      c0.148,0.102,14.359,10.263,42.132,10.263c27.602,0,41.802-10.024,42.121-10.251c1.001-0.751,2.207-1.126,3.391-1.126      c1.252,0,2.514,0.421,3.55,1.24C187.622-131.811,188.293-129.035,187.247-126.668"/>
			</g>
			<path style="fill:#F4900C;" d="M301.548-275.421c0,0,11.355,8.203,1.877,18.364c-9.466,10.16-18.443-0.592-18.443-0.592     l-47.195-43.986c-0.774,2.332-5.222,8.454-6.258,10.775l65.479,61.065c0,0,11.355,8.203,1.877,18.364     c-9.466,10.16-18.455-0.58-18.455-0.58l-61.588-57.412c-1.411,1.798-5.245,6.144-6.747,7.942l71.407,66.56     c0,0,11.344,8.215,1.866,18.364c-9.466,10.172-18.443-0.58-18.443-0.58l-71.43-66.537c-1.695,1.65-6.963,6.929-8.681,8.476     l66.742,62.225c0,0,11.332,8.203,1.866,18.364c-9.478,10.16-18.455-0.58-18.455-0.58l-70.576-65.775l-5.655-5.279l-2.526-2.367     c0,0-6.121-8.454-12.368-2.025l20.958,47.309c0,0,6.599,12.22-5.609,18.83c-12.242,6.61-18.842-5.621-18.842-5.621l-18.978-31.38     c-7.543-12.436-15.349-24.769-24.565-36.033c-25.987-31.778-25.156-78.666,3.618-109.557     c31.391-33.667,84.15-35.521,117.817-4.142c1.786,1.673,5.086,4.756,5.086,4.756L301.548-275.421z"/>
		</g>
	</g>
</g>
<g>
</g>
<g>
</g>
<g>
</g>
<g>
</g>
<g>
</g>
<g>
</g>
<g>
</g>
<g>
</g>
<g>
</g>
<g>
</g>
<g>
</g>
<g>
</g>
<g>
</g>
<g>
</g>
<g>
</g>
</svg>
