<?xml version="1.0" encoding="iso-8859-1"?>
<!-- Generator: Adobe Illustrator 19.0.0, SVG Export Plug-In . SVG Version: 6.00 Build 0)  -->
<svg xmlns="http://www.w3.org/2000/svg" xmlns:xlink="http://www.w3.org/1999/xlink" version="1.1" id="Capa_1" x="0px" y="0px" viewBox="0 0 512 512" style="enable-background:new 0 0 512 512;" xml:space="preserve">
<g transform="matrix(1.25 0 0 -1.25 0 45)">
	<g>
		<g>
			<path style="fill:#FFCC4D;" d="M409.6-168.8c0-113.106-91.694-204.8-204.8-204.8S0-281.906,0-168.8S91.694,36,204.8,36     S409.6-55.694,409.6-168.8"/>
			<g>
				<path style="fill:#664500;" d="M164.978-151.733c0-17.283-12.732-31.289-28.444-31.289s-28.444,14.006-28.444,31.289      c0,17.271,12.732,31.289,28.444,31.289S164.978-134.462,164.978-151.733"/>
				<path style="fill:#664500;" d="M301.511-151.733c0-22.005-12.732-39.822-28.444-39.822s-28.444,17.818-28.444,39.822      c0,21.993,12.732,39.822,28.444,39.822S301.511-129.74,301.511-151.733"/>
				<path style="fill:#664500;" d="M80.805-106.894c2.833-2.002,6.531-2.685,10.069-1.536c47.639,15.417,79.952-6.303,81.306-7.236      c5.154-3.55,12.231-2.287,15.815,2.844c3.584,5.143,2.367,12.186-2.753,15.792c-1.707,1.206-42.507,29.298-101.365,10.251      c-5.985-1.934-9.262-8.351-7.327-14.325C77.335-103.537,78.859-105.528,80.805-106.894"/>
				<path style="fill:#664500;" d="M284.444-259.822H125.156c-6.281,0-11.378,5.086-11.378,11.378      c0,6.292,5.097,11.378,11.378,11.378h159.289c6.292,0,11.378-5.086,11.378-11.378      C295.822-254.736,290.736-259.822,284.444-259.822"/>
				<path style="fill:#664500;" d="M341.333-82.42c-4.187,0-8.317,1.832-11.139,5.359c-15.861,19.922-48.902,37.399-60.462,37.399      c-7.305,0-21.902-10.354-29.628-17.84c-5.643-5.484-14.655-5.302-20.105,0.319c-5.473,5.632-5.336,14.609,0.273,20.082      c4.449,4.324,27.716,25.884,49.459,25.884c22.812,0,63.01-23.381,82.716-48.117c4.892-6.144,3.868-15.087-2.264-19.991      C347.568-81.407,344.428-82.42,341.333-82.42"/>
			</g>
		</g>
	</g>
</g>
<g>
</g>
<g>
</g>
<g>
</g>
<g>
</g>
<g>
</g>
<g>
</g>
<g>
</g>
<g>
</g>
<g>
</g>
<g>
</g>
<g>
</g>
<g>
</g>
<g>
</g>
<g>
</g>
<g>
</g>
</svg>
