<?xml version="1.0" encoding="iso-8859-1"?>
<!-- Generator: Adobe Illustrator 19.0.0, SVG Export Plug-In . SVG Version: 6.00 Build 0)  -->
<svg xmlns="http://www.w3.org/2000/svg" xmlns:xlink="http://www.w3.org/1999/xlink" version="1.1" id="Capa_1" x="0px" y="0px" viewBox="0 0 512 512" style="enable-background:new 0 0 512 512;" xml:space="preserve">
<g transform="matrix(1.25 0 0 -1.25 0 45)">
	<g>
		<g>
			<path style="fill:#FFCC4D;" d="M409.6-168.8c0-113.106-91.694-204.8-204.8-204.8C91.705-373.6,0-281.906,0-168.8     C0-55.705,91.705,36,204.8,36C317.906,36,409.6-55.705,409.6-168.8"/>
			<g>
				<path style="fill:#664500;" d="M256-248.444h-51.2c-63.716,0-79.644,11.378-79.644,11.378s14.416-40.892,70.303-45.09      c1.183-0.262,2.401-0.421,3.652-0.421h51.2c9.387,0,22.756,13.369,22.756,22.756C273.067-250.436,265.387-248.444,256-248.444"/>
				<path style="fill:#664500;" d="M179.917-167.548c-2.002-1.627-4.858-1.673-6.94-0.159c-0.148,0.114-14.347,10.263-42.121,10.263      s-41.984-10.149-42.109-10.24c-2.071-1.547-4.938-1.513-6.952,0.102c-2.025,1.616-2.708,4.392-1.661,6.758      c0.694,1.536,17.067,37.513,50.722,37.513s50.028-35.977,50.711-37.513C182.602-163.179,181.919-165.933,179.917-167.548"/>
				<path style="fill:#664500;" d="M327.828-167.548c-2.002-1.627-4.847-1.684-6.94-0.159c-0.137,0.114-14.347,10.263-42.121,10.263      s-41.995-10.149-42.109-10.24c-2.071-1.547-4.927-1.513-6.952,0.102s-2.708,4.392-1.661,6.758      c0.683,1.536,17.067,37.513,50.722,37.513c33.644,0,50.028-35.977,50.711-37.513      C330.513-163.179,329.842-165.933,327.828-167.548"/>
				<path style="fill:#664500;" d="M149.163-32.289c6.281-0.239,11.173-5.53,10.934-11.81c-0.25-6.258-5.507-11.15-11.765-10.934      c-1.775,0.046-40.619,0.603-72.124-38.195c-3.959-4.847-11.127-5.621-16.009-1.65c-4.881,3.959-5.621,11.127-1.65,16.009      C97.553-30.856,147.081-32.21,149.163-32.289"/>
				<path style="fill:#664500;" d="M256.193-51.313c2.059,0.375,50.893,8.681,96.267-33.371c4.619-4.278,4.892-11.48,0.614-16.077      c-4.267-4.631-11.457-4.892-16.077-0.614c-36.727,34.031-75.173,27.944-76.8,27.659c-6.167-1.047-12.06,3.083-13.141,9.239      C245.965-58.31,250.038-52.428,256.193-51.313"/>
			</g>
			<path style="fill:#88C9F9;" d="M261.689-259.822h-34.133c-6.258,0-11.378-5.12-11.378-11.378v-45.511     c0-6.258,5.12-11.378,11.378-11.378c6.258,0,11.378,5.12,11.378,11.378v-39.822c0-9.387,7.68-17.067,17.067-17.067     s17.067,7.68,17.067,17.067v51.2v28.444v5.689C273.067-264.942,267.947-259.822,261.689-259.822"/>
		</g>
	</g>
</g>
<g>
</g>
<g>
</g>
<g>
</g>
<g>
</g>
<g>
</g>
<g>
</g>
<g>
</g>
<g>
</g>
<g>
</g>
<g>
</g>
<g>
</g>
<g>
</g>
<g>
</g>
<g>
</g>
<g>
</g>
</svg>
