<?xml version="1.0" encoding="iso-8859-1"?>
<!-- Generator: Adobe Illustrator 19.0.0, SVG Export Plug-In . SVG Version: 6.00 Build 0)  -->
<svg xmlns="http://www.w3.org/2000/svg" xmlns:xlink="http://www.w3.org/1999/xlink" version="1.1" id="Capa_1" x="0px" y="0px" viewBox="0 0 510.567 510.567" style="enable-background:new 0 0 510.567 510.567;" xml:space="preserve">
<g transform="matrix(1.25 0 0 -1.25 0 45)">
	<g>
		<g>
			<path style="fill:#FFCC4D;" d="M374.894-196.671c0-94.254-76.413-170.667-170.667-170.667S33.56-290.925,33.56-196.671     S109.973-26.005,204.227-26.005S374.894-102.418,374.894-196.671"/>
			<g>
				<path style="fill:#664500;" d="M291.699-249.066c-1.661,1.513-4.164,1.604-5.939,0.262c-0.375-0.262-36.75-27.17-81.522-27.17      c-44.658,0-81.169,26.908-81.522,27.17c-1.798,1.343-4.289,1.229-5.951-0.262c-1.661-1.502-2.037-3.982-0.876-5.894      c1.195-2.002,30.14-49.118,88.348-49.118c58.197,0,87.142,47.115,88.337,49.118C293.736-253.037,293.36-250.568,291.699-249.066      "/>
				<path style="fill:#664500;" d="M166.749-182.62c0-18.125-10.49-32.802-23.427-32.802c-12.937,0-23.427,14.677-23.427,32.802      c0,18.102,10.49,32.791,23.427,32.791C156.258-149.829,166.749-164.518,166.749-182.62"/>
				<path style="fill:#664500;" d="M288.559-182.62c0-18.125-10.49-32.802-23.438-32.802c-12.925,0-23.415,14.677-23.415,32.802      c0,18.102,10.49,32.791,23.415,32.791C278.069-149.829,288.559-164.518,288.559-182.62"/>
				<path style="fill:#664500;" d="M363.516-27.484c-13.54-16.395-36.204-22.198-57.754-24.132      c-3.618,17.499-19.149,82.5-50.335,82.5c-27.341,0-37.194-12.413-51.2-12.413l0,0c-14.006,0-23.859,12.413-51.2,12.413      c-31.186,0-46.717-65.001-50.335-82.5c-21.55,1.934-44.214,7.737-57.754,24.132C20.442,2.167-11.951-19.679,4.456-52.219      c25.919-51.393,88.61-87.563,199.771-87.563c111.15,0,173.841,36.17,199.771,87.563      C420.405-19.679,388.012,2.167,363.516-27.484"/>
			</g>
			<path style="fill:#825D0E;" d="M244.049,8.129c-21.265,0-28.934-10.968-39.811-10.968h-0.023     c-10.877,0-18.546,10.968-39.811,10.968c-28.023,0-39.822-76.8-39.822-76.8s14.586-25.6,79.644-25.6     c65.07,0,79.644,25.6,79.644,25.6S272.073,8.129,244.049,8.129"/>
			<path style="fill:#664500;" d="M124.583-26.005c0,0,23.598-22.756,79.644-22.756c56.058,0,79.644,22.756,79.644,22.756V-48.76     c0,0-25.281-22.756-79.644-22.756S124.583-48.76,124.583-48.76V-26.005z"/>
		</g>
	</g>
</g>
<g>
</g>
<g>
</g>
<g>
</g>
<g>
</g>
<g>
</g>
<g>
</g>
<g>
</g>
<g>
</g>
<g>
</g>
<g>
</g>
<g>
</g>
<g>
</g>
<g>
</g>
<g>
</g>
<g>
</g>
</svg>
