<?xml version="1.0" encoding="iso-8859-1"?>
<!-- Generator: Adobe Illustrator 19.0.0, SVG Export Plug-In . SVG Version: 6.00 Build 0)  -->
<svg xmlns="http://www.w3.org/2000/svg" xmlns:xlink="http://www.w3.org/1999/xlink" version="1.1" id="Capa_1" x="0px" y="0px" viewBox="0 0 512 512" style="enable-background:new 0 0 512 512;" xml:space="preserve">
<g transform="matrix(1.25 0 0 -1.25 0 45)">
	<g>
		<g>
			<path id="SVGCleanerId_0" style="fill:#F4900C;" d="M409.6-134.667c0-21.993-12.732-39.822-28.444-39.822     c-15.713,0-28.444,17.829-28.444,39.822s12.732,39.822,28.444,39.822C396.868-94.844,409.6-112.673,409.6-134.667"/>
			<g transform="translate(-31)">
				<path id="SVGCleanerId_0_1_" style="fill:#F4900C;" d="M56.889-134.667c0-21.993-12.732-39.822-28.444-39.822      S0-156.66,0-134.667s12.732,39.822,28.444,39.822S56.889-112.673,56.889-134.667"/>
			</g>
			<g>
				<path style="fill:#FFAC33;" d="M386.844-185.867c0-6.292-5.086-11.378-11.378-11.378h-34.133      c-6.292,0-11.378,5.086-11.378,11.378v102.4c0,6.281,5.086,11.378,11.378,11.378h34.133c6.292,0,11.378-5.097,11.378-11.378      V-185.867z"/>
				<path style="fill:#FFAC33;" d="M79.644-185.867c0-6.292-5.097-11.378-11.378-11.378H34.133c-6.281,0-11.378,5.086-11.378,11.378      v102.4c0,6.281,5.097,11.378,11.378,11.378h34.133c6.281,0,11.378-5.097,11.378-11.378V-185.867z"/>
			</g>
			<path style="fill:#FFCC4D;" d="M318.578-26.578c0-31.414-50.938-45.511-113.778-45.511S91.022-57.992,91.022-26.578     S141.961,30.311,204.8,30.311S318.578,4.836,318.578-26.578"/>
			<path style="fill:#F4900C;" d="M284.444-16.156c0-18.33-35.669-33.189-79.644-33.189c-43.986,0-79.644,14.859-79.644,33.189     s35.658,33.189,79.644,33.189C248.775,17.033,284.444,2.174,284.444-16.156"/>
			<path style="fill:#226699;" d="M341.333-32.267c0-15.713-12.732-17.067-28.444-17.067H96.711     c-15.713,0-28.444,1.354-28.444,17.067S80.998-3.822,96.711-3.822h216.178C328.602-3.822,341.333-16.554,341.333-32.267"/>
			<path style="fill:#55ACEE;" d="M364.089-311.022c0-12.561-10.183-22.756-22.756-22.756H68.267     c-12.561,0-22.756,10.195-22.756,22.756v250.311c0,12.561,10.194,22.756,22.756,22.756h273.067     c12.572,0,22.756-10.194,22.756-22.756V-311.022z"/>
			<path style="fill:#3B88C3;" d="M398.222-345.156c0-12.572,1.195-22.756-11.378-22.756H22.756     c-12.561,0-11.378,10.183-11.378,22.756v11.378c0,12.572,10.194,22.756,22.756,22.756h341.333     c12.572,0,22.756-10.183,22.756-22.756V-345.156z"/>
			<path style="fill:#55ACEE;" d="M212.844-349.297c-4.449-4.449-11.639-4.449-16.088,0l-64.364,64.364     c-4.437,4.449-4.449,11.651,0,16.088l64.364,52.998c4.449,4.437,11.639,4.437,16.088,0l64.353-52.998     c4.449-4.437,4.46-11.639,0-16.088L212.844-349.297z"/>
			<path id="SVGCleanerId_1" style="fill:#FFFFFF;" d="M182.044-134.667c0-28.274-22.926-51.2-51.2-51.2s-51.2,22.926-51.2,51.2     s22.926,51.2,51.2,51.2S182.044-106.393,182.044-134.667"/>
			<g transform="translate(13)">
				<path id="SVGCleanerId_1_1_" style="fill:#FFFFFF;" d="M329.956-134.667c0-28.274-22.926-51.2-51.2-51.2s-51.2,22.926-51.2,51.2      s22.926,51.2,51.2,51.2S329.956-106.393,329.956-134.667"/>
			</g>
			<g>
				<path style="fill:#DD2E44;" d="M295.822-163.111c0-6.292-5.086-11.378-11.378-11.378h-11.378      c-6.292,0-11.378,5.086-11.378,11.378v56.889c0,6.281,5.086,11.378,11.378,11.378h11.378c6.292,0,11.378-5.097,11.378-11.378      V-163.111z"/>
				<path style="fill:#DD2E44;" d="M147.911-163.111c0-6.292-5.097-11.378-11.378-11.378h-11.378      c-6.281,0-11.378,5.086-11.378,11.378v56.889c0,6.281,5.097,11.378,11.378,11.378h11.378c6.281,0,11.378-5.097,11.378-11.378      V-163.111z"/>
			</g>
			<path style="fill:#F5F8FA;" d="M329.956-259.822c0-15.713-12.732-28.444-28.444-28.444H108.089     c-15.713,0-28.444,12.732-28.444,28.444s12.732,28.444,28.444,28.444h193.422C317.224-231.378,329.956-244.11,329.956-259.822"/>
			<g>
				<path style="fill:#CCD6DD;" d="M216.178-288.267h-22.756v56.889h22.756V-288.267z"/>
				<path style="fill:#CCD6DD;" d="M159.289-288.267h-22.756v56.889h22.756V-288.267z"/>
				<path style="fill:#CCD6DD;" d="M273.067-288.267h-22.756v56.889h22.756V-288.267z"/>
			</g>
		</g>
	</g>
	<g>
		<g>
			<path style="fill:#CCD6DD;" d="M102.4-288.267H79.644v56.889H102.4V-288.267z"/>
			<path style="fill:#CCD6DD;" d="M329.956-288.267H307.2v56.889h22.756V-288.267z"/>
		</g>
	</g>
</g>
<g>
</g>
<g>
</g>
<g>
</g>
<g>
</g>
<g>
</g>
<g>
</g>
<g>
</g>
<g>
</g>
<g>
</g>
<g>
</g>
<g>
</g>
<g>
</g>
<g>
</g>
<g>
</g>
<g>
</g>
</svg>
