<?xml version="1.0" encoding="iso-8859-1"?>
<!-- Generator: Adobe Illustrator 19.0.0, SVG Export Plug-In . SVG Version: 6.00 Build 0)  -->
<svg xmlns="http://www.w3.org/2000/svg" xmlns:xlink="http://www.w3.org/1999/xlink" version="1.1" id="Capa_1" x="0px" y="0px" viewBox="0 0 512 512" style="enable-background:new 0 0 512 512;" xml:space="preserve">
<g transform="matrix(1.25 0 0 -1.25 0 45)">
	<g>
		<g>
			<g>
				<path style="fill:#FFCC4D;" d="M409.6-168.8c0-113.1-91.7-204.8-204.8-204.8S0-281.9,0-168.8S91.7,36,204.8,36      C317.9,36,409.6-55.7,409.6-168.8"/>
				<g>
					<path style="fill:#664500;" d="M329.457-166.497c-0.7,1.5-17.1,37.5-50.7,37.5s-50-36-50.7-37.5c-1-2.4-0.4-5.1,1.6-6.7       s4.8-1.7,7-0.1c0.1,0.1,14.4,10.3,42.1,10.3c27.6,0,41.8-10,42.1-10.3c1-0.8,2.2-1.1,3.4-1.1c1.3,0,2.5,0.4,3.5,1.2       C329.857-171.597,330.557-168.897,329.457-166.497"/>
					<path style="fill:#664500;" d="M181.557-166.497c-0.7,1.5-17.1,37.5-50.7,37.5s-50-36-50.7-37.5c-1-2.4-0.4-5.1,1.6-6.7       s4.9-1.7,6.9-0.1c0.1,0.1,14.4,10.3,42.1,10.3c27.6,0,41.8-10,42.1-10.3c1-0.8,2.2-1.1,3.4-1.1c1.3,0,2.5,0.4,3.5,1.2       C181.957-171.597,182.557-168.897,181.557-166.497"/>
					<path style="fill:#664500;" d="M147.9-282.6c0,0,11.4,45.5,56.9,45.5s56.9-45.5,56.9-45.5s-11.4,11.4-56.9,11.4       S147.9-282.6,147.9-282.6"/>
				</g>
			</g>
		</g>
	</g>
	<g>
		<path style="fill:#E6E7E8;" d="M405.4-127.1c-1.8,8.8-4.2,17.4-7.1,25.8L178.9-61.4l-67.3-12.2L405.4-127.1z"/>
		<polygon style="fill:#BCBEC0;" points="77.9,-43 77.9,-43 111.5,-36.9 111.5,-36.9   "/>
		<path style="fill:#E6E7E8;" d="M393.1-88.2c-4,9.4-8.7,18.4-14.1,27l-99.3,18.1l-67.3-12.2L393.1-88.2z"/>
		<g>
			<path style="fill:#D1D3D4;" d="M379-61.1c-3,4.8-6.1,9.4-9.5,14l-56.2,10.2L279.7-43L379-61.1z"/>
			<path style="fill:#D1D3D4;" d="M93.4,3.1c-4.3-2.8-8.5-5.8-12.6-8.9l30.6,5.6L93.4,3.1z"/>
		</g>
		<path style="fill:#E6E7E8;" d="M369.6-47.1c-4.6,6.2-9.5,12.1-14.8,17.8l-41.4-7.5L369.6-47.1z"/>
		<path style="fill:#BCBEC0;" d="M354.8-29.4c-3.3,3.6-6.8,7-10.3,10.4L129.9-58.1l-52-9.5L21.3-77.9c-2.2-4.4-4.2-8.8-6-13.3    l96.3,17.5l67.3,12.2l0,0l219.3-39.8c-1.6,4.5-3.3,8.9-5.1,13.2L212.4-55.2l0,0L279.7-43l0,0l33.6,6.1l0,0L354.8-29.4z"/>
		<path style="fill:#E6E7E8;" d="M344.4-19c-7.8,7.3-16.1,13.9-25,19.9l-39.7-7.2l0,0l-67.3-12.2l0,0l0,0l-33.6-6.1l0,0l0,0    l-67.3-12.2l0,0l0,0l-33.6-6.1l0,0l0,0l-40.1-7.3c-6.2-8.7-11.7-17.9-16.4-27.5L78-67.4l0,0l52,9.5L344.4-19z"/>
		<path style="fill:#D1D3D4;" d="M77.9-43l33.6,6.1l0,0l67.3,12.2l0,0l0,0l33.6,6.1l0,0l0,0l67.3,12.2l39.8,7.2    c-5,3.4-10.1,6.5-15.4,9.4l-58-10.6l-67.3-12.2l0,0l0,0l-33.6-6.1l0,0l0,0l-17.7-3.2L48.8-36.1c-3.9-4.6-7.6-9.3-11.1-14.3    L77.9-43L77.9-43z"/>
		<path style="fill:#E6E7E8;" d="M127.5-21.8l17.7,3.2l0,0l0,0l33.6,6.1l0,0l0,0l67.3,12.2l0,0l58,10.6    c-12.8,7.1-26.4,12.8-40.6,17.1L178.8,12l-50.4,9.2c-12.3-4.9-23.9-11-34.9-18.1l18.1-3.3l0,0L81-5.8c-11.7-8.9-22.5-19.1-32-30.3    L127.5-21.8z"/>
	</g>
</g>
<g>
</g>
<g>
</g>
<g>
</g>
<g>
</g>
<g>
</g>
<g>
</g>
<g>
</g>
<g>
</g>
<g>
</g>
<g>
</g>
<g>
</g>
<g>
</g>
<g>
</g>
<g>
</g>
<g>
</g>
</svg>
