<?xml version="1.0" encoding="iso-8859-1"?>
<!-- Generator: Adobe Illustrator 19.0.0, SVG Export Plug-In . SVG Version: 6.00 Build 0)  -->
<svg xmlns="http://www.w3.org/2000/svg" xmlns:xlink="http://www.w3.org/1999/xlink" version="1.1" id="Capa_1" x="0px" y="0px" viewBox="0 0 512 512" style="enable-background:new 0 0 512 512;" xml:space="preserve">
<g transform="matrix(1.25 0 0 -1.25 0 45)">
	<g>
		<g>
			<path style="fill:#BF6952;" d="M409.6-43.644c0,56.195-77.05,50.711-104.323,47.013C277.595,23.723,243.985,36,204.8,36     c-39.117,0-72.681-12.299-100.329-32.643C77.335,7.055,0,12.653,0-43.644c0-32.893,17.783-53.84,27.682-62.953     c-10.775-31.027-16.304-64.193-16.304-96.336c0-62.35,34.6-100.875,78.973-122.926L72.317-373.6h86.972l8.397,25.202     c12.8-1.661,25.338-2.446,37.114-2.446c8.385,0,17.169,0.398,26.146,1.206l7.987-23.962h91.022l-18.751,43.77     c48.174,21.174,87.017,60.427,87.017,126.896c0,32.256-5.495,65.434-16.225,96.404C391.908-97.37,409.6-76.447,409.6-43.644"/>
			<path style="fill:#D79E84;" d="M341.333-123.289c0,43.986-35.658,79.644-79.644,79.644c-22.3,0-42.428-9.193-56.889-23.95     c-14.45,14.757-34.588,23.95-56.889,23.95c-43.986,0-79.644-35.658-79.644-79.644c0-41.313,31.46-75.264,71.726-79.246     c-16.202-15.076-26.214-35.499-26.214-57.287c0-43.986,40.744-79.644,91.022-79.644s91.022,35.658,91.022,79.644     c0,21.788-10.012,42.2-26.214,57.287C309.874-198.553,341.333-164.602,341.333-123.289"/>
			<path id="SVGCleanerId_0" style="fill:#292F33;" d="M170.667-146.044c0-18.853-10.183-34.133-22.756-34.133     c-12.561,0-22.756,15.28-22.756,34.133s10.194,34.133,22.756,34.133C160.484-111.911,170.667-127.191,170.667-146.044"/>
			<g transform="translate(10)">
				<path id="SVGCleanerId_0_1_" style="fill:#292F33;" d="M284.444-146.044c0-18.853-10.183-34.133-22.756-34.133      c-12.561,0-22.756,15.28-22.756,34.133s10.194,34.133,22.756,34.133C274.261-111.911,284.444-127.191,284.444-146.044"/>
			</g>
			<path style="fill:#D79E84;" d="M147.911-345.156c-46.808,0-71.305,71.68-71.305,110.103c0,7.088,0.865,12.846,2.56,17.124     c3.22,8.101,8.806,9.307,11.856,9.307c21.914,0,37.183-20.878,43.497-31.46c11.31,7.703,38.593,24.041,66.492,24.041     c16.555,0,30.663-5.712,41.95-16.998c16.407-16.418,22.96-32.916,19.456-49.05c-6.633-30.629-47.718-48.185-54.682-50.972     C203.719-336.178,188.644-345.156,147.911-345.156"/>
			<path style="fill:#BF6952;" d="M91.022-202.933c-3.607,0-12.516-1.252-17.135-12.902c-1.968-4.938-2.97-11.412-2.97-19.217     c0-40.414,26.453-115.792,76.993-115.792c39.834,0,56.661,8.511,62.589,12.766c9.91,3.982,50.404,22.096,57.481,54.795     c3.925,18.136-3.14,36.398-21.003,54.261c-12.39,12.39-27.853,18.671-45.966,18.671c-25.884,0-51.086-13.198-64.808-21.834     C127.989-220.159,112.469-202.933,91.022-202.933 M91.022-214.311c25.441,0,41.597-34.133,41.597-34.133     s34.224,26.715,68.392,26.715c13.335,0,26.647-4.062,37.922-15.337c56.889-56.889-34.133-91.022-34.133-91.022     s-11.378-11.378-56.889-11.378C91.022-339.467,68.267-214.311,91.022-214.311"/>
			<path style="fill:#D79E84;" d="M250.311-345.156c-41.677,0-56.491,9.387-60.086,12.311c-6.098,3.163-49.084,26.647-54.716,61.406     c-2.788,17.135,3.857,33.883,19.752,49.778c10.024,10.001,22.665,15.087,37.581,15.087c31.039,0,63.863-22.107,77.483-32.415     c4.631,11.275,15.633,30.367,36.875,30.367c3.049,0,8.636-1.206,11.856-9.307c1.684-4.278,2.56-10.035,2.56-17.124     C321.616-273.476,297.119-345.156,250.311-345.156"/>
			<g>
				<path style="fill:#BF6952;" d="M192.842-200.885c-16.475,0-30.47-5.632-41.597-16.759      c-17.26-17.249-24.439-35.658-21.356-54.693c5.939-36.602,49.266-61.076,57.253-65.308c5.37-4.085,21.948-13.198,63.169-13.198      c50.551,0,76.993,75.378,76.993,115.792c0,7.817-1.001,14.279-2.97,19.217c-4.619,11.651-13.517,12.902-17.135,12.902      c-19.354,0-32.051-13.722-39.196-27.341C251.654-218.726,221.685-200.885,192.842-200.885 M192.842-212.263      c37.968,0,80.225-36.181,80.225-36.181s8.693,34.133,34.133,34.133c22.756,0,0-125.156-56.889-125.156      c-45.511,0-56.889,11.378-56.889,11.378s-91.022,45.511-34.133,102.4C169.028-215.95,180.713-212.263,192.842-212.263"/>
				<path style="fill:#BF6952;" d="M204.8-299.644c-1.081,0-2.173,0.307-3.152,0.956l-65.479,43.657      c-2.617,1.741-3.322,5.279-1.57,7.885c1.729,2.628,5.268,3.322,7.885,1.582l65.479-43.657c2.606-1.741,3.322-5.279,1.582-7.885      C208.441-298.757,206.643-299.644,204.8-299.644"/>
				<path style="fill:#BF6952;" d="M227.556-265.511c-1.092,0-2.185,0.307-3.152,0.956l-62.145,41.426      c-2.617,1.741-3.322,5.279-1.57,7.885c1.729,2.617,5.257,3.334,7.885,1.582l62.134-41.426c2.617-1.741,3.322-5.279,1.582-7.885      C231.185-264.624,229.387-265.511,227.556-265.511"/>
			</g>
		</g>
	</g>
</g>
<g>
</g>
<g>
</g>
<g>
</g>
<g>
</g>
<g>
</g>
<g>
</g>
<g>
</g>
<g>
</g>
<g>
</g>
<g>
</g>
<g>
</g>
<g>
</g>
<g>
</g>
<g>
</g>
<g>
</g>
</svg>
