<?xml version="1.0" encoding="iso-8859-1"?>
<!-- Generator: Adobe Illustrator 19.0.0, SVG Export Plug-In . SVG Version: 6.00 Build 0)  -->
<svg xmlns="http://www.w3.org/2000/svg" xmlns:xlink="http://www.w3.org/1999/xlink" version="1.1" id="Capa_1" x="0px" y="0px" viewBox="0 0 512 512" style="enable-background:new 0 0 512 512;" xml:space="preserve">
<g transform="matrix(1.25 0 0 -1.25 0 45)">
	<g>
		<g>
			<path style="fill:#BF6952;" d="M409.6-43.644c0,56.195-77.05,50.711-104.323,47.013C277.595,23.723,243.985,36,204.8,36     c-39.117,0-72.681-12.299-100.329-32.643C77.335,7.055,0,12.653,0-43.644c0-32.893,17.783-53.84,27.682-62.953     c-10.775-31.027-16.304-64.193-16.304-96.336c0-113.106,113.778-147.911,193.422-147.911s193.422,34.133,193.422,147.911     c0,32.256-5.495,65.434-16.225,96.404C391.908-97.37,409.6-76.447,409.6-43.644"/>
			<g>
				<path style="fill:#D79E84;" d="M261.689-43.644c-22.3,0-42.428-9.193-56.889-23.95c-14.45,14.757-34.588,23.95-56.889,23.95      c-43.986,0-79.644-35.658-79.644-79.644s35.658-79.644,79.644-79.644c22.3,0,42.439,9.193,56.889,23.95      c14.461-14.757,34.588-23.95,56.889-23.95c43.986,0,79.644,35.658,79.644,79.644S305.675-43.644,261.689-43.644"/>
				<path style="fill:#D79E84;" d="M295.822-271.2c0-50.278-40.744-91.022-91.022-91.022s-91.022,40.744-91.022,91.022      s40.744,91.022,91.022,91.022S295.822-220.922,295.822-271.2"/>
			</g>
			<g>
				<path style="fill:#BF6952;" d="M129.206-216.359L86.96-373.6H0l60.939,202.752L129.206-216.359z"/>
				<path style="fill:#BF6952;" d="M164.523-77.778c-28.479,0-57.515-18.318-73.023-29.912      c-7.487,12.129-21.22,27.864-41.938,27.864c-3.607,0-12.516-1.252-17.135-12.891c-1.968-4.949-2.97-11.412-2.97-19.228      c0-40.402,26.453-115.78,76.993-115.78c41.222,0,57.81,9.114,63.169,13.198c7.987,4.221,51.314,28.695,57.253,65.286      c3.083,19.046-4.096,37.456-21.356,54.704C194.401-83.41,180.611-77.778,164.523-77.778"/>
			</g>
			<path style="fill:#D79E84;" d="M164.523-89.156c11.765,0,23.222-3.686,32.95-13.426c56.889-56.878-34.133-102.389-34.133-102.389     s-11.378-11.378-56.889-11.378c-56.889,0-79.644,125.144-56.889,125.144c25.441,0,38.184-34.133,38.184-34.133     S127.681-89.156,164.523-89.156"/>
			<g>
				<path style="fill:#BF6952;" d="M125.156-142.404c-1.843,0-3.641,0.887-4.745,2.537c-1.741,2.617-1.035,6.144,1.582,7.885      l68.267,45.511c2.628,1.741,6.155,1.047,7.885-1.582c1.752-2.617,1.047-6.144-1.57-7.885l-68.267-45.511      C127.329-142.096,126.236-142.404,125.156-142.404"/>
				<path style="fill:#BF6952;" d="M147.911-176.537c-1.843,0-3.641,0.887-4.745,2.537c-1.741,2.617-1.035,6.144,1.582,7.885      l68.267,45.5c2.594,1.741,6.121,1.047,7.885-1.57c1.752-2.617,1.035-6.144-1.57-7.896l-68.267-45.5      C150.084-176.23,148.992-176.537,147.911-176.537"/>
				<path style="fill:#BF6952;" d="M284.444-216.359L318.578-373.6H409.6l-56.889,202.752L284.444-216.359z"/>
				<path style="fill:#BF6952;" d="M249.731-77.778c-16.486,0-30.481-5.632-41.597-16.759      c-17.271-17.249-24.451-35.658-21.356-54.704c5.928-36.591,49.266-61.065,57.242-65.286      c5.382-4.085,21.959-13.198,63.181-13.198c50.54,0,76.982,75.378,76.982,115.78c0,7.817-1.001,14.279-2.958,19.228      c-4.631,11.639-13.528,12.891-17.135,12.891c-19.354,0-32.063-13.722-39.208-27.341      C308.531-95.618,278.562-77.778,249.731-77.778"/>
			</g>
			<path style="fill:#D79E84;" d="M249.731-89.156c37.968,0,80.225-36.181,80.225-36.181s8.681,34.133,34.133,34.133     c22.756,0,0-125.144-56.889-125.144c-45.511,0-56.889,11.378-56.889,11.378s-91.022,45.511-34.133,102.389     C225.906-92.842,237.602-89.156,249.731-89.156"/>
			<g>
				<path style="fill:#BF6952;" d="M273.067-174.489c-1.092,0-2.185,0.307-3.152,0.956l-68.267,45.5      c-2.617,1.752-3.322,5.279-1.582,7.896c1.729,2.606,5.257,3.322,7.885,1.57l68.267-45.5c2.617-1.741,3.322-5.268,1.582-7.885      C276.696-173.601,274.898-174.489,273.067-174.489"/>
				<path style="fill:#BF6952;" d="M295.822-140.356c-1.092,0-2.185,0.307-3.152,0.956l-68.267,45.511      c-2.617,1.741-3.322,5.268-1.582,7.885c1.752,2.617,5.291,3.311,7.885,1.582l68.267-45.511c2.617-1.741,3.322-5.268,1.582-7.885      C299.452-139.468,297.654-140.356,295.822-140.356"/>
			</g>
			<path style="fill:#642116;" d="M266.536-290.963c-1.047,1.673-2.879,2.697-4.847,2.697H147.911c-1.968,0-3.8-1.024-4.836-2.697     c-1.035-1.673-1.138-3.766-0.25-5.53c0.99-1.991,24.758-48.663,61.975-48.663c37.228,0,60.996,46.672,61.975,48.663     C267.662-294.729,267.571-292.636,266.536-290.963"/>
			<path id="SVGCleanerId_0" style="fill:#642116;" d="M216.178-254.133c-3.14,0-5.689,2.549-5.689,5.689v22.756     c0,3.14,2.549,5.689,5.689,5.689c3.14,0,5.689-2.549,5.689-5.689v-22.756C221.867-251.585,219.318-254.133,216.178-254.133"/>
			<g transform="translate(-2)">
				<path id="SVGCleanerId_0_1_" style="fill:#642116;" d="M193.422-254.133c-3.14,0-5.689,2.549-5.689,5.689v22.756      c0,3.14,2.549,5.689,5.689,5.689c3.14,0,5.689-2.549,5.689-5.689v-22.756C199.111-251.585,196.563-254.133,193.422-254.133"/>
			</g>
		</g>
	</g>
</g>
<g>
</g>
<g>
</g>
<g>
</g>
<g>
</g>
<g>
</g>
<g>
</g>
<g>
</g>
<g>
</g>
<g>
</g>
<g>
</g>
<g>
</g>
<g>
</g>
<g>
</g>
<g>
</g>
<g>
</g>
</svg>
