<?xml version="1.0" encoding="iso-8859-1"?>
<!-- Generator: Adobe Illustrator 19.0.0, SVG Export Plug-In . SVG Version: 6.00 Build 0)  -->
<svg xmlns="http://www.w3.org/2000/svg" xmlns:xlink="http://www.w3.org/1999/xlink" version="1.1" id="Capa_1" x="0px" y="0px" viewBox="0 0 512 512" style="enable-background:new 0 0 512 512;" xml:space="preserve">
<g transform="matrix(1.25 0 0 -1.25 0 45)">
	<g>
		<g>
			<g>
				<path style="fill:#FFCC4D;" d="M409.6-191.556c0-113.778-125.156-182.044-204.8-182.044S0-304.662,0-191.556S45.511,36,204.8,36      S409.6-77.778,409.6-191.556"/>
				<path style="fill:#FFCC4D;" d="M398.222,24.622c11.378-11.378,0-125.156,0-125.156L307.2,13.244      C307.2,13.244,386.844,36,398.222,24.622"/>
				<path style="fill:#FFCC4D;" d="M11.378,24.622c-11.378-11.378,0-125.156,0-125.156L102.4,13.244      C102.4,13.244,22.756,36,11.378,24.622"/>
			</g>
			<path style="fill:#292F33;" d="M357.308-233.71c-1.399,1.923-3.846,2.788-6.167,2.116c-0.785-0.228-79.644-22.539-146.352-22.539     c-66.651,0-145.556,22.312-146.341,22.539c-2.378,0.705-4.904-0.25-6.281-2.287c-1.365-2.037-1.286-4.733,0.228-6.679     c3.322-4.278,82.159-104.596,152.394-104.596c81.749,0,149.8,100.648,152.656,104.937     C358.764-238.227,358.707-235.644,357.308-233.71"/>
			<path id="SVGCleanerId_0" style="fill:#292F33;" d="M159.289-128.978c0-21.993-10.183-39.822-22.756-39.822     c-12.561,0-22.756,17.829-22.756,39.822s10.194,39.822,22.756,39.822C149.106-89.156,159.289-106.985,159.289-128.978"/>
			<g transform="translate(12)">
				<path id="SVGCleanerId_0_1_" style="fill:#292F33;" d="M295.822-128.978c0-21.993-10.183-39.822-22.756-39.822      c-12.561,0-22.756,17.829-22.756,39.822s10.195,39.822,22.756,39.822C285.639-89.156,295.822-106.985,295.822-128.978"/>
			</g>
			<path style="fill:#F5F8FA;" d="M91.022-248.444c0,0,56.889-22.756,113.778-22.756s113.778,22.756,113.778,22.756     s0-34.133-11.378-34.133S284.444-271.2,284.444-271.2s-45.511-22.756-79.644-22.756S125.156-271.2,125.156-271.2     s-11.378-11.378-22.756-11.378S91.022-248.444,91.022-248.444"/>
			<path style="fill:#67757F;" d="M204.8-185.867c34.145,0,34.145-5.689,34.145-17.067s-17.067-34.133-34.145-34.133     c-17.067,0-34.133,22.756-34.133,34.133S170.655-185.867,204.8-185.867"/>
			<g>
				<path style="fill:#9AAAB4;" d="M295.822-197.244c-2.378,0-4.597,1.513-5.404,3.891c-0.978,2.981,0.626,6.201,3.607,7.202      l102.4,34.122c2.992,1.001,6.201-0.614,7.202-3.595c0.99-2.981-0.626-6.201-3.607-7.191l-102.4-34.145      C297.017-197.153,296.425-197.244,295.822-197.244"/>
				<path style="fill:#9AAAB4;" d="M284.433-220c-2.651,0-5.018,1.866-5.564,4.574c-0.626,3.083,1.377,6.076,4.46,6.69      l113.778,22.756c2.958,0.614,6.064-1.365,6.69-4.46c0.626-3.083-1.377-6.076-4.46-6.69l-113.778-22.756      C285.184-219.966,284.809-220,284.433-220"/>
				<path style="fill:#9AAAB4;" d="M113.778-197.244c-0.592,0-1.195,0.091-1.798,0.284L9.58-162.815      c-2.981,0.99-4.597,4.21-3.595,7.191c0.99,2.981,4.187,4.597,7.191,3.595l102.4-34.122c2.981-1.001,4.585-4.221,3.595-7.202      C118.374-195.731,116.167-197.244,113.778-197.244"/>
				<path style="fill:#9AAAB4;" d="M125.156-220c-0.364,0-0.74,0.034-1.126,0.114L10.251-197.131      c-3.072,0.614-5.074,3.607-4.46,6.69s3.561,5.109,6.702,4.46l113.778-22.756c3.072-0.614,5.075-3.607,4.46-6.69      C130.185-218.134,127.807-220,125.156-220"/>
			</g>
		</g>
	</g>
</g>
<g>
</g>
<g>
</g>
<g>
</g>
<g>
</g>
<g>
</g>
<g>
</g>
<g>
</g>
<g>
</g>
<g>
</g>
<g>
</g>
<g>
</g>
<g>
</g>
<g>
</g>
<g>
</g>
<g>
</g>
</svg>
