<?xml version="1.0" encoding="iso-8859-1"?>
<!-- Generator: Adobe Illustrator 19.0.0, SVG Export Plug-In . SVG Version: 6.00 Build 0)  -->
<svg xmlns="http://www.w3.org/2000/svg" xmlns:xlink="http://www.w3.org/1999/xlink" version="1.1" id="Capa_1" x="0px" y="0px" viewBox="0 0 512 512" style="enable-background:new 0 0 512 512;" xml:space="preserve">
<g transform="matrix(1.25 0 0 -1.25 0 45)">
	<g>
		<g>
			<path style="fill:#FFCC4D;" d="M397.813-100.021l0.41-0.512c0,0,11.378,113.778,0,125.156     c-10.354,10.354-77.039-7.509-88.997-10.82C281.623,27.842,247.296,36,204.8,36c-42.428,0-76.709-8.181-104.277-22.232     c-11.605,3.22-78.757,21.242-89.145,10.854c-11.378-11.378,0-125.156,0-125.156l0.535,0.671C3.504-128.91,0-160.278,0-191.556     C0-304.662,125.156-373.6,204.8-373.6s204.8,68.267,204.8,182.044C409.6-160.244,406.118-128.955,397.813-100.021"/>
			<path style="fill:#292F33;" d="M357.308-233.653c-1.399,1.923-3.846,2.788-6.167,2.116     c-0.785-0.228-79.644-22.539-146.352-22.539c-66.651,0-145.556,22.312-146.341,22.539c-2.378,0.705-4.904-0.25-6.281-2.287     c-1.365-2.037-1.286-4.733,0.228-6.679c3.322-4.278,82.159-104.596,152.394-104.596c81.749,0,149.8,100.648,152.656,104.937     C358.764-238.17,358.707-235.588,357.308-233.653"/>
			<path style="fill:#F5F8FA;" d="M91.022-248.388c0,0,56.889-22.756,113.778-22.756s113.778,22.756,113.778,22.756     s0-34.133-11.378-34.133s-22.756,11.378-22.756,11.378s-45.511-22.756-79.644-22.756s-79.644,22.756-79.644,22.756     s-11.378-11.378-22.756-11.378S91.022-248.388,91.022-248.388"/>
			<path style="fill:#67757F;" d="M204.8-185.81c34.145,0,34.145-5.689,34.145-17.067S221.878-237.01,204.8-237.01     c-17.067,0-34.133,22.756-34.133,34.133S170.655-185.81,204.8-185.81"/>
			<g>
				<path style="fill:#9AAAB4;" d="M295.822-197.188c-2.378,0-4.597,1.513-5.404,3.891c-0.978,2.981,0.626,6.201,3.607,7.202      l102.4,34.122c2.992,1.001,6.201-0.614,7.202-3.595c0.99-2.981-0.626-6.201-3.607-7.191l-102.4-34.145      C297.017-197.097,296.425-197.188,295.822-197.188"/>
				<path style="fill:#9AAAB4;" d="M284.433-219.943c-2.651,0-5.018,1.866-5.564,4.574c-0.626,3.083,1.377,6.076,4.46,6.69      l113.778,22.756c2.958,0.614,6.064-1.365,6.69-4.46c0.626-3.083-1.377-6.076-4.46-6.69l-113.778-22.756      C285.184-219.909,284.809-219.943,284.433-219.943"/>
				<path style="fill:#9AAAB4;" d="M113.778-197.188c-0.592,0-1.195,0.091-1.798,0.284L9.58-162.758      c-2.981,0.99-4.597,4.21-3.595,7.191c0.99,2.981,4.187,4.597,7.191,3.595l102.4-34.122c2.981-1.001,4.585-4.221,3.595-7.202      C118.374-195.674,116.167-197.188,113.778-197.188"/>
				<path style="fill:#9AAAB4;" d="M125.156-219.943c-0.364,0-0.74,0.034-1.126,0.114L10.251-197.074      c-3.072,0.614-5.074,3.607-4.46,6.69c0.614,3.083,3.561,5.109,6.702,4.46l113.778-22.756c3.072-0.614,5.075-3.607,4.46-6.69      C130.185-218.077,127.807-219.943,125.156-219.943"/>
			</g>
			<g>
				<path style="fill:#292F33;" d="M323.311-165.591c-0.694,1.035-17.237,25.293-50.244,25.293      c-32.996,0-49.55-24.257-50.244-25.293c-1.536-2.298-1.183-5.348,0.808-7.259c1.98-1.9,5.086-2.094,7.316-0.466      c0.137,0.102,14.359,10.263,42.121,10.263c27.602,0,41.802-10.035,42.121-10.263c1.013-0.751,2.207-1.115,3.391-1.115      c1.411,0,2.822,0.523,3.914,1.547C324.506-170.973,324.847-167.901,323.311-165.591"/>
				<path style="fill:#292F33;" d="M186.778-165.591c-0.694,1.035-17.237,25.293-50.244,25.293      c-32.996,0-49.55-24.257-50.244-25.293c-1.525-2.298-1.183-5.348,0.808-7.259c2.002-1.9,5.086-2.094,7.305-0.466      c0.148,0.102,14.359,10.263,42.132,10.263c27.602,0,41.802-10.035,42.121-10.263c1.013-0.751,2.207-1.115,3.391-1.115      c1.411,0,2.822,0.523,3.914,1.547C187.972-170.973,188.314-167.901,186.778-165.591"/>
				<path style="fill:#292F33;" d="M352.711-145.988c-3.47,0-6.884,1.57-9.114,4.551c-30.037,40.061-68.961,40.949-70.611,40.96      c-6.258,0.068-11.31,5.188-11.275,11.435c0.034,6.269,5.086,11.321,11.344,11.321c2.094,0,51.621-0.569,88.747-50.062      c3.777-5.029,2.753-12.163-2.276-15.929C357.478-145.248,355.089-145.988,352.711-145.988"/>
				<path style="fill:#292F33;" d="M56.878-145.988c-2.367,0-4.767,0.74-6.815,2.276c-5.029,3.766-6.042,10.9-2.276,15.929      c37.114,49.493,86.653,50.062,88.747,50.062c6.281,0,11.378-5.097,11.378-11.378c0-6.269-5.063-11.355-11.332-11.378      c-1.764-0.023-40.596-0.978-70.588-40.96C63.75-144.417,60.336-145.988,56.878-145.988"/>
			</g>
		</g>
	</g>
</g>
<g>
</g>
<g>
</g>
<g>
</g>
<g>
</g>
<g>
</g>
<g>
</g>
<g>
</g>
<g>
</g>
<g>
</g>
<g>
</g>
<g>
</g>
<g>
</g>
<g>
</g>
<g>
</g>
<g>
</g>
</svg>
