<?xml version="1.0" encoding="iso-8859-1"?>
<!-- Generator: Adobe Illustrator 19.0.0, SVG Export Plug-In . SVG Version: 6.00 Build 0)  -->
<svg xmlns="http://www.w3.org/2000/svg" xmlns:xlink="http://www.w3.org/1999/xlink" version="1.1" id="Capa_1" x="0px" y="0px" viewBox="0 0 512 512" style="enable-background:new 0 0 512 512;" xml:space="preserve">
<g transform="matrix(1.25 0 0 -1.25 0 45)">
	<g>
		<g>
			<path style="fill:#FFCC4D;" d="M409.6-168.8c0-113.106-91.694-204.8-204.8-204.8S0-281.906,0-168.8S91.694,36,204.8,36     S409.6-55.694,409.6-168.8"/>
			<g>
				<path style="fill:#664500;" d="M238.933-254.133c0-22.005-15.303-39.822-34.133-39.822c-18.853,0-34.133,17.818-34.133,39.822      c0,21.982,15.28,39.822,34.133,39.822C223.63-214.311,238.933-232.151,238.933-254.133"/>
				<path style="fill:#664500;" d="M352.711-89.156c-3.47,0-6.884,1.57-9.114,4.551c-30.037,40.061-68.961,40.949-70.611,40.96      c-6.258,0.068-11.31,5.188-11.275,11.435c0.034,6.269,5.086,11.321,11.344,11.321c2.094,0,51.621-0.569,88.747-50.062      c3.777-5.029,2.753-12.163-2.276-15.929C357.478-88.416,355.089-89.156,352.711-89.156"/>
				<path style="fill:#664500;" d="M56.878-89.156c-2.367,0-4.767,0.74-6.815,2.276c-5.029,3.766-6.042,10.9-2.276,15.929      c37.114,49.493,86.653,50.062,88.747,50.062c6.281,0,11.378-5.097,11.378-11.378c0-6.269-5.063-11.355-11.332-11.378      c-1.764-0.023-40.596-0.978-70.588-40.96C63.75-87.585,60.336-89.156,56.878-89.156"/>
			</g>
			<path id="SVGCleanerId_0" style="fill:#664500;" d="M164.978-128.978c0-22.005-12.732-39.822-28.444-39.822     s-28.444,17.818-28.444,39.822c0,21.993,12.732,39.822,28.444,39.822S164.978-106.985,164.978-128.978"/>
			<g transform="translate(12)">
				<path id="SVGCleanerId_0_1_" style="fill:#664500;" d="M301.511-128.978c0-22.005-12.732-39.822-28.444-39.822      s-28.444,17.818-28.444,39.822c0,21.993,12.732,39.822,28.444,39.822S301.511-106.985,301.511-128.978"/>
			</g>
		</g>
	</g>
</g>
<g>
</g>
<g>
</g>
<g>
</g>
<g>
</g>
<g>
</g>
<g>
</g>
<g>
</g>
<g>
</g>
<g>
</g>
<g>
</g>
<g>
</g>
<g>
</g>
<g>
</g>
<g>
</g>
<g>
</g>
</svg>
