<?xml version="1.0" encoding="iso-8859-1"?>
<!-- Generator: Adobe Illustrator 19.0.0, SVG Export Plug-In . SVG Version: 6.00 Build 0)  -->
<svg xmlns="http://www.w3.org/2000/svg" xmlns:xlink="http://www.w3.org/1999/xlink" version="1.1" id="Capa_1" x="0px" y="0px" viewBox="0 0 512 512" style="enable-background:new 0 0 512 512;" xml:space="preserve">
<g transform="matrix(1.25 0 0 -1.25 0 45)">
	<g>
		<g>
			<path style="fill:#FFCC4D;" d="M409.6-168.8c0-113.106-91.694-204.8-204.8-204.8S0-281.906,0-168.8S91.694,36,204.8,36     S409.6-55.694,409.6-168.8"/>
			<g>
				<path style="fill:#664500;" d="M250.311-271.2c0-31.437-20.378-34.133-45.511-34.133c-25.145,0-45.511,2.697-45.511,34.133      c0,31.414,20.366,68.267,45.511,68.267C229.934-202.933,250.311-239.786,250.311-271.2"/>
				<path style="fill:#664500;" d="M341.333-134.667c-1.411,0-2.844,0.262-4.221,0.819c-59.494,23.791-83.877,59.62-84.89,61.144      c-3.493,5.222-2.082,12.288,3.152,15.781c5.222,3.482,12.265,2.082,15.758-3.118c0.216-0.319,21.959-31.698,74.422-52.679      c5.837-2.332,8.681-8.954,6.349-14.791C350.128-131.959,345.839-134.667,341.333-134.667"/>
				<path style="fill:#664500;" d="M68.267-134.667c-4.517,0-8.784,2.708-10.57,7.157c-2.332,5.837,0.501,12.459,6.337,14.791      c52.474,20.981,74.217,52.361,74.433,52.679c3.504,5.188,10.57,6.565,15.781,3.072c5.188-3.504,6.599-10.524,3.129-15.735      c-1.013-1.525-25.407-37.353-84.89-61.144C71.1-134.405,69.678-134.667,68.267-134.667"/>
			</g>
			<path style="fill:#5DADEC;" d="M91.022-362.222l45.511,0.523v215.643H91.022V-362.222z M273.067-146.044h45.511v-216.178     l-45.511,0.523V-146.044z"/>
			<g>
				<path style="fill:#664500;" d="M170.655-168.8c-1.707,0-3.447,0.387-5.074,1.195c-39.959,19.991-80.452,0.216-80.85,0      c-5.632-2.822-12.447-0.523-15.269,5.097c-2.81,5.621-0.523,12.459,5.097,15.269c2.071,1.013,51.177,24.986,101.194,0      c5.621-2.81,7.908-9.648,5.097-15.269C178.847-166.502,174.831-168.8,170.655-168.8"/>
				<path style="fill:#664500;" d="M329.944-168.8c-1.707,0-3.447,0.387-5.074,1.195c-39.97,19.979-80.452,0.216-80.85,0      c-5.621-2.81-12.447-0.535-15.269,5.097c-2.81,5.621-0.523,12.459,5.097,15.269c2.059,1.013,51.211,24.986,101.194,0      c5.621-2.81,7.908-9.648,5.086-15.269C338.136-166.502,334.12-168.8,329.944-168.8"/>
			</g>
			<path style="fill:#5DADEC;" d="M409.6-350.844c0-12.561-91.694-22.756-204.8-22.756S0-363.406,0-350.844     s91.694,22.756,204.8,22.756S409.6-338.283,409.6-350.844"/>
			<path style="fill:#E75A70;" d="M238.933-271.2c0-18.853-15.28-22.756-34.133-22.756s-34.133,3.903-34.133,22.756     s15.28,22.756,34.133,22.756S238.933-252.347,238.933-271.2"/>
		</g>
	</g>
</g>
<g>
</g>
<g>
</g>
<g>
</g>
<g>
</g>
<g>
</g>
<g>
</g>
<g>
</g>
<g>
</g>
<g>
</g>
<g>
</g>
<g>
</g>
<g>
</g>
<g>
</g>
<g>
</g>
<g>
</g>
</svg>
