<?xml version="1.0" encoding="iso-8859-1"?>
<!-- Generator: Adobe Illustrator 19.0.0, SVG Export Plug-In . SVG Version: 6.00 Build 0)  -->
<svg xmlns="http://www.w3.org/2000/svg" xmlns:xlink="http://www.w3.org/1999/xlink" version="1.1" id="Capa_1" x="0px" y="0px" viewBox="0 0 512 512" style="enable-background:new 0 0 512 512;" xml:space="preserve">
<g transform="matrix(1.25 0 0 -1.25 0 45)">
	<g>
		<g>
			<path style="fill:#FFCC4D;" d="M409.6-168.8c0-113.106-91.694-204.8-204.8-204.8S0-281.906,0-168.8S91.694,36,204.8,36     S409.6-55.694,409.6-168.8"/>
			<g>
				<path style="fill:#664500;" d="M267.207-292.579c-0.137,0.501-13.039,49.823-62.407,49.823      c-49.391,0-62.293-49.323-62.407-49.823c-0.603-2.423,0.489-4.904,2.628-6.19c2.139-1.274,4.927-0.978,6.781,0.683      c0.114,0.08,11.537,9.819,52.998,9.819c40.835,0,52.531-9.444,52.975-9.819c1.081-1.024,2.492-1.559,3.914-1.559      c0.956,0,1.923,0.239,2.799,0.728C266.718-297.642,267.833-295.059,267.207-292.579"/>
				<path style="fill:#664500;" d="M178.665-164.226c-0.148-0.102-14.359-10.263-42.132-10.263c-27.785,0-41.984,10.16-42.086,10.24      c-2.219,1.65-5.313,1.502-7.327-0.421c-2.014-1.9-2.367-4.983-0.831-7.282c0.694-1.035,17.237-25.293,50.244-25.293      s49.562,24.257,50.244,25.293c1.536,2.287,1.183,5.336-0.808,7.248C183.967-162.77,180.873-162.599,178.665-164.226"/>
				<path style="fill:#664500;" d="M322.503-164.704c-1.991,1.923-5.086,2.116-7.316,0.478      c-0.125-0.114-14.347-10.263-42.121-10.263c-27.773,0-41.984,10.149-42.098,10.24c-2.196,1.65-5.302,1.49-7.316-0.421      c-2.014-1.911-2.355-4.983-0.831-7.293c0.694-1.035,17.237-25.281,50.244-25.281s49.562,24.246,50.244,25.281      C324.847-169.665,324.494-166.615,322.503-164.704"/>
				<path style="fill:#664500;" d="M352.711-146.044c-3.47,0-6.884,1.57-9.114,4.551c-30.037,40.061-68.961,40.949-70.611,40.96      c-6.258,0.068-11.31,5.188-11.275,11.435c0.034,6.269,5.086,11.321,11.344,11.321c2.094,0,51.621-0.569,88.747-50.062      c3.777-5.029,2.753-12.163-2.276-15.929C357.478-145.305,355.089-146.044,352.711-146.044"/>
				<path style="fill:#664500;" d="M56.878-146.044c-2.367,0-4.767,0.74-6.815,2.276c-5.029,3.766-6.042,10.9-2.276,15.929      c37.114,49.493,86.653,50.062,88.747,50.062c6.281,0,11.378-5.097,11.378-11.378c0-6.269-5.063-11.355-11.332-11.378      c-1.764-0.023-40.596-0.978-70.588-40.96C63.75-144.474,60.336-146.044,56.878-146.044"/>
			</g>
			<path style="fill:#5DADEC;" d="M261.689-225.689c70.667,0,147.911-45.511,147.911-102.4c0-45.511-34.133-45.511-34.133-45.511     C284.444-373.6,364.089-271.2,261.689-225.689"/>
		</g>
	</g>
</g>
<g>
</g>
<g>
</g>
<g>
</g>
<g>
</g>
<g>
</g>
<g>
</g>
<g>
</g>
<g>
</g>
<g>
</g>
<g>
</g>
<g>
</g>
<g>
</g>
<g>
</g>
<g>
</g>
<g>
</g>
</svg>
