<?xml version="1.0" encoding="iso-8859-1"?>
<!-- Generator: Adobe Illustrator 19.0.0, SVG Export Plug-In . SVG Version: 6.00 Build 0)  -->
<svg xmlns="http://www.w3.org/2000/svg" xmlns:xlink="http://www.w3.org/1999/xlink" version="1.1" id="Capa_1" x="0px" y="0px" viewBox="0 0 512 512" style="enable-background:new 0 0 512 512;" xml:space="preserve">
<g transform="matrix(1.25 0 0 -1.25 0 45)">
	<g>
		<g>
			<path style="fill:#FFCC4D;" d="M409.6-168.8c0-113.106-91.694-204.8-204.8-204.8C91.705-373.6,0-281.906,0-168.8     C0-55.705,91.705,36,204.8,36C317.906,36,409.6-55.705,409.6-168.8"/>
			<path style="fill:#BDDDF4;" d="M204.8-89.156c99.544,0,182.42-51.302,200.886-119.285c2.526,12.834,3.914,26.078,3.914,39.64     C409.6-55.705,317.906,36,204.8,36C91.705,36,0-55.705,0-168.8c0-13.562,1.399-26.806,3.914-39.64     C22.38-140.458,105.267-89.156,204.8-89.156"/>
			<path id="SVGCleanerId_0" style="fill:#664500;" d="M159.289-151.733c0-22.005-12.732-39.822-28.444-39.822     S102.4-173.738,102.4-151.733c0,21.993,12.732,39.822,28.444,39.822S159.289-129.74,159.289-151.733"/>
			<g transform="translate(13)">
				<path id="SVGCleanerId_0_1_" style="fill:#664500;" d="M307.2-151.733c0-22.005-12.732-39.822-28.444-39.822      s-28.444,17.818-28.444,39.822c0,21.993,12.732,39.822,28.444,39.822S307.2-129.74,307.2-151.733"/>
			</g>
			<g>
				<path style="fill:#664500;" d="M68.255-100.533c-2.367,0-4.767,0.74-6.815,2.276c-5.029,3.766-6.042,10.9-2.276,15.929      c37.114,49.493,86.653,50.062,88.747,50.062c6.281,0,11.378-5.097,11.378-11.378c0-6.269-5.063-11.355-11.332-11.378      c-1.764-0.023-40.607-0.978-70.588-40.96C75.127-98.963,71.714-100.533,68.255-100.533"/>
				<path style="fill:#664500;" d="M341.333-100.533c-3.47,0-6.884,1.57-9.114,4.551c-30.037,40.061-68.961,40.949-70.61,40.96      c-6.258,0.068-11.31,5.188-11.275,11.435c0.034,6.269,5.086,11.321,11.344,11.321c2.094,0,51.621-0.569,88.747-50.062      c3.777-5.029,2.753-12.163-2.276-15.929C346.101-99.794,343.711-100.533,341.333-100.533"/>
				<path style="fill:#664500;" d="M267.207-281.201c-0.137,0.501-13.039,49.823-62.407,49.823      c-49.38,0-62.282-49.323-62.407-49.823c-0.603-2.423,0.501-4.904,2.64-6.19c2.128-1.274,4.927-0.978,6.781,0.683      c0.114,0.08,11.537,9.819,52.986,9.819c40.835,0,52.531-9.444,52.975-9.819c1.081-1.024,2.492-1.559,3.914-1.559      c0.956,0,1.923,0.239,2.799,0.728C266.718-286.264,267.833-283.681,267.207-281.201"/>
			</g>
		</g>
	</g>
</g>
<g>
</g>
<g>
</g>
<g>
</g>
<g>
</g>
<g>
</g>
<g>
</g>
<g>
</g>
<g>
</g>
<g>
</g>
<g>
</g>
<g>
</g>
<g>
</g>
<g>
</g>
<g>
</g>
<g>
</g>
</svg>
