<?xml version="1.0" encoding="iso-8859-1"?>
<!-- Generator: Adobe Illustrator 19.0.0, SVG Export Plug-In . SVG Version: 6.00 Build 0)  -->
<svg xmlns="http://www.w3.org/2000/svg" xmlns:xlink="http://www.w3.org/1999/xlink" version="1.1" id="Capa_1" x="0px" y="0px" viewBox="0 0 512 512" style="enable-background:new 0 0 512 512;" xml:space="preserve">
<g transform="matrix(1.25 0 0 -1.25 0 45)">
	<g>
		<g>
			<path style="fill:#FFCC4D;" d="M409.6-168.8c0-113.106-91.694-204.8-204.8-204.8S0-281.906,0-168.8S91.694,36,204.8,36     S409.6-55.694,409.6-168.8"/>
			<g>
				<path style="fill:#664500;" d="M267.207-292.579c-0.137,0.501-13.039,49.823-62.407,49.823      c-49.391,0-62.293-49.323-62.407-49.823c-0.603-2.423,0.489-4.904,2.628-6.19c2.139-1.274,4.927-0.978,6.781,0.683      c0.114,0.08,11.537,9.819,52.998,9.819c40.835,0,52.531-9.444,52.975-9.819c1.081-1.024,2.492-1.559,3.914-1.559      c0.956,0,1.923,0.239,2.799,0.728C266.718-297.642,267.833-295.059,267.207-292.579"/>
				<path style="fill:#664500;" d="M293.319-141.96c-3.88,1.058-7.873,1.593-11.867,1.593c-26.681,0-46.114-23.438-46.933-24.428      c-1.627-2.003-1.684-4.847-0.193-6.929c1.525-2.094,4.255-2.879,6.667-1.98c0.057,0.023,6.519,2.446,17.806,2.446      c8.124,0,16.703-1.229,25.532-3.641c26.647-7.248,37.695-20.685,37.934-20.969c1.115-1.411,2.765-2.185,4.483-2.185      c0.751,0,1.513,0.159,2.241,0.466c2.378,1.024,3.766,3.527,3.379,6.076C332.106-189.838,325.791-150.812,293.319-141.96"/>
				<path style="fill:#664500;" d="M127.727-140.492c-3.607,0-7.236-0.444-10.775-1.32c-32.654-8.044-39.97-46.888-40.266-48.538      c-0.455-2.537,0.865-5.052,3.197-6.144c0.774-0.364,1.593-0.535,2.401-0.535c1.65,0,3.265,0.717,4.38,2.037      c0.114,0.137,11.492,13.403,38.446,20.036c8.135,2.002,16.077,3.015,23.586,3.015c12.561,0,19.706-2.879,19.74-2.89      c0.762-0.319,1.49-0.455,2.355-0.455c3.095-0.137,5.791,2.514,5.791,5.689c0,1.877-0.91,3.538-2.31,4.574      C170.098-160.073,152.053-140.492,127.727-140.492"/>
			</g>
		</g>
	</g>
</g>
<g>
</g>
<g>
</g>
<g>
</g>
<g>
</g>
<g>
</g>
<g>
</g>
<g>
</g>
<g>
</g>
<g>
</g>
<g>
</g>
<g>
</g>
<g>
</g>
<g>
</g>
<g>
</g>
<g>
</g>
</svg>
