<?xml version="1.0" encoding="iso-8859-1"?>
<!-- Generator: Adobe Illustrator 19.0.0, SVG Export Plug-In . SVG Version: 6.00 Build 0)  -->
<svg xmlns="http://www.w3.org/2000/svg" xmlns:xlink="http://www.w3.org/1999/xlink" version="1.1" id="Capa_1" x="0px" y="0px" viewBox="0 0 512 512" style="enable-background:new 0 0 512 512;" xml:space="preserve">
<g transform="matrix(1.25 0 0 -1.25 0 45)">
	<g>
		<g>
			<path style="fill:#FFCC4D;" d="M409.6-168.8c0-113.106-91.694-204.8-204.8-204.8C91.705-373.6,0-281.906,0-168.8     C0-55.705,91.705,36,204.8,36C317.906,36,409.6-55.705,409.6-168.8"/>
			<path id="SVGCleanerId_0" style="fill:#664500;" d="M159.289-128.978c0-22.005-12.732-39.822-28.444-39.822     S102.4-150.982,102.4-128.978c0,21.993,12.732,39.822,28.444,39.822S159.289-106.985,159.289-128.978"/>
			<g transform="translate(13)">
				<path id="SVGCleanerId_0_1_" style="fill:#664500;" d="M307.2-128.978c0-22.005-12.732-39.822-28.444-39.822      s-28.444,17.818-28.444,39.822c0,21.993,12.732,39.822,28.444,39.822S307.2-106.985,307.2-128.978"/>
			</g>
			<path style="fill:#664500;" d="M79.644-205.914c0-45.102,52.292-102.4,125.156-102.4s125.156,56.889,125.156,102.4     C329.956-205.914,212.389-237.271,79.644-205.914"/>
			<path style="fill:#E75A70;" d="M136.533-225.723v-79.201c0-34.133,22.756-68.267,68.267-68.267s68.267,34.133,68.267,68.267     v78.734C201.489-240.89,136.533-225.723,136.533-225.723"/>
		</g>
	</g>
</g>
<g>
</g>
<g>
</g>
<g>
</g>
<g>
</g>
<g>
</g>
<g>
</g>
<g>
</g>
<g>
</g>
<g>
</g>
<g>
</g>
<g>
</g>
<g>
</g>
<g>
</g>
<g>
</g>
<g>
</g>
</svg>
