<?xml version="1.0" encoding="iso-8859-1"?>
<!-- Generator: Adobe Illustrator 19.0.0, SVG Export Plug-In . SVG Version: 6.00 Build 0)  -->
<svg xmlns="http://www.w3.org/2000/svg" xmlns:xlink="http://www.w3.org/1999/xlink" version="1.1" id="Capa_1" x="0px" y="0px" viewBox="0 0 512 512" style="enable-background:new 0 0 512 512;" xml:space="preserve">
<g transform="matrix(1.25 0 0 -1.25 0 45)">
	<g>
		<g>
			<path style="fill:#FFCC4D;" d="M409.6-168.8c0-113.106-91.694-204.8-204.8-204.8C91.705-373.6,0-281.906,0-168.8     C0-55.705,91.705,36,204.8,36C317.906,36,409.6-55.705,409.6-168.8"/>
			<path id="SVGCleanerId_0" style="fill:#664500;" d="M170.667-140.356c0-22.005-12.732-39.822-28.444-39.822     s-28.444,17.818-28.444,39.822c0,21.993,12.732,39.822,28.444,39.822S170.667-118.362,170.667-140.356"/>
			<g transform="translate(11)">
				<path id="SVGCleanerId_0_1_" style="fill:#664500;" d="M295.822-140.356c0-22.005-12.732-39.822-28.444-39.822      s-28.444,17.818-28.444,39.822c0,21.993,12.732,39.822,28.444,39.822S295.822-118.362,295.822-140.356"/>
			</g>
			<path style="fill:#664500;" d="M237.466-282.578c15.189,4.688,29.912,13.153,29.912,28.444c0,29.798-55.888,33.769-62.259,34.122     c-3.118,0.307-5.791-2.196-5.996-5.325c-0.193-3.106,2.162-5.803,5.279-6.03c0.398-0.023,40.22-3.402,40.22-22.767     s-39.822-22.744-40.22-22.767c-0.148-0.011-0.273-0.091-0.41-0.114c-0.614-0.068-1.172-0.193-1.695-0.466     c-0.068-0.034-0.114-0.08-0.171-0.102c-0.546-0.307-1.035-0.66-1.445-1.126c-0.159-0.171-0.262-0.353-0.398-0.535     c-0.262-0.364-0.512-0.728-0.683-1.172c-0.137-0.33-0.205-0.683-0.273-1.035c-0.057-0.273-0.193-0.501-0.205-0.774     c-0.011-0.114,0.046-0.228,0.046-0.353s-0.057-0.239-0.046-0.353c0.011-0.284,0.148-0.512,0.205-0.785     c0.068-0.353,0.125-0.683,0.262-1.013c0.148-0.353,0.353-0.649,0.558-0.956c0.193-0.284,0.364-0.569,0.603-0.819     c0.25-0.262,0.569-0.466,0.876-0.683c0.284-0.193,0.523-0.387,0.842-0.535c0.364-0.171,0.751-0.239,1.138-0.307     c0.273-0.068,0.512-0.205,0.796-0.228c0.398-0.023,40.22-3.402,40.22-22.767c0-19.365-39.822-22.744-40.22-22.767     c-3.118-0.228-5.473-2.924-5.279-6.03c0.193-3.015,2.697-5.336,5.666-5.336c0.114,0,0.228,0,0.33,0.011     c6.372,0.353,62.259,4.324,62.259,34.122C267.378-295.73,252.655-287.265,237.466-282.578"/>
		</g>
	</g>
</g>
<g>
</g>
<g>
</g>
<g>
</g>
<g>
</g>
<g>
</g>
<g>
</g>
<g>
</g>
<g>
</g>
<g>
</g>
<g>
</g>
<g>
</g>
<g>
</g>
<g>
</g>
<g>
</g>
<g>
</g>
</svg>
