<?xml version="1.0" encoding="iso-8859-1"?>
<!-- Generator: Adobe Illustrator 19.0.0, SVG Export Plug-In . SVG Version: 6.00 Build 0)  -->
<svg xmlns="http://www.w3.org/2000/svg" xmlns:xlink="http://www.w3.org/1999/xlink" version="1.1" id="Capa_1" x="0px" y="0px" viewBox="0 0 512 512" style="enable-background:new 0 0 512 512;" xml:space="preserve">
<g transform="matrix(1.25 0 0 -1.25 0 45)">
	<g>
		<g>
			<path style="fill:#FFCC4D;" d="M409.6-168.8c0-113.106-91.694-204.8-204.8-204.8C91.705-373.6,0-281.906,0-168.8     C0-55.705,91.705,36,204.8,36C317.906,36,409.6-55.705,409.6-168.8"/>
			<g>
				<path style="fill:#664500;" d="M68.267-111.911c-6.281,0-11.378,5.097-11.378,11.378c0,6.269,5.063,11.355,11.332,11.378      c1.764,0.023,40.596,0.978,70.588,40.96c3.766,5.006,10.9,6.053,15.929,2.276c5.029-3.766,6.042-10.9,2.276-15.929      C119.899-111.342,70.36-111.911,68.267-111.911"/>
				<path style="fill:#664500;" d="M341.333-111.911c-2.094,0-51.621,0.569-88.747,50.062c-3.777,5.029-2.753,12.163,2.276,15.929      c5.029,3.789,12.151,2.753,15.929-2.276c30.037-40.061,68.961-40.949,70.611-40.96c6.258-0.068,11.31-5.188,11.275-11.435      C352.643-106.859,347.591-111.911,341.333-111.911"/>
				<path style="fill:#664500;" d="M348.16-193.831c-1.297,0.978-21.97,16.225-52.861,26.67c0.307,1.308,0.523,2.651,0.523,4.05      c0,4.198-1.57,7.999-4.085,10.968c20.514,5.928,37.934,6.098,38.241,6.098c6.269,0.023,11.355,5.12,11.344,11.401      c-0.011,6.269-5.086,11.355-11.366,11.355c-2.503,0-62.02-0.421-99.066-37.467c-3.254-3.254-4.233-8.146-2.458-12.402      c1.752-4.255,5.905-7.02,10.502-7.02c52.224,0,95.164-31.539,95.596-31.869c2.048-1.513,4.426-2.253,6.793-2.253      c3.47,0,6.895,1.582,9.125,4.563C354.202-204.708,353.178-197.597,348.16-193.831"/>
				<path style="fill:#664500;" d="M178.711-160.756c-37.035,37.035-96.552,37.467-99.066,37.467      c-6.281,0-11.366-5.086-11.366-11.366c-0.011-6.269,5.074-11.378,11.355-11.389c0.296,0,17.727-0.182,38.229-6.098      c-2.503-2.97-4.085-6.77-4.085-10.968c0-1.399,0.216-2.742,0.535-4.05c-30.902-10.445-51.575-25.691-52.873-26.67      c-5.029-3.766-6.042-10.9-2.276-15.929c2.23-2.981,5.655-4.551,9.114-4.551c2.367,0,4.767,0.74,6.815,2.276      c0.421,0.307,43.088,31.858,95.573,31.858c4.597,0,8.75,2.765,10.513,7.02C182.943-168.902,181.965-164.01,178.711-160.756"/>
				<path style="fill:#664500;" d="M204.8-305.333c-3.459,0-6.724,1.57-8.886,4.267l-36.341,45.42l-25.316-33.758      c-1.98-2.64-5.006-4.289-8.294-4.517c-3.3-0.25-6.531,0.967-8.852,3.3l-11.378,11.378c-4.449,4.449-4.449,11.639,0,16.088      c4.449,4.449,11.639,4.449,16.088,0l2.105-2.094l26.26,35.009c2.116,2.822,5.404,4.494,8.92,4.551      c3.368,0.114,6.861-1.513,9.068-4.267L204.8-275.74l36.625,45.784c2.196,2.742,5.507,4.267,9.068,4.267      c3.516-0.057,6.804-1.729,8.92-4.551l26.26-35.009l2.105,2.094c4.449,4.449,11.639,4.449,16.088,0      c4.449-4.449,4.449-11.639,0-16.088l-11.378-11.378c-2.332-2.332-5.439-3.573-8.852-3.3c-3.288,0.228-6.315,1.877-8.294,4.517      l-25.316,33.758l-36.341-45.42C211.524-303.763,208.259-305.333,204.8-305.333"/>
			</g>
		</g>
	</g>
</g>
<g>
</g>
<g>
</g>
<g>
</g>
<g>
</g>
<g>
</g>
<g>
</g>
<g>
</g>
<g>
</g>
<g>
</g>
<g>
</g>
<g>
</g>
<g>
</g>
<g>
</g>
<g>
</g>
<g>
</g>
</svg>
