<?xml version="1.0" encoding="iso-8859-1"?>
<!-- Generator: Adobe Illustrator 19.0.0, SVG Export Plug-In . SVG Version: 6.00 Build 0)  -->
<svg xmlns="http://www.w3.org/2000/svg" xmlns:xlink="http://www.w3.org/1999/xlink" version="1.1" id="Capa_1" x="0px" y="0px" viewBox="0 0 512 512" style="enable-background:new 0 0 512 512;" xml:space="preserve">
<g transform="matrix(1.25 0 0 -1.25 0 45)">
	<g>
		<g>
			<path style="fill:#FFCC4D;" d="M409.6-168.8c0-113.106-91.694-204.8-204.8-204.8C91.705-373.6,0-281.906,0-168.8     C0-55.705,91.705,36,204.8,36C317.906,36,409.6-55.705,409.6-168.8"/>
			<g>
				<path style="fill:#664500;" d="M323.777-166.49c-0.671,1.536-17.055,37.513-50.711,37.513      c-33.644,0-50.028-35.977-50.711-37.513c-1.047-2.355-0.364-5.109,1.638-6.724c1.991-1.616,4.847-1.673,6.952-0.159      c0.137,0.102,14.359,10.263,42.121,10.263c27.603,0,41.802-10.024,42.121-10.251c1.001-0.751,2.207-1.126,3.391-1.126      c1.252,0,2.514,0.421,3.55,1.24C324.142-171.633,324.836-168.857,323.777-166.49"/>
				<path style="fill:#664500;" d="M198.622-166.49c-0.683,1.536-17.055,37.513-50.711,37.513      c-33.644,0-50.028-35.977-50.711-37.513c-1.047-2.355-0.364-5.109,1.638-6.724c2.002-1.616,4.858-1.673,6.94-0.159      c0.148,0.102,14.359,10.263,42.132,10.263c27.602,0,41.802-10.024,42.121-10.251c1.001-0.751,2.207-1.126,3.391-1.126      c1.252,0,2.514,0.421,3.55,1.24C198.997-171.633,199.669-168.857,198.622-166.49"/>
				<path style="fill:#664500;" d="M147.911-282.578c0,0,11.378,45.511,56.889,45.511s56.889-45.511,56.889-45.511      S250.311-271.2,204.8-271.2S147.911-282.578,147.911-282.578"/>
			</g>
			<path style="fill:#5DADEC;" d="M125.156-89.156c0-31.425-25.463-56.889-56.889-56.889c-31.414,0-56.889,25.463-56.889,56.889     S56.889,24.622,68.267,24.622S125.156-57.73,125.156-89.156"/>
		</g>
	</g>
</g>
<g>
</g>
<g>
</g>
<g>
</g>
<g>
</g>
<g>
</g>
<g>
</g>
<g>
</g>
<g>
</g>
<g>
</g>
<g>
</g>
<g>
</g>
<g>
</g>
<g>
</g>
<g>
</g>
<g>
</g>
</svg>
