<?xml version="1.0" encoding="iso-8859-1"?>
<!-- Generator: Adobe Illustrator 19.0.0, SVG Export Plug-In . SVG Version: 6.00 Build 0)  -->
<svg xmlns="http://www.w3.org/2000/svg" xmlns:xlink="http://www.w3.org/1999/xlink" version="1.1" id="Capa_1" x="0px" y="0px" viewBox="0 0 512 512" style="enable-background:new 0 0 512 512;" xml:space="preserve">
<g transform="matrix(1.25 0 0 -1.25 0 45)">
	<g>
		<g>
			<path style="fill:#FFCC4D;" d="M409.6-168.8c0-113.106-91.694-204.8-204.8-204.8S0-281.906,0-168.8S91.694,36,204.8,36     S409.6-55.694,409.6-168.8"/>
			<g>
				<path style="fill:#664500;" d="M276.787-232.766c-1.741,1.502-4.187,1.809-6.269,0.785l-45.511-22.756      c-21.288-10.638-76.538-10.775-77.096-10.775H147.9c-3.14,0-5.678-2.549-5.678-5.689c0-2.094,1.138-3.948,2.844-4.927l0,0h0.011      l0,0l0.011-0.011c0.808-0.466,1.741-0.728,2.731-0.751h0.091h79.644c30.242,0,46.524,24.872,50.904,38.025      C279.188-236.68,278.528-234.279,276.787-232.766"/>
				<path style="fill:#664500;" d="M352.711-146.044c-3.47,0-6.884,1.57-9.114,4.551c-30.037,40.061-68.961,40.949-70.611,40.96      c-6.258,0.068-11.31,5.188-11.275,11.435c0.034,6.269,5.086,11.321,11.344,11.321c2.094,0,51.621-0.569,88.747-50.062      c3.777-5.029,2.753-12.163-2.276-15.929C357.478-145.305,355.089-146.044,352.711-146.044"/>
				<path style="fill:#664500;" d="M56.878-146.044c-2.367,0-4.767,0.74-6.815,2.276c-5.029,3.766-6.042,10.9-2.276,15.929      c37.114,49.493,86.653,50.062,88.747,50.062c6.281,0,11.378-5.097,11.378-11.378c0-6.269-5.063-11.355-11.332-11.378      c-1.764-0.023-40.596-0.978-70.588-40.96C63.75-144.474,60.336-146.044,56.878-146.044"/>
				<path style="fill:#664500;" d="M180.873-161.928c0.262,0.592,0.671,1.092,0.831,1.752c1.525,6.098-2.185,12.277-8.272,13.801      c-2.059,0.512-50.836,12.288-88.724-12.948c-5.222-3.493-6.633-10.559-3.152-15.781c2.196-3.288,5.803-5.074,9.478-5.074      c2.162,0,4.358,0.626,6.303,1.911c12.425,8.306,26.874,11.321,39.458,12.083c-0.102-0.876-0.262-1.718-0.262-2.617      c0-12.561,10.194-22.756,22.756-22.756c12.572,0,22.756,10.194,22.756,22.756C182.044-166.388,181.567-164.101,180.873-161.928"/>
				<path style="fill:#664500;" d="M317.395-161.916c0.262,0.592,0.671,1.081,0.831,1.729c1.536,6.11-2.173,12.277-8.272,13.801      c-2.048,0.512-50.813,12.288-88.713-12.948c-5.234-3.482-6.645-10.547-3.163-15.781c2.196-3.288,5.803-5.063,9.489-5.063      c2.162,0,4.346,0.626,6.292,1.911c12.425,8.294,26.874,11.31,39.47,12.06c-0.102-0.865-0.262-1.707-0.262-2.594      c0-12.561,10.183-22.756,22.756-22.756c12.561,0,22.756,10.194,22.756,22.756C318.578-166.388,318.1-164.101,317.395-161.916"/>
			</g>
		</g>
	</g>
</g>
<g>
</g>
<g>
</g>
<g>
</g>
<g>
</g>
<g>
</g>
<g>
</g>
<g>
</g>
<g>
</g>
<g>
</g>
<g>
</g>
<g>
</g>
<g>
</g>
<g>
</g>
<g>
</g>
<g>
</g>
</svg>
