<?xml version="1.0" encoding="iso-8859-1"?>
<!-- Generator: Adobe Illustrator 19.0.0, SVG Export Plug-In . SVG Version: 6.00 Build 0)  -->
<svg xmlns="http://www.w3.org/2000/svg" xmlns:xlink="http://www.w3.org/1999/xlink" version="1.1" id="Capa_1" x="0px" y="0px" viewBox="0 0 512 512" style="enable-background:new 0 0 512 512;" xml:space="preserve">
<g transform="matrix(1.25 0 0 -1.25 0 45)">
	<g>
		<g>
			<path style="fill:#FFCC4D;" d="M409.6-168.8c0-113.106-91.694-204.8-204.8-204.8S0-281.906,0-168.8S91.694,36,204.8,36     S409.6-55.694,409.6-168.8"/>
			<g>
				<path style="fill:#FF7892;" d="M136.533-168.8c0-31.425-25.475-56.889-56.889-56.889S22.756-200.225,22.756-168.8      c0,31.414,25.475,56.889,56.889,56.889S136.533-137.386,136.533-168.8"/>
				<path style="fill:#FF7892;" d="M386.844-168.8c0-31.425-25.463-56.889-56.889-56.889s-56.889,25.463-56.889,56.889      c0,31.414,25.463,56.889,56.889,56.889S386.844-137.386,386.844-168.8"/>
			</g>
			<g>
				<path style="fill:#664500;" d="M311.012-210.09c-2.025,1.832-5.052,1.946-7.225,0.33c-0.444-0.33-44.624-32.996-98.987-32.996      c-54.226,0-98.554,32.666-98.987,32.996c-2.173,1.616-5.2,1.479-7.225-0.33c-2.014-1.82-2.469-4.824-1.07-7.145      c1.468-2.446,36.602-59.654,107.281-59.654s105.825,57.207,107.281,59.654C313.481-214.903,313.037-211.91,311.012-210.09"/>
				<path style="fill:#664500;" d="M91.011-134.667c-1.707,0-3.447,0.387-5.074,1.195c-5.621,2.822-7.908,9.66-5.097,15.269      c0.603,1.195,15.007,29.047,55.694,29.047c40.698,0,55.091-27.864,55.683-29.047c2.822-5.621,0.535-12.447-5.086-15.269      c-5.586-2.776-12.345-0.546-15.201,4.972c-0.489,0.899-9.444,16.589-35.396,16.589c-26.362,0-35.26-16.304-35.328-16.464      C99.203-132.368,95.186-134.667,91.011-134.667"/>
				<path style="fill:#664500;" d="M318.578-134.667c-4.176-0.011-8.192,2.298-10.194,6.292      c-0.284,0.523-9.171,16.464-35.328,16.464s-35.044-15.94-35.408-16.612c-2.958-5.473-9.785-7.623-15.303-4.779      c-5.518,2.867-7.76,9.535-4.983,15.098c0.592,1.183,14.996,29.047,55.694,29.047s55.103-27.864,55.683-29.047      c2.822-5.621,0.535-12.447-5.086-15.269C322.025-134.28,320.284-134.667,318.578-134.667"/>
			</g>
		</g>
	</g>
</g>
<g>
</g>
<g>
</g>
<g>
</g>
<g>
</g>
<g>
</g>
<g>
</g>
<g>
</g>
<g>
</g>
<g>
</g>
<g>
</g>
<g>
</g>
<g>
</g>
<g>
</g>
<g>
</g>
<g>
</g>
</svg>
