<?xml version="1.0" encoding="iso-8859-1"?>
<!-- Generator: Adobe Illustrator 19.0.0, SVG Export Plug-In . SVG Version: 6.00 Build 0)  -->
<svg xmlns="http://www.w3.org/2000/svg" xmlns:xlink="http://www.w3.org/1999/xlink" version="1.1" id="Capa_1" x="0px" y="0px" viewBox="0 0 512 512" style="enable-background:new 0 0 512 512;" xml:space="preserve">
<g transform="matrix(1.25 0 0 -1.25 0 45)">
	<g>
		<g>
			<path style="fill:#BF6952;" d="M381.622-227.942c4.142,17.954,2.765,37.16-5.211,56.274     c-7.714,18.489-21.015,33.109-37.217,42.928c3.63,13.574,2.674,28.16-3.686,42.678c-9.557,21.845-30.265,36.42-53.612,40.528     c2.833,6.508,3.743,14.655,0.41,24.656C270.928,13.256,225.417-9.5,191.283,36c-27.75-16.657-33.781-41.404-32.734-62.43     c-27.557-4.688-43.236-10.65-43.236-10.65v-0.023c-15.485-6.269-26.431-21.436-26.431-39.174c0-10.001,3.618-19.069,9.432-26.305     l-7.873-2.947l0.011-0.034c-26.51-9.899-45.227-33.86-45.227-61.884c0-11.913,3.413-23.063,9.33-32.745     C22.426-214.618,0-245.953,0-282.578C0-332.845,41.995-373.6,93.798-373.6c37.194,0,74.627,7.999,108.442,18.944     c25.52-11.833,64.796-18.944,123.927-18.944c46.08,0,83.433,37.353,83.433,83.433C409.6-265.409,398.757-243.233,381.622-227.942     "/>
			<g>
				<path style="fill:#F5F8FA;" d="M193.422-140.356c0-28.274-17.829-51.2-39.822-51.2s-39.822,22.926-39.822,51.2      s17.829,51.2,39.822,51.2S193.422-112.082,193.422-140.356"/>
				<path style="fill:#F5F8FA;" d="M307.2-140.356c0-28.274-17.818-51.2-39.822-51.2c-22.005,0-39.822,22.926-39.822,51.2      s17.818,51.2,39.822,51.2C289.382-89.156,307.2-112.082,307.2-140.356"/>
			</g>
			<path id="SVGCleanerId_0" style="fill:#292F33;" d="M182.044-140.356c0-15.713-10.183-28.444-22.756-28.444     c-12.561,0-22.756,12.732-22.756,28.444s10.194,28.444,22.756,28.444C171.861-111.911,182.044-124.643,182.044-140.356"/>
			<g transform="translate(9)">
				<path id="SVGCleanerId_0_1_" style="fill:#292F33;" d="M284.444-140.356c0-15.713-10.183-28.444-22.756-28.444      c-12.561,0-22.756,12.732-22.756,28.444s10.194,28.444,22.756,28.444C274.261-111.911,284.444-124.643,284.444-140.356"/>
			</g>
			<path style="fill:#292F33;" d="M107.486-247.193c-2.799,5.598,0.034,10.183,6.292,10.183h204.8c6.258,0,9.091-4.585,6.281-10.183     c0,0-29.036-58.084-108.681-58.084S107.486-247.193,107.486-247.193"/>
			<path style="fill:#F2ABBA;" d="M216.178-259.822c-31.516,0-58.675-10.49-71.589-25.668     c16.976-10.866,40.334-19.843,71.589-19.843s54.625,8.977,71.589,19.843C274.853-270.313,247.706-259.822,216.178-259.822"/>
		</g>
	</g>
</g>
<g>
</g>
<g>
</g>
<g>
</g>
<g>
</g>
<g>
</g>
<g>
</g>
<g>
</g>
<g>
</g>
<g>
</g>
<g>
</g>
<g>
</g>
<g>
</g>
<g>
</g>
<g>
</g>
<g>
</g>
</svg>
