<?xml version="1.0" encoding="iso-8859-1"?>
<!-- Generator: Adobe Illustrator 19.0.0, SVG Export Plug-In . SVG Version: 6.00 Build 0)  -->
<svg xmlns="http://www.w3.org/2000/svg" xmlns:xlink="http://www.w3.org/1999/xlink" version="1.1" id="Capa_1" x="0px" y="0px" viewBox="0 0 512 512" style="enable-background:new 0 0 512 512;" xml:space="preserve">
<g transform="matrix(1.25 0 0 -1.25 0 45)">
	<path style="fill:#553986;" d="M341.333-311.022h-45.511v-45.511h45.511V-311.022z"/>
	<path style="fill:#553986;" d="M68.267-356.533h45.511v45.511H68.267V-356.533z"/>
	<path style="fill:#553986;" d="M227.556-106.222h45.511v-91.022h-45.511V-106.222z M182.044-197.244h-45.511v91.022h45.511   V-197.244z M341.333-72.089h-22.756v22.756h-22.756v22.756h-34.133v45.511h-22.756v-45.511h-68.267v45.511h-22.756v-45.511h-34.133   v-22.756H91.022v-22.756H68.267v-79.644H22.756v-22.756h45.511v-79.644h45.511v-56.889h56.889v56.889h68.267v-56.889h56.889v56.889   h45.511v79.644h45.511v22.756h-45.511V-72.089z"/>
	<path style="fill:#553986;" d="M386.844-151.733H409.6v125.156h-22.756V-151.733z"/>
	<path style="fill:#553986;" d="M0-151.733h22.756v125.156H0V-151.733z"/>
</g>
<g>
</g>
<g>
</g>
<g>
</g>
<g>
</g>
<g>
</g>
<g>
</g>
<g>
</g>
<g>
</g>
<g>
</g>
<g>
</g>
<g>
</g>
<g>
</g>
<g>
</g>
<g>
</g>
<g>
</g>
</svg>
