<?xml version="1.0" encoding="iso-8859-1"?>
<!-- Generator: Adobe Illustrator 19.0.0, SVG Export Plug-In . SVG Version: 6.00 Build 0)  -->
<svg xmlns="http://www.w3.org/2000/svg" xmlns:xlink="http://www.w3.org/1999/xlink" version="1.1" id="Capa_1" x="0px" y="0px" viewBox="0 0 512 512" style="enable-background:new 0 0 512 512;" xml:space="preserve">
<g transform="matrix(1.25 0 0 -1.25 0 45)">
	<g>
		<g>
			<g transform="translate(18 32)">
				<path style="fill:#292F33;" d="M186.8-47.2v-307.2c0,0-216.178-91.022-136.533,11.378C16.133-343.022-18-354.4-18-320.267      s45.511,56.889,45.511,56.889s-79.644,0-11.378,91.022c0,0-68.267,22.767,22.756,79.644c0,0-68.267,69.086,79.644,34.133      c0,0,0,56.889,22.756,56.889S186.8-47.2,186.8-47.2"/>
				<path style="fill:#292F33;" d="M186.8-47.2v-307.2c0,0,216.178-91.022,136.533,11.378c34.133,0,68.267-11.378,68.267,22.756      s-45.511,56.889-45.511,56.889s79.644,0,11.378,91.022c0,0,68.267,22.767-22.756,79.644c0,0,68.267,68.471-79.644,34.133      c0,0,0,56.889-22.756,56.889S186.8-47.2,186.8-47.2"/>
			</g>
			<g transform="translate(18 31)">
				<path style="fill:#DD2E44;" d="M186.8-57.578v-341.333h-45.511c-45.511,0-45.511,11.378-45.511,34.133      c0,0-34.133,34.133-34.133,79.644c0,0-19.467,12.641-22.756,45.511c-3.083,30.822,11.378,56.889,22.756,56.889      c0,0,3.174,74.172,45.511,102.4C141.289-57.578,163.032-57.578,186.8-57.578"/>
				<path style="fill:#DD2E44;" d="M186.8-57.578v-341.333h45.09c45.932,0,45.511,11.378,45.511,34.133      c0,0,34.133,34.133,34.133,79.644c0,0,19.467,12.641,22.756,45.511c3.083,30.822-11.378,56.889-22.756,56.889      c0,0-2.97,74.172-45.295,102.4C232.106-57.578,209.556-57.578,186.8-57.578"/>
			</g>
			<g transform="translate(18 8.911)">
				<path style="fill:#292F33;" d="M186.8-286.813c31.858,0,72.055,11.628,81.67,16.691c9.603,5.052,19.217-3.914,16.179-21.242      c-4.13-23.598-12.766-53.294-37.035-47.73c-7.964,1.82-26.431,19.16-60.814,19.16V-286.813z"/>
				<path style="fill:#292F33;" d="M186.8-286.813c-34.133,0-74.047,11.628-83.661,16.691c-9.603,5.052-20.207-3.914-17.169-21.242      c4.119-23.598,14.256-53.294,38.525-47.73c7.964,1.82,28.171,19.16,62.305,19.16V-286.813z"/>
			</g>
			<g>
				<path style="fill:#FFFFFF;" d="M292.648-296.698l-9.159,34.133c-13.141-5.518-49.402-15.337-78.689-15.337      c-32.256,0-69.643,10.388-81.772,15.792l-9.273-34.588c-1.616-6.042,2.002-12.311,8.055-13.938      c6.042-1.616,12.311,2.002,13.926,8.044l8.511,26.522c10.149-3.903,35.43-7.555,60.553-7.509      c24.587,0.046,49.015,3.686,58.937,7.509l7.009-26.522c1.616-6.042,7.839-9.66,13.881-8.044      C290.668-309.008,294.263-302.739,292.648-296.698"/>
				<path style="fill:#FFFFFF;" d="M260.881-309.953c0.978,4.597-1.98,9.148-6.576,10.115c-4.585,0.979-9.136-1.98-10.115-6.565      l-1.354-7.316c-3.994,2.162-20.924,7.35-38.047,7.384c-17.67,0.023-35.556-5.177-39.629-7.384l-2.264,7.316      c-0.967,4.585-5.882,7.543-10.468,6.565c-4.597-0.967-7.726-5.518-6.747-10.115l3.618-17.226      c10.422,5.45,28.558,16.156,55.501,16.156c25.646,0,42.416-9.637,52.599-15.303L260.881-309.953z"/>
			</g>
			<g>
				<path style="fill:#55ACEE;" d="M153.554-140.128l-27.079,5.757c-18.614,3.959-37.08-8.044-41.04-26.658      c-3.959-18.614,8.044-37.08,26.658-41.04l27.079-5.746c18.614-3.959,37.08,8.033,41.028,26.647      C184.161-162.554,172.169-144.087,153.554-140.128"/>
				<path style="fill:#55ACEE;" d="M256.046-137.454l27.079,5.757c18.614,3.959,37.08-8.044,41.04-26.658s-8.033-37.08-26.658-41.04      l-27.068-5.746c-18.625-3.959-37.092,8.033-41.04,26.647C225.439-159.88,237.431-141.414,256.046-137.454"/>
			</g>
			<path style="fill:#FFCC4D;" d="M156.297-145.703l-22.255,4.733c-15.303,3.254-30.492-6.61-33.735-21.914     c-3.254-15.303,6.599-30.481,21.902-33.735l22.255-4.733c15.303-3.254,30.492,6.61,33.746,21.914S171.6-148.957,156.297-145.703"/>
			<path style="fill:#292F33;" d="M162.008-171.167c0-9.432-7.646-17.067-17.067-17.067c-9.432,0-17.067,7.634-17.067,17.067     c0,9.421,7.634,17.067,17.067,17.067C154.362-154.1,162.008-161.746,162.008-171.167"/>
			<path style="fill:#FFCC4D;" d="M253.303-145.703l22.255,4.733c15.303,3.254,30.492-6.61,33.735-21.914     c3.254-15.303-6.599-30.481-21.902-33.735l-22.255-4.733c-15.303-3.254-30.492,6.61-33.746,21.914S238-148.957,253.303-145.703"/>
			<path style="fill:#292F33;" d="M247.592-171.167c0-9.432,7.646-17.067,17.067-17.067c9.432,0,17.067,7.634,17.067,17.067     c0,9.421-7.634,17.067-17.067,17.067C255.238-154.1,247.592-161.746,247.592-171.167"/>
			<path style="fill:#A0041E;" d="M204.8-271.2c-21.163,0-30.117,11.435-33.007,21.106c-6.178-1.456-15.303-2.378-21.948,2.128     c-3.47,2.355-7.623,7.145-7.623,16.589c0,3.14,2.549,5.689,5.689,5.689c3.14,0,5.689-2.549,5.689-5.689     c0-5.393,1.968-6.724,2.617-7.168c4.255-2.89,13.995-0.523,18.034,1.081c1.741,0.683,3.743,0.478,5.302-0.592     c1.547-1.058,2.492-2.81,2.492-4.699c0.034-1.695,0.944-17.067,22.756-17.067c22.505,0,22.756,16.373,22.756,17.067     c0,1.889,0.933,3.641,2.503,4.699c1.536,1.07,3.504,1.286,5.291,0.592c4.05-1.616,13.778-3.982,18.034-1.081     c0.637,0.444,2.617,1.775,2.617,7.168c0,3.14,2.549,5.689,5.689,5.689c3.14,0,5.689-2.549,5.689-5.689     c0-9.444-4.142-14.234-7.634-16.589c-6.645-4.506-15.77-3.584-21.948-2.128C234.928-259.765,225.951-271.2,204.8-271.2"/>
			<path style="fill:#BE1931;" d="M269.232-357.614c-7.168,0-14.7,3.106-22.471,9.284c-10.923,8.704-21.208,16.896-41.961,16.896     s-31.05-8.192-41.95-16.873c-13.494-10.752-27.75-10.741-41.244-0.023c-2.446,1.957-2.856,5.552-0.899,8.01     c1.946,2.446,5.53,2.856,7.987,0.91c9.353-7.452,17.704-7.452,27.045,0c11.423,9.068,24.337,19.354,49.061,19.354     c24.735,0,37.638-10.286,49.027-19.342c6.588-5.234,12.47-7.452,17.431-6.679c5.416,0.853,8.283,5.109,8.397,5.291     c1.718,2.594,5.234,3.356,7.851,1.673c2.617-1.695,3.413-5.143,1.764-7.782c-0.557-0.876-5.689-8.624-15.974-10.377     C271.952-357.5,270.598-357.614,269.232-357.614"/>
			<g>
				<path style="fill:#F4900C;" d="M157.696-77.653c0.319,0.558,0.58,1.149,0.808,1.775c2.082,5.825-0.535,12.288-6.303,14.507      c-0.307,0.114-27.045,12.436-61.178,84.742v0.023v0.023c0,0.66-1.24,1.138-1.627,1.718c-0.421,0.626-0.956,1.331-1.49,1.866      c-1.024,1.013-2.344,1.809-3.652,2.378c-0.353,0.148-0.853,0.148-1.24,0.262c-1.001,0.319-2.048,0.603-3.118,0.626      c-0.08,0-0.159,0.046-0.228,0.046c-0.558,0-1.035-0.239-1.57-0.319c-0.762-0.091-1.513-0.068-2.253-0.33      c-0.114-0.046-0.193-0.137-0.307-0.171c-0.66-0.262-1.206-0.694-1.798-1.07c-0.649-0.398-1.32-0.74-1.866-1.252      c-0.455-0.432-0.762-0.978-1.149-1.479c-0.478-0.637-0.978-1.24-1.32-1.968c-0.262-0.546-0.353-1.149-0.523-1.752      c-0.228-0.808-0.455-1.604-0.501-2.458c-0.011-0.205-0.114-0.375-0.114-0.58c0-3.049,0.717-75.127,62.418-112.151      c1.832-1.104,3.846-1.627,5.837-1.627c2.002,0,3.971,0.558,5.7,1.547c0.205-0.102,0.398-0.239,0.603-0.341      c1.627-0.819,3.368-1.206,5.074-1.206c4.176,0,8.192,2.298,10.194,6.292C159.881-84.957,159.596-80.873,157.696-77.653"/>
				<path style="fill:#F4900C;" d="M341.22,19.502c-0.046,0.853-0.262,1.65-0.501,2.458c-0.171,0.603-0.262,1.217-0.523,1.775      c-0.33,0.705-0.819,1.274-1.286,1.9c-0.387,0.523-0.717,1.092-1.195,1.536c-0.523,0.489-1.161,0.819-1.775,1.206      c-0.626,0.387-1.183,0.842-1.877,1.104c-0.114,0.046-0.193,0.137-0.296,0.182c-0.751,0.262-1.49,0.228-2.253,0.33      c-0.512,0.08-0.978,0.319-1.525,0.319h-0.034c-0.08,0-0.137-0.046-0.216-0.046c-1.161-0.023-2.276-0.319-3.379-0.683      c-0.273-0.102-0.592-0.091-0.876-0.205c-2.594-1.104-4.801-3.174-5.985-5.962c-31.016-72.351-61.349-84.673-61.417-84.708      c-5.951-1.991-9.17-8.431-7.179-14.393c0.239-0.74,0.546-1.445,0.933-2.094c-1.855-3.197-2.105-7.225-0.33-10.775      c2.002-3.994,6.019-6.292,10.194-6.292c1.707,0,3.436,0.387,5.074,1.206c0.216,0.102,0.387,0.239,0.603,0.341      c1.729-0.99,3.698-1.547,5.7-1.547c1.991,0,4.005,0.535,5.837,1.627c61.702,37.023,62.418,109.113,62.418,112.162      C341.333,19.138,341.231,19.309,341.22,19.502"/>
			</g>
			<g>
				<path style="fill:#292F33;" d="M170.667-151.733c-48.401,0-84.446,23.666-85.959,24.667c-5.222,3.482-6.633,10.547-3.152,15.781      c3.482,5.211,10.536,6.633,15.758,3.163c0.319-0.205,32.074-20.855,73.353-20.855c6.281,0,11.378-5.097,11.378-11.378      S176.947-151.733,170.667-151.733"/>
				<path style="fill:#292F33;" d="M238.933-151.733c-6.292,0-11.378,5.097-11.378,11.378s5.086,11.378,11.378,11.378      c41.586,0,73.023,20.639,73.33,20.844c5.234,3.493,12.288,2.082,15.781-3.152c3.493-5.234,2.082-12.299-3.152-15.781      C323.379-128.068,287.334-151.733,238.933-151.733"/>
			</g>
		</g>
	</g>
</g>
<g>
</g>
<g>
</g>
<g>
</g>
<g>
</g>
<g>
</g>
<g>
</g>
<g>
</g>
<g>
</g>
<g>
</g>
<g>
</g>
<g>
</g>
<g>
</g>
<g>
</g>
<g>
</g>
<g>
</g>
</svg>
