<?xml version="1.0" encoding="iso-8859-1"?>
<!-- Generator: Adobe Illustrator 19.0.0, SVG Export Plug-In . SVG Version: 6.00 Build 0)  -->
<svg xmlns="http://www.w3.org/2000/svg" xmlns:xlink="http://www.w3.org/1999/xlink" version="1.1" id="Capa_1" x="0px" y="0px" viewBox="0 0 506.934 506.934" style="enable-background:new 0 0 506.934 506.934;" xml:space="preserve">
<g transform="matrix(1.25 0 0 -1.25 0 45)">
	<g>
		<g>
			<path style="fill:#FDCB58;" d="M362.074-123.3c0-88-71.3-159.3-159.3-159.3s-159.3,71.3-159.3,159.3S114.774,36,202.773,36     C290.774,36,362.074-35.3,362.074-123.3"/>
			<g>
				<path style="fill:#664500;" d="M320.85-143.912c-1.1,0.8-18.1,13.4-43.5,22c0.3,1.1,0.4,2.2,0.4,3.3c0,3.5-1.3,6.6-3.4,9      c16.9,4.9,31.2,5,31.5,5c5.2,0,9.4,4.2,9.3,9.4c0,5.2-4.2,9.4-9.4,9.4c-2.1,0-51.1-0.4-81.6-30.9c-2.7-2.7-3.5-6.7-2-10.2      c1.4-3.5,4.9-5.8,8.6-5.8c43,0,78.4-26,78.7-26.2c1.7-1.3,3.7-1.9,5.6-1.9c2.9,0,5.7,1.3,7.5,3.7      C325.849-152.812,324.949-147.012,320.85-143.912"/>
				<path style="fill:#664500;" d="M181.284-116.617c-30.5,30.5-79.5,30.9-81.6,30.9c-5.2,0-9.4-4.2-9.4-9.4s4.2-9.4,9.3-9.4      c0.3,0,14.6-0.1,31.5-5c-2.1-2.4-3.4-5.6-3.4-9c0-1.2,0.2-2.3,0.4-3.3c-25.5-8.6-42.5-21.2-43.5-22c-4.1-3.1-5-9-1.9-13.1      c1.8-2.5,4.7-3.7,7.5-3.7c2,0,3.9,0.6,5.6,1.9c0.4,0.3,35.5,26.2,78.7,26.2c3.8,0,7.2,2.3,8.7,5.8      C184.784-123.317,183.984-119.317,181.284-116.617"/>
				<path style="fill:#664500;" d="M202.774-227.681c-27.8,0-46.2-3.2-69-7.7c-5.2-1-15.3,0-15.3,15.3c0,30.7,35.2,69,84.3,69      s84.3-38.3,84.3-69c0-15.3-10.1-16.3-15.3-15.3C248.974-230.981,230.574-227.681,202.774-227.681"/>
			</g>
			<g>
				<path style="fill:#78B159;" d="M259.014-341.476c0-10.4-8.4-18.7-18.7-18.7s-18.7,8.4-18.7,18.7c0,10.4,8.4,18.7,18.7,18.7      S259.014-331.076,259.014-341.476"/>
				<path style="fill:#78B159;" d="M146.534-343.234v135.7c0,18.7,28.1,37.5,56.2,37.5s56.2-18.7,56.2-37.5v-134.3L146.534-343.234z      "/>
				<path style="fill:#78B159;" d="M316.574-346.747c0-12.6-50.9-22.8-113.8-22.8s-113.8,10.2-113.8,22.8s50.9,22.8,113.8,22.8      S316.574-334.247,316.574-346.747"/>
			</g>
			<g>
				<path style="fill:#5D9040;" d="M193.454-202.9c0-7.8-6.3-14.1-14.1-14.1c-7.8,0-14.1,6.3-14.1,14.1s6.3,14.1,14.1,14.1      C187.154-188.8,193.454-195.1,193.454-202.9"/>
				<path style="fill:#5D9040;" d="M248.274-230.312c0-7.8-6.3-14.1-14.1-14.1s-14.1,6.3-14.1,14.1s6.3,14.1,14.1,14.1      S248.274-222.612,248.274-230.312"/>
				<path style="fill:#5D9040;" d="M230.845-287.212c0-7.8-6.3-14.1-14.1-14.1s-14.1,6.3-14.1,14.1s6.3,14.1,14.1,14.1      S230.845-279.512,230.845-287.212"/>
				<path style="fill:#5D9040;" d="M202.774-326.682c0-11.1-9-20.1-20.1-20.1c-11.1,0-20.1,9-20.1,20.1s9,20.1,20.1,20.1      C193.774-306.582,202.774-315.582,202.774-326.682"/>
			</g>
		</g>
	</g>
</g>
<g>
</g>
<g>
</g>
<g>
</g>
<g>
</g>
<g>
</g>
<g>
</g>
<g>
</g>
<g>
</g>
<g>
</g>
<g>
</g>
<g>
</g>
<g>
</g>
<g>
</g>
<g>
</g>
<g>
</g>
</svg>
