<?xml version="1.0" encoding="iso-8859-1"?>
<!-- Generator: Adobe Illustrator 19.0.0, SVG Export Plug-In . SVG Version: 6.00 Build 0)  -->
<svg xmlns="http://www.w3.org/2000/svg" xmlns:xlink="http://www.w3.org/1999/xlink" version="1.1" id="Capa_1" x="0px" y="0px" viewBox="0 0 515.548 515.548" style="enable-background:new 0 0 515.548 515.548;" xml:space="preserve">
<g transform="matrix(1.25 0 0 -1.25 0 45)">
	<g>
		<g>
			<path style="fill:#FFCC4D;" d="M388.264-146.044c0-100.545-81.499-182.044-182.044-182.044     c-100.534,0-182.044,81.499-182.044,182.044C24.175-45.51,105.685,36,206.219,36C306.765,36,388.264-45.51,388.264-146.044"/>
			<g>
				<path style="fill:#664500;" d="M251.73-214.311c0-12.572-20.4-22.756-45.511-22.756c-25.134,0-45.511,10.183-45.511,22.756      c0,12.561,20.378,22.756,45.511,22.756C231.33-191.556,251.73-201.75,251.73-214.311"/>
				<path style="fill:#664500;" d="M342.753-66.4c-3.47,0-6.884,1.57-9.114,4.551c-30.037,40.061-68.961,40.949-70.61,40.96      c-6.258,0.068-11.31,5.188-11.275,11.435c0.034,6.269,5.086,11.321,11.344,11.321c2.094,0,51.621-0.569,88.747-50.062      c3.777-5.029,2.753-12.163-2.276-15.929C347.52-65.66,345.13-66.4,342.753-66.4"/>
				<path style="fill:#664500;" d="M69.674-66.4c-2.367,0-4.767,0.74-6.815,2.276c-5.029,3.766-6.042,10.9-2.276,15.929      C97.698,1.298,147.237,1.867,149.33,1.867c6.281,0,11.378-5.097,11.378-11.378c0-6.269-5.063-11.355-11.332-11.378      c-1.764-0.023-40.596-0.978-70.588-40.96C76.547-64.83,73.133-66.4,69.674-66.4"/>
				<path style="fill:#664500;" d="M160.708-94.844c0-15.713-10.923-28.444-24.383-28.444c-13.471,0-24.383,12.732-24.383,28.444      S122.854-66.4,136.326-66.4C149.785-66.4,160.708-79.132,160.708-94.844"/>
				<path style="fill:#664500;" d="M308.619-92.944c0-14.666-10.183-26.544-22.756-26.544c-12.561,0-22.756,11.878-22.756,26.544      c0,14.655,10.194,26.544,22.756,26.544C298.436-66.4,308.619-78.29,308.619-92.944"/>
			</g>
			<g>
				<path style="fill:#F4900C;" d="M180.847-303.615L180.847-303.615c-12.265,2.503-20.241,14.586-17.738,26.852l25.077,122.618      c2.503,12.265,14.586,20.241,26.852,17.738l0,0c12.254-2.503,20.241-14.586,17.738-26.852l-25.077-122.618      C205.195-298.143,193.112-306.118,180.847-303.615"/>
				<path style="fill:#F4900C;" d="M189.46-375.056l-22.289,4.563c-12.265,2.503-20.252,14.586-17.738,26.852l18.227,89.179      c2.514,12.254,14.598,20.241,26.852,17.727l44.59-9.114c24.531-5.018,40.494-29.184,35.476-53.703l-4.562-22.289      C262.494-358.638,226.244-382.577,189.46-375.056"/>
				<path style="fill:#F4900C;" d="M229.657-352.836L229.657-352.836c-10.661,6.554-14.029,20.639-7.487,31.3l40.027,65.172      c6.554,10.661,20.639,14.029,31.3,7.487l0,0c10.661-6.554,14.029-20.639,7.487-31.3l-40.027-65.172      C254.404-356.021,240.318-359.389,229.657-352.836"/>
			</g>
			<g>
				<path style="fill:#664500;" d="M256.714-308.883c-0.25,0-0.523,0.023-0.796,0.08c-2.31,0.432-3.834,2.662-3.391,4.983      c0.74,3.925-0.023,7.384-2.355,10.559c-7.43,10.16-28.786,14.78-36.386,15.701c-2.344,0.273-4.005,2.412-3.732,4.745      c0.284,2.332,2.321,4.028,4.745,3.721c1.274-0.148,31.118-3.903,42.257-19.126c3.743-5.12,5.052-10.911,3.846-17.192      C260.514-307.461,258.728-308.883,256.714-308.883"/>
				<path style="fill:#664500;" d="M215.72-368.378c-3.174,0-6.667,0.387-10.479,1.286c-7.669,1.809-13.084,6.281-14.848,12.265      c-1.479,5.052-0.125,10.388,3.641,14.279c4.881,5.063,12.607,6.713,21.311,4.506c2.276-0.58,3.652-2.901,3.072-5.188      c-0.569-2.264-2.879-3.664-5.188-3.083c-5.598,1.434-10.365,0.637-13.05-2.15c-1.604-1.661-2.207-3.891-1.593-5.951      c0.865-2.958,4.005-5.291,8.613-6.36c14.837-3.493,23.051,2.344,27.341,7.851c6.394,8.215,7.145,19.342,4.87,23.711      c-5.313,10.217-25.771,12.481-33.189,12.493c-2.355,0-4.267,1.911-4.267,4.267c0.011,2.355,1.911,4.267,4.267,4.267      c1.297,0,31.972-0.193,40.767-17.089c3.834-7.361,2.742-22.027-5.712-32.882C237.406-361.13,229.418-368.378,215.72-368.378"/>
			</g>
		</g>
	</g>
</g>
<g>
</g>
<g>
</g>
<g>
</g>
<g>
</g>
<g>
</g>
<g>
</g>
<g>
</g>
<g>
</g>
<g>
</g>
<g>
</g>
<g>
</g>
<g>
</g>
<g>
</g>
<g>
</g>
<g>
</g>
</svg>
