<?xml version="1.0" encoding="iso-8859-1"?>
<!-- Generator: Adobe Illustrator 19.0.0, SVG Export Plug-In . SVG Version: 6.00 Build 0)  -->
<svg xmlns="http://www.w3.org/2000/svg" xmlns:xlink="http://www.w3.org/1999/xlink" version="1.1" id="Capa_1" x="0px" y="0px" viewBox="0 0 512 512" style="enable-background:new 0 0 512 512;" xml:space="preserve">
<g transform="matrix(1.25 0 0 -1.25 0 45)">
	<g>
		<g>
			<path style="fill:#FFCC4D;" d="M409.6-168.8c0-113.106-91.694-204.8-204.8-204.8S0-281.906,0-168.8S91.694,36,204.8,36     S409.6-55.694,409.6-168.8"/>
			<g>
				<path style="fill:#E95F28;" d="M396.151-43.303l-51.678,9.114l-8.476,54.579c-0.933,6.007-5.586,10.763-11.594,11.822      c-6.007,1.07-11.992-1.82-14.916-7.145l-26.635-48.39l-51.678,9.114c-6.121,1.081-12.197-1.923-15.053-7.396      c-2.879-5.473-1.889-12.197,2.469-16.6l35.988-36.489l-26.715-48.56c-2.981-5.404-2.139-12.106,2.105-16.6      c4.244-4.506,10.866-5.734,16.452-3.106l51.405,24.405l39.97-40.516c2.731-2.765,6.406-4.233,10.126-4.233      c2.173,0,4.369,0.501,6.383,1.513c5.53,2.788,8.613,8.795,7.669,14.894l-8.499,54.761l46.308,21.982      c5.598,2.651,8.829,8.613,7.987,14.757C406.949-49.265,402.25-44.373,396.151-43.303"/>
				<path style="fill:#E95F28;" d="M178.426-14.21l-51.678-9.114l-26.635,48.39c-2.935,5.336-8.954,8.181-14.928,7.145      c-5.996-1.058-10.65-5.814-11.583-11.822L65.126-34.19l-51.678-9.114C7.35-44.373,2.651-49.276,1.832-55.409      c-0.831-6.133,2.401-12.095,7.987-14.746l46.308-21.993l-8.499-54.75c-0.944-6.098,2.15-12.117,7.657-14.894      c2.037-1.024,4.221-1.513,6.394-1.513c3.721,0,7.396,1.456,10.126,4.233l39.97,40.516l51.405-24.405      c5.564-2.64,12.208-1.399,16.452,3.106c4.233,4.483,5.074,11.196,2.105,16.6l-26.715,48.549l35.999,36.5      c4.346,4.403,5.348,11.116,2.469,16.6C190.612-16.122,184.479-13.152,178.426-14.21"/>
			</g>
			<path style="fill:#664500;" d="M204.8-202.933c-41.222,0-68.574,4.801-102.4,11.378c-7.726,1.49-22.756,0-22.756-22.756     c0-45.511,52.281-102.4,125.156-102.4c72.863,0,125.156,56.889,125.156,102.4c0,22.756-15.03,24.257-22.756,22.756     C273.374-198.132,246.022-202.933,204.8-202.933"/>
			<path style="fill:#FFFFFF;" d="M102.4-214.311c0,0,34.133-11.378,102.4-11.378s102.4,11.378,102.4,11.378     s-22.756-45.511-102.4-45.511S102.4-214.311,102.4-214.311"/>
		</g>
	</g>
</g>
<g>
</g>
<g>
</g>
<g>
</g>
<g>
</g>
<g>
</g>
<g>
</g>
<g>
</g>
<g>
</g>
<g>
</g>
<g>
</g>
<g>
</g>
<g>
</g>
<g>
</g>
<g>
</g>
<g>
</g>
</svg>
