<?xml version="1.0" encoding="iso-8859-1"?>
<!-- Generator: Adobe Illustrator 19.0.0, SVG Export Plug-In . SVG Version: 6.00 Build 0)  -->
<svg xmlns="http://www.w3.org/2000/svg" xmlns:xlink="http://www.w3.org/1999/xlink" version="1.1" id="Capa_1" x="0px" y="0px" viewBox="0 0 497.749 497.749" style="enable-background:new 0 0 497.749 497.749;" xml:space="preserve">
<g transform="matrix(1.25 0 0 -1.25 0 45)">
	<g>
		<g>
			<path style="fill:#FFCC4D;" d="M364.089-163.1c0-100.534-81.51-182.044-182.044-182.044S0-263.634,0-163.1     S81.51,18.945,182.044,18.945S364.089-62.566,364.089-163.1"/>
			<path id="SVGCleanerId_0" style="fill:#664500;" d="M130.514-112.23c0-19.41-11.23-35.135-25.099-35.135     c-13.858,0-25.099,15.724-25.099,35.135c0,19.399,11.241,35.135,25.099,35.135C119.285-77.095,130.514-92.831,130.514-112.23"/>
			<g transform="translate(11.529)">
				<path id="SVGCleanerId_0_1_" style="fill:#664500;" d="M261.689-112.23c0-19.41-11.23-35.135-25.099-35.135      c-13.858,0-25.099,15.724-25.099,35.135c0,19.399,11.241,35.135,25.099,35.135C250.459-77.095,261.689-92.831,261.689-112.23"/>
			</g>
			<path style="fill:#664500;" d="M115.12-292.602c20.082,50.199,130.514,50.199,130.514,30.117     C245.635-272.52,165.319-252.449,115.12-292.602"/>
			<path style="fill:#F4900C;" d="M367.047-157.411H193.399c-17.18,0-31.107-15.292-31.107-34.133     c0-18.853,13.926-34.133,31.107-34.133h173.648c17.215,0,31.152,15.28,31.152,34.133     C398.199-172.703,384.262-157.411,367.047-157.411"/>
		</g>
	</g>
</g>
<g>
</g>
<g>
</g>
<g>
</g>
<g>
</g>
<g>
</g>
<g>
</g>
<g>
</g>
<g>
</g>
<g>
</g>
<g>
</g>
<g>
</g>
<g>
</g>
<g>
</g>
<g>
</g>
<g>
</g>
</svg>
