<?xml version="1.0" encoding="iso-8859-1"?>
<!-- Generator: Adobe Illustrator 19.0.0, SVG Export Plug-In . SVG Version: 6.00 Build 0)  -->
<svg xmlns="http://www.w3.org/2000/svg" xmlns:xlink="http://www.w3.org/1999/xlink" version="1.1" id="Capa_1" x="0px" y="0px" viewBox="0 0 512.001 512.001" style="enable-background:new 0 0 512.001 512.001;" xml:space="preserve">
<g transform="matrix(1.25 0 0 -1.25 0 45)">
	<g>
		<g>
			<path style="fill:#FFCC4D;" d="M386.841-146.044c0-100.511-81.533-182.044-182.044-182.044     c-100.534,0-182.044,81.533-182.044,182.044C22.753-45.51,104.263,36,204.797,36C305.308,36,386.841-45.51,386.841-146.044"/>
			<path style="fill:#664500;" d="M294.238-147.512c-1.707,1.832-4.255,1.946-6.087,0.33c-0.375-0.33-37.581-32.996-83.354-32.996     c-45.659,0-82.99,32.666-83.365,32.996c-1.832,1.616-4.38,1.479-6.087-0.33c-1.695-1.82-2.059-4.824-0.899-7.145     c1.24-2.446,30.834-59.654,90.351-59.654c59.506,0,89.122,57.207,90.34,59.654C296.309-152.325,295.922-149.333,294.238-147.512"/>
			<g>
				<path style="fill:#F4900C;" d="M152.38-227.441l-17.51,25.247c0,0-6.167,9.865-16.054,3.698      c-9.853-6.155-3.686-16.031-3.686-16.031l20.002-38.457c0,0,1.638-8.738-10.445,1.035c-5.268,4.255-2.241,1.855-2.241,1.855      l-5.006,4.107l-62.475,51.291c0,0-8.067,8.511-15.462-0.478c-7.373-9,2.526-15.258,2.526-15.258l59.096-48.538      c-1.377-1.365-5.495-6.076-6.827-7.543L31.07-214.63c0,0-8.078,8.522-15.462-0.466c-7.384-9,2.537-15.258,2.537-15.258      l63.204-51.905c-1.161-1.593-4.13-5.416-5.222-6.997l-54.522,44.76c0,0-8.078,8.511-15.451-0.478      c-7.396-9,2.537-15.269,2.537-15.269l57.947-47.593c-0.728-2.025-4.13-7.361-4.665-9.341l-41.779,34.27      c0,0-8.067,8.556-15.44-0.466c-7.396-9,2.537-15.258,2.537-15.258l67.47-55.387c0,0,2.924-2.423,4.494-3.709      c29.798-24.485,73.83-20.161,98.304,9.648c22.426,27.352,20.673,66.594-2.731,91.819      C166.534-247.352,159.343-237.442,152.38-227.441"/>
				<path style="fill:#F4900C;" d="M404.853-283.374c-7.373,9.023-15.44,0.466-15.44,0.466l-41.779-34.27      c-0.535,1.98-3.937,7.316-4.665,9.341l57.947,47.593c0,0,9.933,6.269,2.537,15.269c-7.373,8.988-15.451,0.478-15.451,0.478      l-54.522-44.76c-1.092,1.582-4.062,5.404-5.222,6.997l63.192,51.905c0,0,9.933,6.258,2.537,15.258      c-7.384,8.988-15.451,0.466-15.451,0.466l-63.226-51.883c-1.331,1.468-5.461,6.178-6.827,7.555l59.096,48.526      c0,0,9.899,6.258,2.526,15.258c-7.396,8.988-15.462,0.478-15.462,0.478l-62.475-51.291l-5.006-4.107      c0,0,11.264,9.569-2.241-1.855c-13.517-11.423-10.445-1.035-10.445-1.035l20.002,38.457c0,0,6.178,9.876-3.686,16.031      c-9.899,6.167-16.065-3.698-16.065-3.698l-17.499-25.247c-6.975-10.001-14.154-19.911-22.448-28.82      c-23.415-25.225-25.168-64.466-2.731-91.819c24.474-29.81,68.494-34.133,98.304-9.648c1.57,1.286,4.506,3.709,4.506,3.709      l67.459,55.387C402.315-298.632,412.237-292.374,404.853-283.374"/>
			</g>
			<g>
				<path style="fill:#664500;" d="M314.9-88.928c-0.58,1.388-14.62,33.94-43.463,33.94s-42.883-32.552-43.463-33.94      c-0.91-2.128-0.319-4.619,1.399-6.098c1.707-1.456,4.164-1.502,5.962-0.137c0.114,0.102,12.299,9.284,36.102,9.284      c23.654,0,35.829-9.057,36.113-9.273c0.853-0.671,1.866-1.013,2.89-1.013c1.081,0,2.162,0.375,3.038,1.126      C315.218-93.582,315.81-91.067,314.9-88.928"/>
				<path style="fill:#664500;" d="M189.744-88.928c-0.592,1.388-14.62,33.94-43.463,33.94s-42.883-32.552-43.463-33.94      c-0.899-2.128-0.319-4.619,1.399-6.098c1.718-1.456,4.164-1.502,5.951-0.137c0.125,0.102,12.299,9.284,36.113,9.284      c23.654,0,35.829-9.057,36.102-9.273c0.865-0.671,1.877-1.013,2.901-1.013c1.081,0,2.162,0.375,3.049,1.126      C190.063-93.582,190.643-91.067,189.744-88.928"/>
			</g>
			<g>
				<path style="fill:#B55005;" d="M127.223-253.872c0,0-29.503-37.706,5.507-84.878c2.412-3.243,8.533-1.661,5.928,2.128      c-2.844,4.153-31.289,44.328-4.551,80.293C134.107-256.329,129.772-255.794,127.223-253.872"/>
				<path style="fill:#B55005;" d="M281.768-254.998c0,0,29.514-37.706-5.507-84.878c-2.412-3.243-8.533-1.661-5.939,2.139      c2.844,4.142,31.289,44.316,4.562,80.282C274.884-257.456,279.219-256.921,281.768-254.998"/>
			</g>
		</g>
	</g>
</g>
<g>
</g>
<g>
</g>
<g>
</g>
<g>
</g>
<g>
</g>
<g>
</g>
<g>
</g>
<g>
</g>
<g>
</g>
<g>
</g>
<g>
</g>
<g>
</g>
<g>
</g>
<g>
</g>
<g>
</g>
</svg>
