<?xml version="1.0" encoding="iso-8859-1"?>
<!-- Generator: Adobe Illustrator 19.0.0, SVG Export Plug-In . SVG Version: 6.00 Build 0)  -->
<svg xmlns="http://www.w3.org/2000/svg" xmlns:xlink="http://www.w3.org/1999/xlink" version="1.1" id="Capa_1" x="0px" y="0px" viewBox="0 0 512 512" style="enable-background:new 0 0 512 512;" xml:space="preserve">
<g transform="matrix(1.25 0 0 -1.25 0 45)">
	<g>
		<path style="fill:#FFCC4D;" d="M409.6-168.8c0-113.1-91.7-204.8-204.8-204.8S0-281.9,0-168.8S91.7,36,204.8,36    C317.9,36,409.6-55.7,409.6-168.8"/>
		<g>
			<path style="fill:#664500;" d="M170.7-151.7c0-22-12.7-39.8-28.4-39.8s-28.5,17.8-28.5,39.8s12.7,39.8,28.4,39.8     S170.7-129.7,170.7-151.7"/>
			<path style="fill:#664500;" d="M295.8-151.7c0-22-12.7-39.8-28.4-39.8s-28.5,17.8-28.5,39.8s12.7,39.8,28.4,39.8     C283-111.9,295.8-129.7,295.8-151.7"/>
			<path style="fill:#664500;" d="M267.185-298.279c-0.1,0.5-13,32.8-62.4,32.8s-62.3-32.3-62.4-32.8c-0.6-2.4,0.5-4.9,2.6-6.2     c2.1-1.3,4.9-1,6.8,0.7c0.1,0.1,11.5,9.8,53,9.8c40.8,0,52.5-9.4,53-9.8c1.1-1,2.5-1.6,3.9-1.6c1,0,1.9,0.2,2.8,0.7     C266.685-303.379,267.885-300.779,267.185-298.279"/>
			<path style="fill:#664500;" d="M330-100.5c-63.2,0-88.8,49.7-89.8,51.8c-2.8,5.6-0.5,12.5,5.1,15.3s12.4,0.5,15.2-5.1     c0.8-1.6,20.7-39.3,69.5-39.3c6.3,0,11.4-5.1,11.4-11.4C341.3-95.4,336.2-100.5,330-100.5"/>
			<path style="fill:#664500;" d="M79.6-100.49c-6.3,0-11.4,5.1-11.4,11.4c0,6.3,5.1,11.4,11.4,11.4c57.8,0,68.2,35.5,68.6,37     c1.6,6,7.9,9.6,13.9,8.1c6-1.6,9.7-7.7,8.2-13.7C169.8-48.59,155.9-100.49,79.6-100.49"/>
		</g>
	</g>
	<g>
		<g>
			<path style="fill:#CCD6DD;" d="M211.7-251.2l-43.9-32.9c7.4,2.7,17.2,5.1,29.7,5.9l22.2,16.6L211.7-251.2z"/>
			<path style="fill:#CCD6DD;" d="M363.3-137.4l-67.8-50.9l7.9-10.5l6.8,5.1c6.8,5.1,10.6-1.1,15.7-7.9s9.5-11.5,2.7-16.6L242.3-283     c5.9-2,10.4-4.2,13.6-6.1l141.6,106.2c12.6,9.4,15.1,27.2,5.7,39.8C393.7-130.5,375.9-128,363.3-137.4z M326.1-194.3L312-176.2     l8.9,6.6l13.6-18.1L326.1-194.3z M350.4-175.9l-14.1,18.2l8.9,6.6l13.6-18.1L350.4-175.9z"/>
			<polygon style="fill:#CCD6DD;" points="245,-242.6 237,-232.2 220.6,-244.5 228.4,-255    "/>
			<polygon style="fill:#CCD6DD;" points="269.7,-224 261.8,-213.7 270.6,-207.1 278.4,-217.5 294.7,-205.3 286.6,-194.9      245.8,-225.6 253.7,-236    "/>
		</g>
		<path style="fill:#DA2F47;" d="M325.9-201.6c-5.1,6.8-9,13-15.7,7.9l-6.8-5.1l5.7-7.5l-8.4-6.8l-6,7.7l-16.2-12.2l5.8-7.7    l-8.4-6.8l-6.1,7.9l-16-12l5.7-7.5l-8.4-6.8l-6,7.8l-16.5-12.4l5.6-7.5l-8.4-6.8l-6,7.7l-22.3-16.5c2.7,0.2,5.6,0.3,8.6,0.3    c15.5,0.1,27.3-2.2,36.1-5.1l86.3,64.8C335.4-213.1,331-208.4,325.9-201.6z"/>
		<g>
			<polygon style="fill:#67757F;" points="225.7,-269.2 234.1,-262.5 228.4,-255 220.6,-244.5 220.5,-244.4 211.6,-251      211.7,-251.2 219.7,-261.5    "/>
			<polygon style="fill:#67757F;" points="251,-250.3 259.4,-243.6 253.7,-236 245.8,-225.6 245.8,-225.5 236.9,-232.1 237,-232.2      245,-242.6    "/>
			<polygon style="fill:#67757F;" points="261.8,-213.7 269.7,-224 275.8,-231.9 284.2,-225.1 278.4,-217.5 270.6,-207.1    "/>
			<polygon style="fill:#67757F;" points="300.6,-213 309,-206.2 303.4,-198.7 295.5,-188.3 295.4,-188.2 286.6,-194.8      286.6,-194.9 294.7,-205.3    "/>
			<polygon style="fill:#67757F;" points="312,-176.2 326.1,-194.3 334.5,-187.6 320.9,-169.5    "/>
			<polygon style="fill:#67757F;" points="336.4,-157.8 350.4,-175.9 358.9,-169.2 345.2,-151.1    "/>
		</g>
	</g>
</g>
<g>
</g>
<g>
</g>
<g>
</g>
<g>
</g>
<g>
</g>
<g>
</g>
<g>
</g>
<g>
</g>
<g>
</g>
<g>
</g>
<g>
</g>
<g>
</g>
<g>
</g>
<g>
</g>
<g>
</g>
</svg>
