<?xml version="1.0" encoding="iso-8859-1"?>
<!-- Generator: Adobe Illustrator 19.0.0, SVG Export Plug-In . SVG Version: 6.00 Build 0)  -->
<svg xmlns="http://www.w3.org/2000/svg" xmlns:xlink="http://www.w3.org/1999/xlink" version="1.1" id="Capa_1" x="0px" y="0px" viewBox="0 0 512 512" style="enable-background:new 0 0 512 512;" xml:space="preserve">
<g transform="matrix(1.25 0 0 -1.25 0 45)">
	<g>
		<g>
			<path style="fill:#FFCC4D;" d="M409.6-168.8c0-113.106-91.694-204.8-204.8-204.8C91.705-373.6,0-281.906,0-168.8     C0-55.705,91.705,36,204.8,36C317.906,36,409.6-55.705,409.6-168.8"/>
			<path style="fill:#664500;" d="M79.644-205.926c0-45.102,52.292-102.4,125.156-102.4s125.156,56.889,125.156,102.4     C329.956-205.926,212.389-237.283,79.644-205.926"/>
			<path style="fill:#5D9040;" d="M136.533-225.723v-79.201c0-34.133,22.756-68.267,68.267-68.267s68.267,34.133,68.267,68.267     v78.734C201.489-240.89,136.533-225.723,136.533-225.723"/>
			<g>
				<path style="fill:#664500;" d="M139.765-104.288c-8.602,3.322-16.737,6.463-16.737,11.014c0,7.498,10.069,7.885,12.083,7.885      c7.111,0,10.638-2.674,13.756-5.029c2.401-1.798,4.881-3.675,8.317-3.675c6.428,0,9.353,4.517,9.353,8.715      c0,8.374-10.263,14.29-21.151,16.759v4.494c0,5.882-4.79,10.684-10.684,10.684c-5.882,0-10.684-4.801-10.684-10.684v-4.847      c-13.016-3.789-20.992-13.358-20.992-25.429c0-14.916,14.711-21.038,27.682-26.431c9.296-3.868,18.079-7.521,18.079-13.221      c0-4.164-5.222-8.658-13.676-8.658c-8.533,0-13.426,3.402-17.749,6.417c-2.981,2.082-5.803,4.05-9.159,4.05      c-4.892,0-8.727-4.119-8.727-9.375c0-7.726,10.593-15.428,24.542-18.136v-5.348c0-5.894,4.801-10.684,10.695-10.684      c5.882,0,10.684,4.79,10.684,10.684l-0.057,5.655c14.746,3.595,23.461,13.904,23.461,27.978      C168.801-115.495,152.701-109.283,139.765-104.288"/>
				<path style="fill:#664500;" d="M303.718-131.663c0,15.974-16.1,22.187-29.036,27.182c-8.602,3.322-16.714,6.451-16.714,11.002      c0,7.509,10.047,7.885,12.06,7.885c7.111,0,10.65-2.662,13.767-5.018c2.401-1.809,4.87-3.675,8.306-3.675      c6.428,0,9.364,4.517,9.364,8.704c0,8.385-10.274,14.302-21.151,16.771v4.483c0,5.894-4.801,10.684-10.684,10.684      c-5.905,0-10.706-4.79-10.706-10.684v-4.847c-13.005-3.777-20.981-13.358-20.981-25.429c0-14.916,14.711-21.026,27.682-26.431      c9.307-3.857,18.079-7.509,18.079-13.21c0-4.164-5.222-8.67-13.676-8.67c-8.533,0-13.426,3.413-17.738,6.428      c-2.981,2.082-5.803,4.05-9.159,4.05c-4.904,0-8.738-4.119-8.738-9.387c0-7.726,10.593-15.417,24.53-18.125v-5.359      c0-5.882,4.813-10.672,10.718-10.672c5.882,0,10.672,4.79,10.672,10.672l-0.034,5.666      C295.003-156.046,303.718-145.726,303.718-131.663"/>
			</g>
			<path style="fill:#FFFFFF;" d="M238.592-317.496c0,15.565-15.69,21.629-28.297,26.499c-8.397,3.231-16.316,6.303-16.316,10.729     c0,7.316,9.808,7.68,11.765,7.68c6.94,0,10.377-2.594,13.426-4.881c2.332-1.775,4.756-3.595,8.112-3.595     c6.258,0,9.114,4.415,9.114,8.499c0,8.158-10.001,13.926-20.617,16.35v4.369c0,5.734-4.676,10.422-10.422,10.422     c-5.746,0-10.422-4.688-10.422-10.422v-4.722c-12.686-3.698-20.469-13.028-20.469-24.792c0-14.552,14.347-20.514,26.999-25.771     c9.068-3.766,17.624-7.316,17.624-12.88c0-4.062-5.097-8.454-13.346-8.454c-8.317,0-13.084,3.322-17.283,6.269     c-2.913,2.025-5.655,3.948-8.932,3.948c-4.779,0-8.511-4.028-8.511-9.148c0-7.543,10.32-15.041,23.916-17.681v-5.222     c0-5.734,4.676-10.399,10.433-10.399c5.746,0,10.411,4.665,10.411,10.399l-0.034,5.541     C230.104-341.264,238.592-331.206,238.592-317.496"/>
		</g>
	</g>
</g>
<g>
</g>
<g>
</g>
<g>
</g>
<g>
</g>
<g>
</g>
<g>
</g>
<g>
</g>
<g>
</g>
<g>
</g>
<g>
</g>
<g>
</g>
<g>
</g>
<g>
</g>
<g>
</g>
<g>
</g>
</svg>
