<?xml version="1.0" encoding="iso-8859-1"?>
<!-- Generator: Adobe Illustrator 19.0.0, SVG Export Plug-In . SVG Version: 6.00 Build 0)  -->
<svg xmlns="http://www.w3.org/2000/svg" xmlns:xlink="http://www.w3.org/1999/xlink" version="1.1" id="Capa_1" x="0px" y="0px" viewBox="0 0 512 512" style="enable-background:new 0 0 512 512;" xml:space="preserve">
<g transform="matrix(1.25 0 0 -1.25 0 45)">
	<g>
		<g>
			<path style="fill:#FFCC4D;" d="M409.6-168.8c0-113.106-91.694-204.8-204.8-204.8C91.705-373.6,0-281.906,0-168.8     C0-55.705,91.705,36,204.8,36C317.906,36,409.6-55.705,409.6-168.8"/>
			<path id="SVGCleanerId_0" style="fill:#664500;" d="M159.63-128.966c0-22.005-12.732-39.822-28.444-39.822     s-28.444,17.818-28.444,39.822c0,21.993,12.732,39.822,28.444,39.822S159.63-106.973,159.63-128.966"/>
			<g transform="translate(13)">
				<path id="SVGCleanerId_0_1_" style="fill:#664500;" d="M307.541-128.966c0-22.005-12.732-39.822-28.444-39.822      s-28.444,17.818-28.444,39.822c0,21.993,12.732,39.822,28.444,39.822S307.541-106.973,307.541-128.966"/>
			</g>
			<path style="fill:#664500;" d="M284.444-271.246H113.766c-11.378,0-11.378,11.378-11.378,11.378v11.378     c0,0,0,11.412,11.378,11.412c11.378,0,170.678-0.034,170.678-0.034V-271.246z"/>
			<g>
				<path style="fill:#9AAAB4;" d="M159.289-282.589h-22.756v34.133h22.756C159.289-248.456,159.289-282.589,159.289-282.589z"/>
				<path style="fill:#9AAAB4;" d="M182.044-225.7h-22.756v-34.133h22.756V-225.7z"/>
				<path style="fill:#9AAAB4;" d="M136.533-225.7h-22.756v-34.133h22.756V-225.7z"/>
				<path style="fill:#9AAAB4;" d="M204.789-282.589h-22.756v34.133h22.756C204.789-248.456,204.789-282.589,204.789-282.589z"/>
				<path style="fill:#9AAAB4;" d="M227.556-225.7h-22.767v-34.133h22.767V-225.7z"/>
				<path style="fill:#9AAAB4;" d="M250.311-282.589h-22.756v34.133h22.756C250.311-248.456,250.311-282.589,250.311-282.589z"/>
				<path style="fill:#9AAAB4;" d="M273.067-225.7h-22.756v-34.133h22.756V-225.7z"/>
			</g>
			<g>
				<path style="fill:#99AAB5;" d="M358.207-329.852l26.26,47.627l-37.979,12.868l-18.375-34.918L358.207-329.852z M299.361-244.599      c0,0,3.015,10.968,14.006,7.953l87.745-24.132c0,0,10.968-3.015,7.953-13.995c-3.015-10.968-36.136-71.839-44.533-79.462      c-9.887-8.954-20.127,0.91-20.127,0.91s-53.066,47.764-60.132,53.874c-7.066,6.121-4.244,14.507-4.244,14.507      S299.361-244.599,299.361-244.599z"/>
				<path style="fill:#99AAB5;" d="M282.362-283.169l-19.957,9.546l18.978,39.674l19.957-9.546L282.362-283.169z"/>
			</g>
		</g>
	</g>
</g>
<g>
</g>
<g>
</g>
<g>
</g>
<g>
</g>
<g>
</g>
<g>
</g>
<g>
</g>
<g>
</g>
<g>
</g>
<g>
</g>
<g>
</g>
<g>
</g>
<g>
</g>
<g>
</g>
<g>
</g>
</svg>
