<?xml version="1.0" encoding="iso-8859-1"?>
<!-- Generator: Adobe Illustrator 19.0.0, SVG Export Plug-In . SVG Version: 6.00 Build 0)  -->
<svg xmlns="http://www.w3.org/2000/svg" xmlns:xlink="http://www.w3.org/1999/xlink" version="1.1" id="Capa_1" x="0px" y="0px" viewBox="0 0 515.18 515.18" style="enable-background:new 0 0 515.18 515.18;" xml:space="preserve">
<g transform="matrix(1.25 0 0 -1.25 0 45)">
	<g>
		<g>
			<path style="fill:#BF6952;" d="M410.872-44.917c0,56.195-77.05,50.711-104.323,47.013     c-27.682,20.355-61.292,32.631-100.477,32.631c-39.117,0-72.681-12.299-100.329-32.643C78.607,5.783,1.272,11.381,1.272-44.917     c0-32.893,17.783-53.84,27.682-62.953C18.18-138.897,12.65-172.063,12.65-204.205c0-113.107,113.778-147.911,193.422-147.911     s193.422,34.133,193.422,147.911c0,32.256-5.495,65.434-16.225,96.404C393.18-98.642,410.872-77.719,410.872-44.917"/>
			<path style="fill:#D79E84;" d="M342.605-124.561c0,43.986-35.658,79.644-79.644,79.644c-22.3,0-42.428-9.193-56.889-23.95     c-14.45,14.757-34.588,23.95-56.889,23.95c-43.986,0-79.644-35.658-79.644-79.644c0-42.974,34.054-77.892,76.629-79.485     c-19.035-16.691-31.118-41.119-31.118-68.426c0-50.278,40.744-91.022,91.022-91.022s91.022,40.744,91.022,91.022     c0,27.307-12.072,51.735-31.107,68.426C308.563-202.453,342.605-167.535,342.605-124.561"/>
			<path style="fill:#642116;" d="M267.808-292.235c-1.047,1.673-2.879,2.697-4.847,2.697H149.183c-1.968,0-3.8-1.024-4.836-2.697     c-1.035-1.673-1.138-3.766-0.25-5.53c0.99-1.991,24.758-48.663,61.975-48.663c37.228,0,60.996,46.672,61.975,48.663     C268.934-296.001,268.843-293.908,267.808-292.235"/>
			<path id="SVGCleanerId_0" style="fill:#642116;" d="M217.45-255.405c-3.14,0-5.689,2.549-5.689,5.689v22.756     c0,3.14,2.549,5.689,5.689,5.689c3.14,0,5.689-2.549,5.689-5.689v-22.756C223.139-252.857,220.59-255.405,217.45-255.405"/>
			<g transform="translate(-2)">
				<path id="SVGCleanerId_0_1_" style="fill:#642116;" d="M194.694-255.405c-3.14,0-5.689,2.549-5.689,5.689v22.756      c0,3.14,2.549,5.689,5.689,5.689c3.14,0,5.689-2.549,5.689-5.689v-22.756C200.383-252.857,197.835-255.405,194.694-255.405"/>
			</g>
			<path id="SVGCleanerId_1" style="fill:#292F33;" d="M171.939-147.317c0-18.853-10.183-34.133-22.756-34.133     c-12.561,0-22.756,15.28-22.756,34.133s10.194,34.133,22.756,34.133C161.756-113.183,171.939-128.464,171.939-147.317"/>
			<g transform="translate(10)">
				<path id="SVGCleanerId_1_1_" style="fill:#292F33;" d="M285.717-147.317c0-18.853-10.183-34.133-22.756-34.133      c-12.561,0-22.756,15.28-22.756,34.133s10.194,34.133,22.756,34.133C275.533-113.183,285.717-128.464,285.717-147.317"/>
			</g>
			<g>
				<path style="fill:#BF6952;" d="M342.605-147.317L319.85-374.872h91.022l-11.378,227.556H342.605z"/>
				<path style="fill:#BF6952;" d="M365.361,23.35c-10.297,0-19.547-4.187-26.715-12.106      c-25.919-28.649-19.831-102.832-18.796-113.653c0.046-3.356,0.455-19.706,4.608-36.295      c8.841-35.328,27.113-42.746,40.903-42.746c35.533,0,45.261,21.754,45.511,33.667c0.239,3.664,2.128,32.745,0.808,65.741      c-1.957,49.015-9.626,80.077-23.484,94.959C381.836,19.743,373.94,23.35,365.361,23.35"/>
			</g>
			<path style="fill:#D79E84;" d="M365.361,11.972c45.511,0,34.133-159.289,34.133-159.289s0-22.756-34.133-22.756     s-34.133,68.267-34.133,68.267S319.85,11.972,365.361,11.972"/>
			<g>
				<path style="fill:#BF6952;" d="M376.727-50.605c-2.651,0-5.029,1.877-5.564,4.597c-2.344,11.913-9.432,29.537-17.18,29.537      h-22.756c-3.14,0-5.689,2.549-5.689,5.689s2.549,5.689,5.689,5.689h22.756c20.184,0,27.568-34.77,28.342-38.73      c0.603-3.083-1.411-6.076-4.494-6.679C377.456-50.571,377.092-50.605,376.727-50.605"/>
				<path style="fill:#BF6952;" d="M69.539-147.317l22.756-227.556H1.272L12.65-147.317H69.539z"/>
				<path style="fill:#BF6952;" d="M46.783,23.35c-8.579,0-16.475-3.607-22.835-10.433C10.09-1.965,2.421-33.027,0.464-82.042      c-1.32-32.996,0.569-62.077,0.808-65.741c0.25-11.913,9.978-33.667,45.511-33.667c13.79,0,32.063,7.418,40.903,42.746      c4.153,16.589,4.562,32.939,4.608,36.295c1.035,10.82,7.122,85.003-18.796,113.653C66.33,19.163,57.08,23.35,46.783,23.35"/>
			</g>
			<path style="fill:#D79E84;" d="M46.783,11.972c45.511,0,34.133-113.778,34.133-113.778s0-68.267-34.133-68.267     S12.65-147.317,12.65-147.317S1.272,11.972,46.783,11.972"/>
			<path style="fill:#BF6952;" d="M35.405-50.605c-0.364,0-0.728,0.034-1.092,0.102c-3.083,0.603-5.097,3.595-4.494,6.679     c0.774,3.959,8.146,38.73,28.342,38.73h22.756c3.14,0,5.689-2.549,5.689-5.689s-2.549-5.689-5.689-5.689H58.161     c-8.533,0-15.371-20.287-17.18-29.537C40.457-48.728,38.068-50.605,35.405-50.605"/>
		</g>
	</g>
</g>
<g>
</g>
<g>
</g>
<g>
</g>
<g>
</g>
<g>
</g>
<g>
</g>
<g>
</g>
<g>
</g>
<g>
</g>
<g>
</g>
<g>
</g>
<g>
</g>
<g>
</g>
<g>
</g>
<g>
</g>
</svg>
