<?xml version="1.0" encoding="iso-8859-1"?>
<!-- Generator: Adobe Illustrator 19.0.0, SVG Export Plug-In . SVG Version: 6.00 Build 0)  -->
<svg xmlns="http://www.w3.org/2000/svg" xmlns:xlink="http://www.w3.org/1999/xlink" version="1.1" id="Capa_1" x="0px" y="0px" viewBox="0 0 512 512" style="enable-background:new 0 0 512 512;" xml:space="preserve">
<g transform="matrix(1.25 0 0 -1.25 0 45)">
	<g>
		<g>
			<path style="fill:#FFCC4D;" d="M409.6-168.8c0-113.106-91.694-204.8-204.8-204.8C91.705-373.6,0-281.906,0-168.8     C0-55.705,91.705,36,204.8,36C317.906,36,409.6-55.705,409.6-168.8"/>
			<path id="SVGCleanerId_0" style="fill:#F5F8FA;" d="M341.333-117.6c0-34.554-28.023-62.578-62.578-62.578     s-62.578,28.023-62.578,62.578s28.023,62.578,62.578,62.578S341.333-83.046,341.333-117.6"/>
			<g transform="translate(-13)">
				<path id="SVGCleanerId_0_1_" style="fill:#F5F8FA;" d="M193.422-117.6c0-34.554-28.023-62.578-62.578-62.578      S68.267-152.154,68.267-117.6s28.023,62.578,62.578,62.578S193.422-83.046,193.422-117.6"/>
			</g>
			<path id="SVGCleanerId_1" style="fill:#664500;" d="M159.289-83.467c0-15.713-12.732-28.444-28.444-28.444     S102.4-99.179,102.4-83.467c0,15.701,12.732,28.444,28.444,28.444S159.289-67.765,159.289-83.467"/>
			<g transform="translate(13)">
				<path id="SVGCleanerId_1_1_" style="fill:#664500;" d="M307.2-83.467c0-15.713-12.732-28.444-28.444-28.444      s-28.444,12.732-28.444,28.444c0,15.701,12.732,28.444,28.444,28.444S307.2-67.765,307.2-83.467"/>
			</g>
			<path style="fill:#664500;" d="M261.689-271.2H147.911c-6.281,0-11.378,5.086-11.378,11.378c0,6.292,5.097,11.378,11.378,11.378     h113.778c6.292,0,11.378-5.086,11.378-11.378C273.067-266.114,267.981-271.2,261.689-271.2"/>
		</g>
	</g>
</g>
<g>
</g>
<g>
</g>
<g>
</g>
<g>
</g>
<g>
</g>
<g>
</g>
<g>
</g>
<g>
</g>
<g>
</g>
<g>
</g>
<g>
</g>
<g>
</g>
<g>
</g>
<g>
</g>
<g>
</g>
</svg>
