<?xml version="1.0" encoding="iso-8859-1"?>
<!-- Generator: Adobe Illustrator 19.0.0, SVG Export Plug-In . SVG Version: 6.00 Build 0)  -->
<svg xmlns="http://www.w3.org/2000/svg" xmlns:xlink="http://www.w3.org/1999/xlink" version="1.1" id="Capa_1" x="0px" y="0px" viewBox="0 0 512 512" style="enable-background:new 0 0 512 512;" xml:space="preserve">
<g transform="matrix(1.25 0 0 -1.25 0 45)">
	<g>
		<g>
			<path style="fill:#FFCC4D;" d="M397.813-100.021l0.41-0.512c0,0,11.378,113.778,0,125.156     c-10.354,10.354-77.039-7.509-88.997-10.82C281.623,27.842,247.296,36,204.8,36c-42.428,0-76.709-8.181-104.277-22.232     c-11.605,3.22-78.757,21.242-89.145,10.854c-11.378-11.378,0-125.156,0-125.156l0.535,0.671C3.504-128.91,0-160.278,0-191.556     c0-62.646,38.411-111.707,86.209-143.041c0.922,73.011-25.68,154.419-70.235,154.419c-5.279,0-9.546-0.751-13.107-2.082     c3.436,8.613,10.923,13.46,24.906,13.46c48.299,0,75.526-95.698,69.427-172.646c35.783-20.89,75.412-32.154,107.6-32.154     c32.199,0,71.851,11.173,107.645,31.994C306.233-264.351,333.471-168.8,381.85-168.8c14.029,0,21.515-4.847,24.94-13.46     c-3.561,1.331-7.851,2.082-13.164,2.082c-44.646,0-71.27-81.362-70.212-154.647c47.775,31.232,86.187,80.259,86.187,143.269     C409.6-160.244,406.118-128.955,397.813-100.021"/>
			<path style="fill:#292F33;" d="M204.8-202.876c-25.134,0-45.511-20.378-45.511-45.511v-68.267     c0-25.134,20.378-45.511,45.511-45.511s45.511,20.378,45.511,45.511v68.267C250.311-223.254,229.934-202.876,204.8-202.876"/>
			<path style="fill:#67757F;" d="M204.8-134.61c34.145,0,34.145-5.689,34.145-17.067S221.878-185.81,204.8-185.81     c-17.067,0-34.133,22.756-34.133,34.133S170.655-134.61,204.8-134.61"/>
			<g>
				<path style="fill:#9AAAB4;" d="M340.469-197.256l-57.128-11.423c-3.095-0.614-5.097-3.607-4.471-6.69      c0.546-2.708,2.913-4.574,5.564-4.574c0.375,0,0.762,0.034,1.126,0.114l47.753,9.546      C335.542-205.618,337.931-201.261,340.469-197.256"/>
				<path style="fill:#9AAAB4;" d="M381.838-168.743c0.068,0,0.114-0.011,0.182-0.011l18,5.996c2.97,0.99,4.585,4.21,3.595,7.191      c-1.001,2.981-4.198,4.597-7.202,3.595l-102.4-34.122c-2.97-1.001-4.585-4.221-3.595-7.202c0.796-2.378,3.015-3.891,5.393-3.891      c0.603,0,1.206,0.091,1.809,0.284l61.781,20.605C366.262-171.485,373.749-168.743,381.838-168.743"/>
				<path style="fill:#9AAAB4;" d="M126.293-208.679l-57.207,11.446c2.537-4.028,4.927-8.374,7.157-13.039l47.821-9.557      c0.375-0.08,0.751-0.114,1.115-0.114c2.662,0,5.04,1.866,5.575,4.574C131.368-212.286,129.377-209.294,126.293-208.679"/>
				<path style="fill:#9AAAB4;" d="M115.575-186.094l-102.4,34.133c-3.004,0.99-6.201-0.626-7.191-3.595      c-1.001-2.992,0.614-6.212,3.595-7.202l18.011-6.007c0.057,0,0.102,0.023,0.171,0.023c8.055,0,15.508-2.731,22.335-7.521      l61.884-20.628c0.592-0.205,1.206-0.296,1.798-0.296c2.378,0,4.597,1.513,5.393,3.891      C120.161-190.315,118.556-187.095,115.575-186.094"/>
			</g>
			<g>
				<path style="fill:#F5F8FA;" d="M83.593-85.299c-10.763-36.136,1.217-71.6,26.761-79.212c25.554-7.623,55,15.497,65.752,51.632      c10.786,36.124-1.195,71.6-26.726,79.212C123.824-26.054,94.367-49.174,83.593-85.299"/>
				<path style="fill:#F5F8FA;" d="M325.996-85.299c10.763-36.136-1.217-71.6-26.761-79.212c-25.566-7.623-55,15.497-65.764,51.632      c-10.763,36.124,1.217,71.6,26.749,79.212C285.776-26.054,315.221-49.174,325.996-85.299"/>
			</g>
			<g>
				<path style="fill:#FCAB40;" d="M406.79-182.203c-3.561,1.32-7.851,2.082-13.164,2.082c-52.804,0-80.395-113.801-66.822-193.422      h73.5C378.618-293.387,419.146-213.253,406.79-182.203"/>
				<path style="fill:#FCAB40;" d="M15.974-180.121c-5.279,0-9.557-0.751-13.119-2.082c0.819,2.037,1.9,3.823,3.197,5.427      c-21.185-26.078,26.351-111.889,3.254-196.767h73.512C96.336-294.354,68.756-180.121,15.974-180.121"/>
			</g>
		</g>
	</g>
</g>
<g>
</g>
<g>
</g>
<g>
</g>
<g>
</g>
<g>
</g>
<g>
</g>
<g>
</g>
<g>
</g>
<g>
</g>
<g>
</g>
<g>
</g>
<g>
</g>
<g>
</g>
<g>
</g>
<g>
</g>
</svg>
