<?xml version="1.0" encoding="iso-8859-1"?>
<!-- Generator: Adobe Illustrator 19.0.0, SVG Export Plug-In . SVG Version: 6.00 Build 0)  -->
<svg xmlns="http://www.w3.org/2000/svg" xmlns:xlink="http://www.w3.org/1999/xlink" version="1.1" id="Capa_1" x="0px" y="0px" viewBox="0 0 512 512" style="enable-background:new 0 0 512 512;" xml:space="preserve">
<g transform="matrix(1.25 0 0 -1.25 0 45)">
	<g>
		<g>
			<g>
				<path style="fill:#FFCC4D;" d="M409.6-191.556c0-113.778-125.156-182.044-204.8-182.044S0-304.662,0-191.556S45.511,36,204.8,36      S409.6-77.778,409.6-191.556"/>
				<path style="fill:#FFCC4D;" d="M398.222,24.622c11.378-11.378,0-125.156,0-125.156L307.2,13.244      C307.2,13.244,386.844,36,398.222,24.622"/>
				<path style="fill:#FFCC4D;" d="M11.378,24.622c-11.378-11.378,0-125.156,0-125.156L102.4,13.244      C102.4,13.244,22.756,36,11.378,24.622"/>
			</g>
			<path style="fill:#67757F;" d="M204.8-185.867c34.145,0,34.145-5.689,34.145-17.067s-17.067-34.133-34.145-34.133     c-17.067,0-34.133,22.756-34.133,34.133S170.655-185.867,204.8-185.867"/>
			<g>
				<path style="fill:#9AAAB4;" d="M295.822-197.244c-2.378,0-4.597,1.513-5.404,3.891c-0.978,2.981,0.626,6.201,3.607,7.202      l102.4,34.122c2.992,1.001,6.201-0.614,7.202-3.595c0.99-2.981-0.626-6.201-3.607-7.191l-102.4-34.145      C297.017-197.153,296.425-197.244,295.822-197.244"/>
				<path style="fill:#9AAAB4;" d="M284.433-220c-2.651,0-5.018,1.866-5.564,4.574c-0.626,3.083,1.377,6.076,4.46,6.69      l113.778,22.756c2.958,0.614,6.064-1.365,6.69-4.46c0.626-3.083-1.377-6.076-4.46-6.69l-113.778-22.756      C285.184-219.966,284.809-220,284.433-220"/>
				<path style="fill:#9AAAB4;" d="M113.778-197.244c-0.592,0-1.195,0.091-1.798,0.284L9.58-162.815      c-2.981,0.99-4.597,4.21-3.595,7.191c0.99,2.981,4.187,4.597,7.191,3.595l102.4-34.122c2.981-1.001,4.585-4.221,3.595-7.202      C118.374-195.731,116.167-197.244,113.778-197.244"/>
				<path style="fill:#9AAAB4;" d="M125.156-220c-0.364,0-0.74,0.034-1.126,0.114L10.251-197.131      c-3.072,0.614-5.074,3.607-4.46,6.69s3.561,5.109,6.702,4.46l113.778-22.756c3.072-0.614,5.075-3.607,4.46-6.69      C130.185-218.134,127.807-220,125.156-220"/>
			</g>
			<g>
				<path style="fill:#292F33;" d="M323.311-165.648c-0.694,1.035-17.237,25.293-50.244,25.293      c-32.996,0-49.55-24.257-50.244-25.293c-1.536-2.298-1.183-5.348,0.808-7.259c1.98-1.9,5.086-2.094,7.316-0.466      c0.137,0.102,14.359,10.263,42.121,10.263c27.602,0,41.802-10.035,42.121-10.263c1.013-0.751,2.207-1.115,3.391-1.115      c1.411,0,2.822,0.523,3.914,1.547C324.506-171.03,324.847-167.958,323.311-165.648"/>
				<path style="fill:#292F33;" d="M136.533-140.356c-32.996,0-49.55-24.257-50.244-25.293c-1.525-2.287-1.183-5.336,0.808-7.248      c2.002-1.9,5.086-2.105,7.305-0.478c0.148,0.102,14.359,10.263,42.132,10.263c27.602,0,41.802-10.024,42.121-10.251      c1.013-0.751,2.207-1.126,3.391-1.126c1.411,0,2.822,0.523,3.914,1.559c2.014,1.9,2.355,4.983,0.819,7.282      C186.084-164.613,169.54-140.356,136.533-140.356"/>
				<path style="fill:#292F33;" d="M248.843-305.333c15.189,4.688,29.912,13.153,29.912,28.444      c0,29.798-55.888,33.769-62.271,34.122c-3.152,0.398-5.803-2.207-5.985-5.325c-0.193-3.106,2.162-5.803,5.279-6.03      c0.398-0.023,40.22-3.402,40.22-22.767c0-19.365-39.822-22.744-40.22-22.767c-0.114-0.011-0.205-0.068-0.319-0.091      c-1.399-0.091-2.606-0.728-3.493-1.786c-0.068-0.08-0.125-0.182-0.193-0.25c-0.319-0.455-0.603-0.899-0.819-1.422      c-0.125-0.307-0.182-0.637-0.25-0.967c-0.046-0.273-0.182-0.523-0.205-0.808c-0.011-0.114,0.046-0.228,0.046-0.353      s-0.057-0.239-0.046-0.353c0.023-0.296,0.148-0.523,0.205-0.808c0.068-0.33,0.125-0.66,0.262-0.978      c0.148-0.375,0.364-0.683,0.58-1.001c0.182-0.273,0.341-0.535,0.558-0.774c0.273-0.273,0.592-0.489,0.933-0.705      c0.262-0.193,0.512-0.375,0.808-0.523c0.353-0.171,0.74-0.239,1.138-0.307c0.273-0.068,0.501-0.205,0.796-0.228      c0.398-0.023,40.22-3.402,40.22-22.767c0-19.365-39.822-22.744-40.22-22.767c-3.118-0.228-5.473-2.924-5.279-6.03      c0.182-3.015,2.685-5.336,5.678-5.336c0.102,0,0.216,0,0.307,0.011c6.383,0.353,62.271,4.324,62.271,34.122      C278.756-318.486,264.033-310.021,248.843-305.333"/>
				<path style="fill:#292F33;" d="M352.711-146.044c-3.47,0-6.884,1.57-9.114,4.551c-30.037,40.061-68.961,40.949-70.611,40.96      c-6.258,0.068-11.31,5.188-11.275,11.435c0.034,6.269,5.086,11.321,11.344,11.321c2.094,0,51.621-0.569,88.747-50.062      c3.777-5.029,2.753-12.163-2.276-15.929C357.478-145.305,355.089-146.044,352.711-146.044"/>
				<path style="fill:#292F33;" d="M56.878-146.044c-2.367,0-4.767,0.74-6.815,2.276c-5.029,3.766-6.042,10.9-2.276,15.929      c37.114,49.493,86.653,50.062,88.747,50.062c6.281,0,11.378-5.097,11.378-11.378c0-6.269-5.063-11.355-11.332-11.378      c-1.764-0.023-40.596-0.978-70.588-40.96C63.75-144.474,60.336-146.044,56.878-146.044"/>
			</g>
		</g>
	</g>
</g>
<g>
</g>
<g>
</g>
<g>
</g>
<g>
</g>
<g>
</g>
<g>
</g>
<g>
</g>
<g>
</g>
<g>
</g>
<g>
</g>
<g>
</g>
<g>
</g>
<g>
</g>
<g>
</g>
<g>
</g>
</svg>
