<?xml version="1.0" encoding="iso-8859-1"?>
<!-- Generator: Adobe Illustrator 19.0.0, SVG Export Plug-In . SVG Version: 6.00 Build 0)  -->
<svg xmlns="http://www.w3.org/2000/svg" xmlns:xlink="http://www.w3.org/1999/xlink" version="1.1" id="Capa_1" x="0px" y="0px" viewBox="0 0 512.002 512.002" style="enable-background:new 0 0 512.002 512.002;" xml:space="preserve">
<g transform="matrix(1.25 0 0 -1.25 0 45)">
	<g>
		<g>
			<g>
				<path style="fill:#FFCC4D;" d="M409.602-191.557c0-113.778-125.156-182.044-204.8-182.044s-204.8,68.938-204.8,182.044      s45.511,227.556,204.8,227.556S409.602-77.779,409.602-191.557"/>
				<path style="fill:#FFCC4D;" d="M398.224,24.621c11.378-11.378,0-125.156,0-125.156L307.202,13.243      C307.202,13.243,386.846,35.999,398.224,24.621"/>
				<path style="fill:#FFCC4D;" d="M11.38,24.621c-11.378-11.378,0-125.156,0-125.156l91.022,113.778      C102.402,13.243,22.758,35.999,11.38,24.621"/>
			</g>
			<path style="fill:#292F33;" d="M357.31-233.711c-1.399,1.923-3.846,2.788-6.167,2.116c-0.785-0.228-79.644-22.539-146.352-22.539     c-66.651,0-145.556,22.312-146.341,22.539c-2.378,0.705-4.904-0.25-6.281-2.287c-1.365-2.037-1.286-4.733,0.228-6.679     c3.322-4.278,82.159-104.596,152.394-104.596c81.749,0,149.8,100.648,152.656,104.937     C358.766-238.228,358.709-235.645,357.31-233.711"/>
			<path style="fill:#F5F8FA;" d="M91.024-248.445c0,0,56.889-22.756,113.778-22.756s113.778,22.756,113.778,22.756     s0-34.133-11.378-34.133s-22.756,11.378-22.756,11.378s-45.511-22.756-79.644-22.756s-79.644,22.756-79.644,22.756     s-11.378-11.378-22.756-11.378S91.024-248.445,91.024-248.445"/>
			<path style="fill:#67757F;" d="M204.802-185.868c34.145,0,34.145-5.689,34.145-17.067c0-11.378-17.067-34.133-34.145-34.133     c-17.067,0-34.133,22.756-34.133,34.133C170.669-191.557,170.657-185.868,204.802-185.868"/>
			<g>
				<path style="fill:#9AAAB4;" d="M295.824-197.245c-2.378,0-4.597,1.513-5.404,3.891c-0.978,2.981,0.626,6.201,3.607,7.202      l102.4,34.122c2.992,1.001,6.201-0.614,7.202-3.595c0.99-2.981-0.626-6.201-3.607-7.191l-102.4-34.145      C297.019-197.154,296.427-197.245,295.824-197.245"/>
				<path style="fill:#9AAAB4;" d="M284.435-220.001c-2.651,0-5.018,1.866-5.564,4.574c-0.626,3.083,1.377,6.076,4.46,6.69      l113.778,22.756c2.958,0.614,6.064-1.365,6.69-4.46c0.626-3.083-1.377-6.076-4.46-6.69l-113.778-22.756      C285.186-219.967,284.811-220.001,284.435-220.001"/>
				<path style="fill:#9AAAB4;" d="M113.78-197.245c-0.592,0-1.195,0.091-1.798,0.284l-102.4,34.145      c-2.981,0.99-4.597,4.21-3.595,7.191c0.99,2.981,4.187,4.597,7.191,3.595l102.4-34.122c2.981-1.001,4.585-4.221,3.595-7.202      C118.376-195.732,116.169-197.245,113.78-197.245"/>
				<path style="fill:#9AAAB4;" d="M125.158-220.001c-0.364,0-0.74,0.034-1.126,0.114L10.253-197.132      c-3.072,0.614-5.074,3.607-4.46,6.69c0.614,3.083,3.561,5.109,6.702,4.46l113.778-22.756c3.072-0.614,5.074-3.607,4.46-6.69      C130.186-218.135,127.809-220.001,125.158-220.001"/>
			</g>
			<g>
				<path style="fill:#E75A70;" d="M184.618-22.221c-9.774,27.659-40.107,42.189-67.766,32.427      C100.047,4.289,88.168-9.262,83.538-25.111c-13.562,9.432-31.312,12.516-48.071,6.599C7.807-28.263-6.722-58.619,3.04-86.278      c1.399-3.925,3.231-7.543,5.382-10.9c22.198-40.755,86.335-69.404,125.178-69.757c29.992,24.656,61.952,87.199,53.658,132.858      C186.825-30.106,185.972-26.135,184.618-22.221"/>
				<path style="fill:#E75A70;" d="M224.986-22.221c9.774,27.659,40.107,42.189,67.766,32.427      c16.805-5.916,28.683-19.467,33.326-35.317c13.551,9.432,31.3,12.516,48.06,6.599c27.648-9.751,42.177-40.107,32.427-67.766      c-1.399-3.925-3.231-7.543-5.382-10.9c-22.198-40.755-86.335-69.404-125.178-69.757      c-29.992,24.656-61.952,87.199-53.658,132.858C222.779-30.106,223.632-26.135,224.986-22.221"/>
			</g>
		</g>
	</g>
</g>
<g>
</g>
<g>
</g>
<g>
</g>
<g>
</g>
<g>
</g>
<g>
</g>
<g>
</g>
<g>
</g>
<g>
</g>
<g>
</g>
<g>
</g>
<g>
</g>
<g>
</g>
<g>
</g>
<g>
</g>
</svg>
