<?xml version="1.0" encoding="iso-8859-1"?>
<!-- Generator: Adobe Illustrator 19.0.0, SVG Export Plug-In . SVG Version: 6.00 Build 0)  -->
<svg xmlns="http://www.w3.org/2000/svg" xmlns:xlink="http://www.w3.org/1999/xlink" version="1.1" id="Capa_1" x="0px" y="0px" viewBox="0 0 512 512" style="enable-background:new 0 0 512 512;" xml:space="preserve">
<g transform="matrix(1.25 0 0 -1.25 0 45)">
	<g>
		<g>
			<path style="fill:#FFCC4D;" d="M409.6-168.8c0-113.106-91.694-204.8-204.8-204.8C91.705-373.6,0-281.906,0-168.8     C0-55.705,91.705,36,204.8,36C317.906,36,409.6-55.705,409.6-168.8"/>
			<g>
				<path style="fill:#664500;" d="M79.644-134.667c-3.675,0-7.282,1.775-9.478,5.063c-3.482,5.234-2.071,12.299,3.152,15.781      c1.513,1.001,37.558,24.667,85.959,24.667c6.281,0,11.378-5.097,11.378-11.378c0-6.281-5.097-11.378-11.378-11.378      c-41.586,0-73.023-20.639-73.33-20.844C84.002-134.052,81.806-134.667,79.644-134.667"/>
				<path style="fill:#664500;" d="M329.944-134.667c-2.15,0-4.346,0.614-6.281,1.9c-0.319,0.205-32.074,20.855-73.353,20.855      c-6.292,0-11.378,5.097-11.378,11.378c0,6.281,5.086,11.378,11.378,11.378c48.401,0,84.446-23.666,85.959-24.667      c5.234-3.482,6.645-10.547,3.152-15.781C337.237-132.892,333.619-134.667,329.944-134.667"/>
			</g>
			<path style="fill:#F5F8FA;" d="M307.2-215.346L409.6-168.8c0,7.509-0.466,14.894-1.24,22.187L307.2-192.591v12.413     c0,12.561-10.183,22.756-22.756,22.756H125.156c-12.561,0-22.756-10.194-22.756-22.756v-12.413L1.252-146.613     C0.466-153.906,0-161.291,0-168.8l102.4-46.546v-51.723l-84.799,15.428c3.88-8.761,8.431-17.146,13.449-25.202l71.35-12.982     v-15.508c0-12.572,10.194-22.756,22.756-22.756h159.289c12.572,0,22.756,10.183,22.756,22.756v15.508l71.35,12.982     c5.029,8.055,9.569,16.441,13.449,25.202L307.2-267.07V-215.346z"/>
		</g>
	</g>
</g>
<g>
</g>
<g>
</g>
<g>
</g>
<g>
</g>
<g>
</g>
<g>
</g>
<g>
</g>
<g>
</g>
<g>
</g>
<g>
</g>
<g>
</g>
<g>
</g>
<g>
</g>
<g>
</g>
<g>
</g>
</svg>
