<?xml version="1.0" encoding="iso-8859-1"?>
<!-- Generator: Adobe Illustrator 19.0.0, SVG Export Plug-In . SVG Version: 6.00 Build 0)  -->
<svg xmlns="http://www.w3.org/2000/svg" xmlns:xlink="http://www.w3.org/1999/xlink" version="1.1" id="Capa_1" x="0px" y="0px" viewBox="0 0 512 512" style="enable-background:new 0 0 512 512;" xml:space="preserve">
<g transform="matrix(1.25 0 0 -1.25 0 45)">
	<g>
		<g>
			<path style="fill:#FFCC4D;" d="M409.6-168.8c0-113.106-91.694-204.8-204.8-204.8C91.705-373.6,0-281.906,0-168.8     C0-55.705,91.705,36,204.8,36C317.906,36,409.6-55.705,409.6-168.8"/>
			<path id="SVGCleanerId_0" style="fill:#FF7892;" d="M386.844-225.689c0-31.425-25.463-56.889-56.889-56.889     s-56.889,25.463-56.889,56.889S298.53-168.8,329.956-168.8S386.844-194.263,386.844-225.689"/>
			<g transform="translate(-22)">
				<path id="SVGCleanerId_0_1_" style="fill:#FF7892;" d="M136.533-225.689c0-31.425-25.463-56.889-56.889-56.889      s-56.889,25.463-56.889,56.889S48.219-168.8,79.644-168.8S136.533-194.263,136.533-225.689"/>
			</g>
			<path id="SVGCleanerId_1" style="fill:#F5F8FA;" d="M341.333-151.733c0-34.554-28.023-62.578-62.578-62.578     s-62.578,28.023-62.578,62.578s28.023,62.578,62.578,62.578S341.333-117.179,341.333-151.733"/>
			<g transform="translate(-13)">
				<path id="SVGCleanerId_1_1_" style="fill:#F5F8FA;" d="M193.422-151.733c0-34.554-28.023-62.578-62.578-62.578      s-62.578,28.023-62.578,62.578s28.023,62.578,62.578,62.578S193.422-117.179,193.422-151.733"/>
			</g>
			<path id="SVGCleanerId_2" style="fill:#664500;" d="M159.289-151.733c0-15.713-12.732-28.444-28.444-28.444     S102.4-167.446,102.4-151.733c0,15.701,12.732,28.444,28.444,28.444S159.289-136.032,159.289-151.733"/>
			<g transform="translate(13)">
				<path id="SVGCleanerId_2_1_" style="fill:#664500;" d="M307.2-151.733c0-15.713-12.732-28.444-28.444-28.444      s-28.444,12.732-28.444,28.444c0,15.701,12.732,28.444,28.444,28.444S307.2-136.032,307.2-151.733"/>
			</g>
			<g>
				<path style="fill:#664500;" d="M250.311-305.333h-91.022c-6.281,0-11.378,5.086-11.378,11.378s5.097,11.378,11.378,11.378      h91.022c6.292,0,11.378-5.086,11.378-11.378S256.603-305.333,250.311-305.333"/>
				<path style="fill:#664500;" d="M341.333-89.156c-3.47,0-6.884,1.57-9.114,4.551c-30.037,40.061-68.961,40.949-70.61,40.96      c-6.258,0.068-11.31,5.188-11.275,11.435c0.034,6.269,5.086,11.321,11.344,11.321c2.094,0,51.621-0.569,88.747-50.062      c3.777-5.029,2.753-12.163-2.276-15.929C346.101-88.416,343.711-89.156,341.333-89.156"/>
				<path style="fill:#664500;" d="M68.255-89.156c-2.367,0-4.767,0.74-6.815,2.276c-5.029,3.766-6.042,10.9-2.276,15.929      c37.114,49.493,86.653,50.062,88.747,50.062c6.281,0,11.378-5.097,11.378-11.378c0-6.269-5.063-11.355-11.332-11.378      c-1.764-0.023-40.607-0.978-70.588-40.96C75.127-87.585,71.714-89.156,68.255-89.156"/>
			</g>
		</g>
	</g>
</g>
<g>
</g>
<g>
</g>
<g>
</g>
<g>
</g>
<g>
</g>
<g>
</g>
<g>
</g>
<g>
</g>
<g>
</g>
<g>
</g>
<g>
</g>
<g>
</g>
<g>
</g>
<g>
</g>
<g>
</g>
</svg>
