<?xml version="1.0" encoding="iso-8859-1"?>
<!-- Generator: Adobe Illustrator 19.0.0, SVG Export Plug-In . SVG Version: 6.00 Build 0)  -->
<svg xmlns="http://www.w3.org/2000/svg" xmlns:xlink="http://www.w3.org/1999/xlink" version="1.1" id="Capa_1" x="0px" y="0px" viewBox="0 0 512 512" style="enable-background:new 0 0 512 512;" xml:space="preserve">
<g transform="matrix(1.25 0 0 -1.25 0 45)">
	<g>
		<g>
			<path style="fill:#FFCC4D;" d="M409.6-168.8c0-113.106-91.694-204.8-204.8-204.8C91.705-373.6,0-281.906,0-168.8     C0-55.705,91.705,36,204.8,36C317.906,36,409.6-55.705,409.6-168.8"/>
			<g>
				<path style="fill:#664500;" d="M189.599-83.956c-2.355,1.024-5.131,0.341-6.736-1.684c-0.114-0.137-11.139-13.676-37.945-20.981      c-8.818-2.412-17.419-3.63-25.532-3.63c-11.298,0-17.738,2.412-17.772,2.423c-2.389,0.956-5.154,0.159-6.679-1.934      c-1.536-2.094-1.456-4.949,0.182-6.952c0.808-1.001,20.241-24.439,46.922-24.439c3.994,0,7.987,0.546,11.867,1.593      c32.472,8.863,38.798,47.889,39.049,49.539C193.343-87.472,191.954-84.991,189.599-83.956"/>
				<path style="fill:#664500;" d="M314.47-108.475c-1.57,2.059-4.324,2.788-6.713,1.809c-0.068-0.034-7.202-2.913-19.763-2.913      c-7.521,0-15.462,1.024-23.586,3.026c-26.965,6.622-38.343,19.888-38.423,20.002c-1.661,2.002-4.415,2.651-6.781,1.559      c-2.355-1.081-3.675-3.618-3.22-6.167c0.296-1.65,7.6-40.505,40.266-48.549c3.527-0.865,7.157-1.308,10.763-1.308      c27.273,0,46.638,24.565,47.445,25.623C316.041-113.367,316.029-110.523,314.47-108.475"/>
				<path style="fill:#664500;" d="M113.755-77.778c-5.097,0-9.728,3.447-11.025,8.613c-1.525,6.087,2.162,12.254,8.238,13.79      c0.41,0.114,40.88,10.945,60.894,50.95c2.81,5.621,9.626,7.919,15.269,5.097c5.621-2.81,7.896-9.648,5.086-15.269      c-24.815-49.63-73.626-62.327-75.685-62.839C115.598-77.675,114.677-77.778,113.755-77.778"/>
				<path style="fill:#664500;" d="M295.822-77.778c-0.91,0-1.832,0.114-2.753,0.341c-2.071,0.512-50.881,13.21-75.696,62.839      c-2.81,5.621-0.523,12.459,5.097,15.269c5.609,2.81,12.436,0.523,15.269-5.097c19.991-40.016,60.473-50.836,60.882-50.95      c6.064-1.559,9.762-7.737,8.215-13.824C305.527-74.342,300.908-77.778,295.822-77.778"/>
				<path style="fill:#664500;" d="M204.8-293.5c-41.222,0-68.574-4.801-102.4-11.378c-7.726-1.49-22.756,0-22.756,22.756      c0,45.511,52.281,102.4,125.156,102.4c72.863,0,125.156-56.889,125.156-102.4c0-22.756-15.03-24.257-22.756-22.756      C273.374-298.302,246.022-293.5,204.8-293.5"/>
			</g>
			<path style="fill:#FFFFFF;" d="M113.766-248.444c0,0,34.133,11.378,91.022,11.378c56.9,0,91.034-11.378,91.034-11.378     s-22.756,45.511-91.034,45.511C136.522-202.933,113.766-248.444,113.766-248.444"/>
		</g>
	</g>
</g>
<g>
</g>
<g>
</g>
<g>
</g>
<g>
</g>
<g>
</g>
<g>
</g>
<g>
</g>
<g>
</g>
<g>
</g>
<g>
</g>
<g>
</g>
<g>
</g>
<g>
</g>
<g>
</g>
<g>
</g>
</svg>
