<?xml version="1.0" encoding="iso-8859-1"?>
<!-- Generator: Adobe Illustrator 19.0.0, SVG Export Plug-In . SVG Version: 6.00 Build 0)  -->
<svg xmlns="http://www.w3.org/2000/svg" xmlns:xlink="http://www.w3.org/1999/xlink" version="1.1" id="Capa_1" x="0px" y="0px" viewBox="0 0 512 512" style="enable-background:new 0 0 512 512;" xml:space="preserve">
<g transform="matrix(1.25 0 0 -1.25 0 45)">
	<g>
		<g>
			<path style="fill:#FFCC4D;" d="M409.6-168.8c0-113.106-91.694-204.8-204.8-204.8S0-281.906,0-168.8S91.694,36,204.8,36     S409.6-55.694,409.6-168.8"/>
			<g>
				<path style="fill:#664500;" d="M227.556-111.911c-0.626,0-1.24,0.046-1.877,0.159c-6.201,1.035-10.388,6.895-9.353,13.096      c4.471,26.897,29.241,77.767,90.863,77.767c6.292,0,11.378-5.097,11.378-11.378s-5.086-11.378-11.378-11.378      c-57.97,0-68.028-56.366-68.426-58.766C237.841-107.963,233.017-111.911,227.556-111.911"/>
				<path style="fill:#664500;" d="M182.033-111.911c-5.45,0-10.263,3.925-11.207,9.478c-0.41,2.401-10.866,58.789-68.426,58.789      c-6.281,0-11.378,5.097-11.378,11.378s5.097,11.378,11.378,11.378c61.622,0,86.38-50.87,90.863-77.767      c1.035-6.201-3.152-12.06-9.341-13.096C183.285-111.866,182.647-111.911,182.033-111.911"/>
				<path style="fill:#664500;" d="M129.82-167.548c-26.567,0-44.032,11.344-45.102,12.06c-5.234,3.482-6.645,10.547-3.163,15.781      c3.482,5.234,10.547,6.656,15.781,3.152c1.126-0.728,29.605-18.614,68.244,0.717c5.632,2.81,12.459,0.523,15.269-5.097      c2.81-5.621,0.535-12.447-5.086-15.258C158.766-164.693,143.144-167.548,129.82-167.548"/>
				<path style="fill:#664500;" d="M279.791-167.548c-13.335,0-28.956,2.856-45.943,11.355c-5.621,2.81-7.896,9.637-5.086,15.258      c2.822,5.632,9.637,7.908,15.258,5.097c38.696-19.342,67.129-1.434,68.312-0.671c5.234,3.391,12.299,1.934,15.724-3.288      c3.436-5.222,2.037-12.22-3.163-15.69C323.812-156.205,306.347-167.548,279.791-167.548"/>
				<path style="fill:#664500;" d="M295.822-271.2c-3.47,0-6.884,1.57-9.114,4.551c-0.284,0.387-31.653,40.96-81.92,40.96      s-81.624-40.573-81.943-40.983c-3.789-4.983-10.934-5.985-15.929-2.219c-5.006,3.777-6.019,10.877-2.253,15.895      c1.536,2.037,38.252,50.062,100.124,50.062c61.861,0,98.588-48.026,100.124-50.062c3.777-5.029,2.753-12.163-2.276-15.929      C300.59-270.46,298.2-271.2,295.822-271.2"/>
			</g>
			<g>
				<path style="fill:#F5F8FA;" d="M175.115-192.466c-5.154,2.219-11.139,0.307-14.097-4.437l-56.889-91.022      c-2.196-3.504-2.31-7.93-0.307-11.537c2.014-3.63,5.814-5.871,9.956-5.871h34.133c5.222,0,9.774,3.561,11.036,8.624      l22.756,91.022C183.057-200.271,180.27-194.65,175.115-192.466"/>
				<path style="fill:#F5F8FA;" d="M305.471-287.925l-56.889,91.022c-2.981,4.756-8.954,6.645-14.086,4.437      c-5.154-2.196-7.953-7.805-6.588-13.221l22.756-91.022c1.263-5.074,5.803-8.624,11.025-8.624h34.133      c4.142,0,7.942,2.241,9.956,5.86C307.78-295.856,307.667-291.441,305.471-287.925"/>
			</g>
			<g>
				<path style="fill:#E1E8ED;" d="M363.884-307.359c0.034,0.683,0.205,1.331,0.205,2.025c0,18.842-15.292,34.133-34.133,34.133      c-11.696,0-21.982-5.894-28.137-14.848c-5.359,2.207-11.219,3.47-17.374,3.47c-25.134,0-45.511-20.378-45.511-45.511      s20.378-45.511,45.511-45.511c15.531,0,29.218,7.805,37.433,19.695c5.45-11.605,17.146-19.695,30.834-19.695      c18.853,0,34.133,15.28,34.133,34.133C386.844-324.55,377.219-312.001,363.884-307.359"/>
				<path style="fill:#E1E8ED;" d="M125.156-282.578c-6.167,0-12.015-1.252-17.374-3.47c-6.155,8.954-16.452,14.848-28.137,14.848      c-18.842,0-34.133-15.292-34.133-34.133c0-0.694,0.159-1.343,0.205-2.025c-13.335-4.642-22.96-17.18-22.96-32.108      c0-18.853,15.28-34.133,34.133-34.133c13.676,0,25.384,8.09,30.822,19.695c8.226-11.878,21.902-19.695,37.444-19.695      c25.134,0,45.511,20.378,45.511,45.511S150.289-282.578,125.156-282.578"/>
			</g>
		</g>
	</g>
</g>
<g>
</g>
<g>
</g>
<g>
</g>
<g>
</g>
<g>
</g>
<g>
</g>
<g>
</g>
<g>
</g>
<g>
</g>
<g>
</g>
<g>
</g>
<g>
</g>
<g>
</g>
<g>
</g>
<g>
</g>
</svg>
