<?xml version="1.0" encoding="iso-8859-1"?>
<!-- Generator: Adobe Illustrator 19.0.0, SVG Export Plug-In . SVG Version: 6.00 Build 0)  -->
<svg xmlns="http://www.w3.org/2000/svg" xmlns:xlink="http://www.w3.org/1999/xlink" version="1.1" id="Capa_1" x="0px" y="0px" viewBox="0 0 512 512" style="enable-background:new 0 0 512 512;" xml:space="preserve">
<g transform="matrix(1.25 0 0 -1.25 0 45)">
	<g>
		<g>
			<path style="fill:#FFCC4D;" d="M409.6-168.8c0-113.106-91.694-204.8-204.8-204.8S0-281.906,0-168.8S91.694,36,204.8,36     S409.6-55.694,409.6-168.8"/>
			<g>
				<path style="fill:#664500;" d="M329.956-77.778c-63.192,0-88.769,49.687-89.828,51.803c-2.81,5.621-0.523,12.459,5.097,15.269      c5.609,2.788,12.425,0.535,15.246-5.052c0.842-1.65,20.708-39.265,69.484-39.265c6.292,0,11.378-5.097,11.378-11.378      S336.247-77.778,329.956-77.778"/>
				<path style="fill:#664500;" d="M79.644-77.778c-6.281,0-11.378,5.097-11.378,11.378s5.097,11.378,11.378,11.378      c57.833,0,68.221,35.499,68.642,37.012c1.65,6.007,7.873,9.648,13.87,8.067c6.03-1.582,9.682-7.657,8.169-13.71      C169.768-25.861,155.921-77.778,79.644-77.778"/>
				<path style="fill:#664500;" d="M68.267-225.689c-3.459,0-6.872,1.57-9.114,4.551c-3.766,5.029-2.753,12.163,2.276,15.929      c1.627,1.217,33.576,24.826,78.006,33.36c-28.16,14.12-59.415,14.427-59.813,14.427c-6.281,0.011-11.366,5.12-11.355,11.389      c0,6.281,5.086,11.366,11.366,11.366c2.514,0,62.032-0.432,99.066-37.467c3.254-3.254,4.233-8.146,2.469-12.402      c-1.764-4.255-5.916-7.02-10.513-7.02c-52.486,0-95.152-31.551-95.573-31.858C73.034-224.949,70.633-225.689,68.267-225.689"/>
				<path style="fill:#664500;" d="M341.322-225.689c-2.367,0-4.756,0.728-6.804,2.253c-0.432,0.319-43.361,31.869-95.585,31.869      c-4.597,0-8.761,2.765-10.513,7.02c-1.764,4.255-0.785,9.148,2.469,12.402c37.046,37.035,96.552,37.467,99.066,37.467      c6.281,0,11.355-5.086,11.366-11.366c0.011-6.269-5.074-11.378-11.344-11.389c-0.41,0-31.664-0.307-59.824-14.427      c44.43-8.533,76.379-32.142,78.006-33.36c5.018-3.766,6.042-10.877,2.287-15.918      C348.206-224.107,344.792-225.689,341.322-225.689"/>
				<path style="fill:#664500;" d="M289.61-314.333c-1.343,2.924-33.439,71.578-82.034,71.578      c-48.344,0-85.857-68.346-87.427-71.248c-1.286-2.378-0.717-5.325,1.354-7.066c1.058-0.887,2.355-1.331,3.652-1.331      c1.252,0,2.503,0.41,3.538,1.24c0.364,0.284,35.988,28.217,78.882,28.217c42.587,0,72.681-27.648,72.977-27.921      c1.991-1.843,5.029-2.048,7.214-0.455C289.974-319.738,290.748-316.814,289.61-314.333"/>
			</g>
		</g>
	</g>
</g>
<g>
</g>
<g>
</g>
<g>
</g>
<g>
</g>
<g>
</g>
<g>
</g>
<g>
</g>
<g>
</g>
<g>
</g>
<g>
</g>
<g>
</g>
<g>
</g>
<g>
</g>
<g>
</g>
<g>
</g>
</svg>
