<?xml version="1.0" encoding="iso-8859-1"?>
<!-- Generator: Adobe Illustrator 19.0.0, SVG Export Plug-In . SVG Version: 6.00 Build 0)  -->
<svg xmlns="http://www.w3.org/2000/svg" xmlns:xlink="http://www.w3.org/1999/xlink" version="1.1" id="Capa_1" x="0px" y="0px" viewBox="0 0 512 512" style="enable-background:new 0 0 512 512;" xml:space="preserve">
<g transform="matrix(1.25 0 0 -1.25 0 45)">
	<g>
		<g>
			<path style="fill:#FFCC4D;" d="M409.6-168.8c0-113.106-91.694-204.8-204.8-204.8S0-281.906,0-168.8S91.694,36,204.8,36     S409.6-55.694,409.6-168.8"/>
			<g>
				<path style="fill:#664500;" d="M267.207-292.579c-0.137,0.501-13.039,49.823-62.407,49.823      c-49.391,0-62.293-49.323-62.407-49.823c-0.603-2.423,0.489-4.904,2.628-6.19c2.139-1.274,4.927-0.978,6.781,0.683      c0.114,0.08,11.537,9.819,52.998,9.819c40.835,0,52.531-9.444,52.975-9.819c1.081-1.024,2.492-1.559,3.914-1.559      c0.956,0,1.923,0.239,2.799,0.728C266.718-297.642,267.833-295.059,267.207-292.579"/>
				<path style="fill:#664500;" d="M329.956-100.533c-63.192,0-88.769,49.687-89.828,51.803c-2.81,5.621-0.523,12.459,5.097,15.269      c5.609,2.799,12.425,0.535,15.246-5.052c0.842-1.65,20.708-39.265,69.484-39.265c6.292,0,11.378-5.097,11.378-11.378      S336.247-100.533,329.956-100.533"/>
				<path style="fill:#664500;" d="M79.644-100.533c-6.281,0-11.378,5.097-11.378,11.378s5.097,11.378,11.378,11.378      c57.833,0,68.221,35.499,68.642,37.012c1.65,6.007,7.873,9.648,13.87,8.067c6.03-1.582,9.682-7.657,8.169-13.71      C169.768-48.617,155.921-100.533,79.644-100.533"/>
			</g>
			<path id="SVGCleanerId_0" style="fill:#664500;" d="M164.978-151.733c0-22.005-12.732-39.822-28.444-39.822     s-28.444,17.818-28.444,39.822c0,21.993,12.732,39.822,28.444,39.822S164.978-129.74,164.978-151.733"/>
			<g transform="translate(12)">
				<path id="SVGCleanerId_0_1_" style="fill:#664500;" d="M301.511-151.733c0-22.005-12.732-39.822-28.444-39.822      s-28.444,17.818-28.444,39.822c0,21.993,12.732,39.822,28.444,39.822S301.511-129.74,301.511-151.733"/>
			</g>
		</g>
	</g>
</g>
<g>
</g>
<g>
</g>
<g>
</g>
<g>
</g>
<g>
</g>
<g>
</g>
<g>
</g>
<g>
</g>
<g>
</g>
<g>
</g>
<g>
</g>
<g>
</g>
<g>
</g>
<g>
</g>
<g>
</g>
</svg>
