<?xml version="1.0" encoding="iso-8859-1"?>
<!-- Generator: Adobe Illustrator 19.0.0, SVG Export Plug-In . SVG Version: 6.00 Build 0)  -->
<svg xmlns="http://www.w3.org/2000/svg" xmlns:xlink="http://www.w3.org/1999/xlink" version="1.1" id="Capa_1" x="0px" y="0px" viewBox="0 0 512 512" style="enable-background:new 0 0 512 512;" xml:space="preserve">
<g transform="matrix(1.25 0 0 -1.25 0 45)">
	<g>
		<g>
			<path style="fill:#FFCC4D;" d="M409.6-168.8c0-113.106-91.694-204.8-204.8-204.8C91.705-373.6,0-281.906,0-168.8     C0-55.705,91.705,36,204.8,36C317.906,36,409.6-55.705,409.6-168.8"/>
			<path style="fill:#664500;" d="M175.866-143.996c-0.683,1.536-17.055,37.513-50.711,37.513     c-33.644,0-50.028-35.977-50.711-37.513c-1.047-2.355-0.364-5.109,1.638-6.724c2.014-1.627,4.858-1.673,6.94-0.159     c0.148,0.102,14.359,10.263,42.132,10.263c27.603,0,41.802-10.024,42.121-10.251c1.001-0.751,2.207-1.126,3.391-1.126     c1.252,0,2.514,0.41,3.538,1.24C176.242-149.139,176.913-146.363,175.866-143.996"/>
			<path style="fill:#F5F8FA;" d="M352.711-117.6c0-40.846-33.109-73.956-73.956-73.956S204.8-158.446,204.8-117.6     s33.109,73.956,73.956,73.956S352.711-76.754,352.711-117.6"/>
			<path style="fill:#292F33;" d="M307.2-117.6c0-15.713-12.732-28.444-28.444-28.444s-28.444,12.732-28.444,28.444     s12.732,28.444,28.444,28.444S307.2-101.887,307.2-117.6"/>
			<path style="fill:#664500;" d="M79.644-205.914c0-45.102,52.292-102.4,125.156-102.4s125.156,56.889,125.156,102.4     C329.956-205.914,212.389-237.271,79.644-205.914"/>
			<path style="fill:#E75A70;" d="M136.533-225.723v-79.201c0-34.133,22.756-68.267,68.267-68.267s68.267,34.133,68.267,68.267     v78.734C201.489-240.89,136.533-225.723,136.533-225.723"/>
		</g>
	</g>
</g>
<g>
</g>
<g>
</g>
<g>
</g>
<g>
</g>
<g>
</g>
<g>
</g>
<g>
</g>
<g>
</g>
<g>
</g>
<g>
</g>
<g>
</g>
<g>
</g>
<g>
</g>
<g>
</g>
<g>
</g>
</svg>
