<?xml version="1.0" encoding="iso-8859-1"?>
<!-- Generator: Adobe Illustrator 19.0.0, SVG Export Plug-In . SVG Version: 6.00 Build 0)  -->
<svg xmlns="http://www.w3.org/2000/svg" xmlns:xlink="http://www.w3.org/1999/xlink" version="1.1" id="Capa_1" x="0px" y="0px" viewBox="0 0 512 512" style="enable-background:new 0 0 512 512;" xml:space="preserve">
<g transform="matrix(1.25 0 0 -1.25 0 45)">
	<g>
		<g>
			<path style="fill:#FFCC4D;" d="M409.6-168.8c0-113.106-91.694-204.8-204.8-204.8C91.705-373.6,0-281.906,0-168.8     C0-55.705,91.705,36,204.8,36C317.906,36,409.6-55.705,409.6-168.8"/>
			<g>
				<path style="fill:#664500;" d="M289.963-281.201c-0.512,2.037-13.289,49.823-85.163,49.823      c-71.885,0-84.662-47.787-85.163-49.823c-0.626-2.469,0.489-5.029,2.697-6.303c2.219-1.263,4.995-0.887,6.815,0.876      c0.216,0.216,22.232,21.117,75.651,21.117c53.407,0,75.435-20.901,75.639-21.117c1.092-1.07,2.549-1.638,4.005-1.638      c0.956,0,1.923,0.239,2.799,0.728C289.473-286.264,290.588-283.681,289.963-281.201"/>
				<path style="fill:#664500;" d="M329.956-123.289c-3.47,0-6.884,1.57-9.114,4.551c-27.659,36.91-74.103,9.626-76.06,8.454      c-5.404-3.243-12.39-1.479-15.61,3.891c-3.243,5.393-1.49,12.379,3.891,15.61c22.733,13.642,74.115,28.183,105.984-14.302      c3.777-5.029,2.753-12.163-2.276-15.929C334.723-122.549,332.334-123.289,329.956-123.289"/>
				<path style="fill:#664500;" d="M79.633-123.289c-2.367,0-4.767,0.74-6.815,2.276c-5.029,3.766-6.042,10.9-2.276,15.929      c31.869,42.496,83.263,27.944,105.984,14.302c5.382-3.231,7.134-10.217,3.891-15.61c-3.22-5.382-10.194-7.145-15.588-3.903      c-2.025,1.206-48.629,28.16-76.083-8.442C86.505-121.719,83.092-123.289,79.633-123.289"/>
				<path style="fill:#664500;" d="M329.956-146.044c0,6.281-5.086,11.378-11.378,11.378h-79.644      c-6.292,0-11.378-5.097-11.378-11.378s5.086-11.378,11.378-11.378h57.936c2.355-6.61,8.602-11.378,16.02-11.378      c9.421,0,17.067,7.634,17.067,17.067c0,1.252-0.159,2.469-0.41,3.652C329.682-147.398,329.956-146.761,329.956-146.044"/>
				<path style="fill:#664500;" d="M182.044-146.044c0,6.281-5.097,11.378-11.378,11.378H91.022      c-6.281,0-11.378-5.097-11.378-11.378s5.097-11.378,11.378-11.378h57.936c2.355-6.61,8.602-11.378,16.02-11.378      c9.421,0,17.067,7.634,17.067,17.067c0,1.252-0.159,2.469-0.41,3.652C181.76-147.398,182.044-146.761,182.044-146.044"/>
			</g>
		</g>
	</g>
</g>
<g>
</g>
<g>
</g>
<g>
</g>
<g>
</g>
<g>
</g>
<g>
</g>
<g>
</g>
<g>
</g>
<g>
</g>
<g>
</g>
<g>
</g>
<g>
</g>
<g>
</g>
<g>
</g>
<g>
</g>
</svg>
