<?xml version="1.0" encoding="iso-8859-1"?>
<!-- Generator: Adobe Illustrator 19.0.0, SVG Export Plug-In . SVG Version: 6.00 Build 0)  -->
<svg xmlns="http://www.w3.org/2000/svg" xmlns:xlink="http://www.w3.org/1999/xlink" version="1.1" id="Capa_1" x="0px" y="0px" viewBox="0 0 512 512" style="enable-background:new 0 0 512 512;" xml:space="preserve">
<g transform="matrix(1.25 0 0 -1.25 0 45)">
	<g>
		<g>
			<path style="fill:#FFCC4D;" d="M409.6-168.8c0-113.106-91.694-204.8-204.8-204.8C91.705-373.6,0-281.906,0-168.8     C0-55.705,91.705,36,204.8,36C317.906,36,409.6-55.705,409.6-168.8"/>
			<g>
				<path style="fill:#664500;" d="M284.444-259.822H125.156c-6.281,0-11.378,5.086-11.378,11.378      c0,6.292,5.097,11.378,11.378,11.378h159.289c6.292,0,11.378-5.086,11.378-11.378      C295.822-254.736,290.736-259.822,284.444-259.822"/>
				<path style="fill:#664500;" d="M170.667-168.8H91.022c-6.281,0-11.378,5.097-11.378,11.378s5.097,11.378,11.378,11.378h79.644      c6.281,0,11.378-5.097,11.378-11.378S176.947-168.8,170.667-168.8"/>
				<path style="fill:#664500;" d="M318.578-168.8h-79.644c-6.292,0-11.378,5.097-11.378,11.378s5.086,11.378,11.378,11.378h79.644      c6.292,0,11.378-5.097,11.378-11.378S324.87-168.8,318.578-168.8"/>
			</g>
		</g>
	</g>
</g>
<g>
</g>
<g>
</g>
<g>
</g>
<g>
</g>
<g>
</g>
<g>
</g>
<g>
</g>
<g>
</g>
<g>
</g>
<g>
</g>
<g>
</g>
<g>
</g>
<g>
</g>
<g>
</g>
<g>
</g>
</svg>
