<?xml version="1.0" encoding="iso-8859-1"?>
<!-- Generator: Adobe Illustrator 19.0.0, SVG Export Plug-In . SVG Version: 6.00 Build 0)  -->
<svg xmlns="http://www.w3.org/2000/svg" xmlns:xlink="http://www.w3.org/1999/xlink" version="1.1" id="Capa_1" x="0px" y="0px" viewBox="0 0 512 512" style="enable-background:new 0 0 512 512;" xml:space="preserve">
<g transform="matrix(1.25 0 0 -1.25 0 45)">
	<g>
		<g>
			<path style="fill:#FFCC4D;" d="M409.6-168.8c0-113.106-91.694-204.8-204.8-204.8S0-281.906,0-168.8S91.694,36,204.8,36     S409.6-55.694,409.6-168.8"/>
			<g>
				<path style="fill:#664500;" d="M322.139-141.63c-1.991,1.616-4.847,1.673-6.94,0.159c-0.137-0.114-14.347-10.263-42.121-10.263      c-27.773,0-41.995,10.149-42.109,10.24c-2.071,1.559-4.938,1.513-6.952-0.102c-2.025-1.616-2.708-4.392-1.661-6.758      c0.683-1.536,17.067-37.513,50.722-37.513s50.028,35.977,50.711,37.513C324.824-145.999,324.153-143.246,322.139-141.63"/>
				<path style="fill:#664500;" d="M178.654-141.471c-0.137-0.102-14.336-10.263-42.121-10.263c-27.773,0-41.984,10.16-42.098,10.24      c-2.082,1.559-4.938,1.513-6.963-0.102s-2.697-4.392-1.65-6.758c0.683-1.536,17.067-37.513,50.711-37.513      c33.655,0,50.028,35.977,50.711,37.513c1.047,2.355,0.364,5.109-1.65,6.724C183.592-140.003,180.725-139.957,178.654-141.471"/>
				<path style="fill:#664500;" d="M329.956-111.911c-3.47,0-6.884,1.57-9.114,4.551c-29.491,39.322-79.201,29.901-79.69,29.81      c-6.224-1.229-12.151,2.765-13.392,8.92c-1.229,6.155,2.776,12.151,8.932,13.38c2.617,0.546,64.364,12.197,102.354-38.457      c3.777-5.029,2.753-12.163-2.276-15.929C334.723-111.172,332.334-111.911,329.956-111.911"/>
				<path style="fill:#664500;" d="M79.633-111.911c-2.367,0-4.767,0.74-6.815,2.276c-5.029,3.766-6.042,10.9-2.276,15.929      c38.002,50.677,99.738,38.98,102.354,38.457c6.167-1.229,10.16-7.225,8.92-13.38c-1.229-6.144-7.214-10.138-13.346-8.932      c-2.128,0.387-50.483,9.182-79.724-29.798C86.505-110.341,83.092-111.911,79.633-111.911"/>
				<path style="fill:#664500;" d="M264.579-232.254c-2.128,1.263-4.915,0.979-6.793-0.683c-0.102-0.08-11.526-9.819-52.986-9.819      c-41.426,0-52.85,9.717-52.861,9.717c-1.82,1.82-4.608,2.162-6.838,0.933c-2.219-1.274-3.334-3.857-2.708-6.337      c0.125-0.501,13.028-49.823,62.407-49.823s62.282,49.323,62.407,49.823C267.81-236.02,266.706-233.54,264.579-232.254"/>
			</g>
		</g>
	</g>
</g>
<g>
</g>
<g>
</g>
<g>
</g>
<g>
</g>
<g>
</g>
<g>
</g>
<g>
</g>
<g>
</g>
<g>
</g>
<g>
</g>
<g>
</g>
<g>
</g>
<g>
</g>
<g>
</g>
<g>
</g>
</svg>
