<?xml version="1.0" encoding="iso-8859-1"?>
<!-- Generator: Adobe Illustrator 19.0.0, SVG Export Plug-In . SVG Version: 6.00 Build 0)  -->
<svg xmlns="http://www.w3.org/2000/svg" xmlns:xlink="http://www.w3.org/1999/xlink" version="1.1" id="Capa_1" x="0px" y="0px" viewBox="0 0 512 512" style="enable-background:new 0 0 512 512;" xml:space="preserve">
<g transform="matrix(1.25 0 0 -1.25 0 45)">
	<g>
		<g>
			<path style="fill:#FFCC4D;" d="M409.6-168.8c0-113.106-91.694-204.8-204.8-204.8S0-281.906,0-168.8S91.694,36,204.8,36     S409.6-55.694,409.6-168.8"/>
			<g>
				<path style="fill:#664500;" d="M79.633-157.422c-1.707,0-3.447,0.387-5.074,1.195c-5.621,2.822-7.908,9.66-5.097,15.269      c0.603,1.195,15.007,29.047,55.694,29.047c40.71,0,55.091-27.864,55.683-29.047c2.822-5.621,0.535-12.447-5.086-15.269      c-5.586-2.799-12.345-0.546-15.201,4.972c-0.501,0.91-9.455,16.589-35.396,16.589c-26.362,0-35.26-16.304-35.328-16.464      C87.825-155.124,83.809-157.422,79.633-157.422"/>
				<path style="fill:#664500;" d="M329.956-157.422c1.707,0,3.447,0.387,5.074,1.195c5.621,2.822,7.908,9.66,5.097,15.269      c-0.603,1.195-15.007,29.047-55.694,29.047c-40.71,0-55.091-27.864-55.683-29.047c-2.822-5.621-0.535-12.447,5.086-15.269      c5.587-2.799,12.345-0.546,15.201,4.972c0.501,0.91,9.455,16.589,35.396,16.589c26.362,0,35.26-16.304,35.339-16.464      C321.764-155.124,325.78-157.422,329.956-157.422"/>
			</g>
			<path style="fill:#E75A70;" d="M377.401-274.716l-41.768,43.11c-9.273-21.447-32.529-60.723-81.795-77.312l41.927-41.927     c19.661-19.661,56.889-22.756,79.644,0S397.073-294.388,377.401-274.716"/>
			<path style="fill:#664500;" d="M335.679-231.605c3.686,8.522,5.245,14.302,5.302,14.529c1.525,6.087-2.162,12.242-8.237,13.778     c-6.099,1.536-12.254-2.15-13.824-8.226c-0.853-3.368-22.175-82.432-114.119-82.432c-91.955,0-113.277,79.064-114.13,82.432     c-1.57,6.076-7.714,9.762-13.824,8.226c-6.076-1.536-9.762-7.691-8.238-13.778c0.239-0.99,26.18-99.635,136.192-99.635     c18.762,0,34.918,3.026,49.084,7.794C303.161-292.329,326.417-253.052,335.679-231.605"/>
		</g>
	</g>
</g>
<g>
</g>
<g>
</g>
<g>
</g>
<g>
</g>
<g>
</g>
<g>
</g>
<g>
</g>
<g>
</g>
<g>
</g>
<g>
</g>
<g>
</g>
<g>
</g>
<g>
</g>
<g>
</g>
<g>
</g>
</svg>
