<?xml version="1.0" encoding="iso-8859-1"?>
<!-- Generator: Adobe Illustrator 19.0.0, SVG Export Plug-In . SVG Version: 6.00 Build 0)  -->
<svg xmlns="http://www.w3.org/2000/svg" xmlns:xlink="http://www.w3.org/1999/xlink" version="1.1" id="Capa_1" x="0px" y="0px" viewBox="0 0 512 512" style="enable-background:new 0 0 512 512;" xml:space="preserve">
<g transform="matrix(1.25 0 0 -1.25 0 45)">
	<g>
		<g>
			<path style="fill:#FFCC4D;" d="M409.6-168.8c0-113.106-91.694-204.8-204.8-204.8S0-281.906,0-168.8S91.694,36,204.8,36     S409.6-55.694,409.6-168.8"/>
			<path style="fill:#664500;" d="M204.8-202.933c-41.222,0-68.574,4.801-102.4,11.378c-7.726,1.49-22.756,0-22.756-22.756     c0-45.511,52.281-102.4,125.156-102.4c72.863,0,125.156,56.889,125.156,102.4c0,22.756-15.03,24.257-22.756,22.756     C273.374-198.132,246.022-202.933,204.8-202.933"/>
			<path style="fill:#FFFFFF;" d="M102.4-214.311c0,0,34.133-11.378,102.4-11.378s102.4,11.378,102.4,11.378     s-22.756-45.511-102.4-45.511S102.4-214.311,102.4-214.311"/>
			<path id="SVGCleanerId_0" style="fill:#664500;" d="M164.978-117.6c0-22.005-12.732-39.822-28.444-39.822     s-28.444,17.818-28.444,39.822c0,21.993,12.732,39.822,28.444,39.822S164.978-95.607,164.978-117.6"/>
			<g transform="translate(12)">
				<path id="SVGCleanerId_0_1_" style="fill:#664500;" d="M301.511-117.6c0-22.005-12.732-39.822-28.444-39.822      s-28.444,17.818-28.444,39.822c0,21.993,12.732,39.822,28.444,39.822S301.511-95.607,301.511-117.6"/>
			</g>
		</g>
	</g>
</g>
<g>
</g>
<g>
</g>
<g>
</g>
<g>
</g>
<g>
</g>
<g>
</g>
<g>
</g>
<g>
</g>
<g>
</g>
<g>
</g>
<g>
</g>
<g>
</g>
<g>
</g>
<g>
</g>
<g>
</g>
</svg>
