<?xml version="1.0" encoding="iso-8859-1"?>
<!-- Generator: Adobe Illustrator 19.0.0, SVG Export Plug-In . SVG Version: 6.00 Build 0)  -->
<svg xmlns="http://www.w3.org/2000/svg" xmlns:xlink="http://www.w3.org/1999/xlink" version="1.1" id="Capa_1" x="0px" y="0px" viewBox="0 0 512 512" style="enable-background:new 0 0 512 512;" xml:space="preserve">
<g transform="matrix(1.25 0 0 -1.25 0 45)">
	<g>
		<g>
			<path style="fill:#CCD6DD;" d="M386.844-146.044C386.844-32.267,305.345,36,204.8,36C104.266,36,22.756-32.267,22.756-146.044     c0-63.42,0.023-118.192,68.267-143.815v-49.607c0-18.853,15.28-34.133,34.133-34.133s34.133,15.28,34.133,34.133v35.897     c3.686-0.307,7.498-0.569,11.378-0.796v-35.1c0-18.853,15.28-34.133,34.133-34.133s34.133,15.28,34.133,34.133v35.1     c3.891,0.228,7.691,0.489,11.378,0.796v-35.897c0-18.853,15.292-34.133,34.133-34.133c18.853,0,34.133,15.28,34.133,34.133     v49.607C386.822-264.237,386.844-209.464,386.844-146.044"/>
			<g>
				<path style="fill:#292F33;" d="M182.044-123.289c0-31.414,0-56.889-56.889-56.889s-56.889,25.475-56.889,56.889      S93.742-66.4,125.156-66.4S182.044-91.875,182.044-123.289"/>
				<path style="fill:#292F33;" d="M341.333-123.289c0-31.414,0-56.889-56.889-56.889s-56.889,25.475-56.889,56.889      S253.019-66.4,284.444-66.4S341.333-91.875,341.333-123.289"/>
				<path style="fill:#292F33;" d="M226.452-226.394c-2.867,6.963-11.412,12.072-21.652,12.072s-18.796-5.109-21.663-12.072      c-7.179-2.014-12.47-8.545-12.47-16.373c0-9.421,7.634-17.067,17.067-17.067c7.441,0,13.71,4.801,16.043,11.457      c0.341-0.011,0.671-0.08,1.024-0.08s0.671,0.068,1.013,0.08c2.344-6.656,8.602-11.457,16.054-11.457      c9.421,0,17.067,7.646,17.067,17.067C238.933-234.939,233.631-228.42,226.452-226.394"/>
			</g>
		</g>
	</g>
</g>
<g>
</g>
<g>
</g>
<g>
</g>
<g>
</g>
<g>
</g>
<g>
</g>
<g>
</g>
<g>
</g>
<g>
</g>
<g>
</g>
<g>
</g>
<g>
</g>
<g>
</g>
<g>
</g>
<g>
</g>
</svg>
