<?xml version="1.0" encoding="iso-8859-1"?>
<!-- Generator: Adobe Illustrator 19.0.0, SVG Export Plug-In . SVG Version: 6.00 Build 0)  -->
<svg xmlns="http://www.w3.org/2000/svg" xmlns:xlink="http://www.w3.org/1999/xlink" version="1.1" id="Capa_1" x="0px" y="0px" viewBox="0 0 512.015 512.015" style="enable-background:new 0 0 512.015 512.015;" xml:space="preserve">
<g transform="matrix(1.25 0 0 -1.25 0 45)">
	<g>
		<g>
			<g>
				<path style="fill:#AA8ED6;" d="M409.606-168.812c0-113.107-91.694-204.8-204.8-204.8s-204.8,91.694-204.8,204.8      s91.694,204.8,204.8,204.8S409.606-55.705,409.606-168.812"/>
				<path style="fill:#AA8ED6;" d="M113.784-9.523c-29.355,0-64.068,28.058-74.934,38.844c-6.497,6.508-16.304,8.465-24.792,4.938      C5.547,30.732,0.006,22.437,0.006,13.233c0-39.356,19.024-113.778,91.022-113.778c8.613,0,16.498,4.87,20.355,12.572      l22.756,45.511c3.527,7.066,3.152,15.44-1.001,22.141C128.996-13.608,121.669-9.523,113.784-9.523"/>
				<path style="fill:#AA8ED6;" d="M395.566,34.259c-8.533,3.538-18.284,1.582-24.804-4.938      c-10.069-10.069-45.477-38.844-74.934-38.844c-7.885,0-15.201-4.085-19.354-10.786c-4.142-6.713-4.517-15.087-1.001-22.141      l22.756-45.511c3.857-7.703,11.742-12.584,20.355-12.584c72.01,0,91.022,74.422,91.022,113.778      C409.606,22.437,404.065,30.732,395.566,34.259"/>
			</g>
			<g>
				<path style="fill:#553986;" d="M170.65-168.812c-3.425,0-6.895,0.774-10.16,2.401l-68.267,34.133      c-11.241,5.632-15.792,19.297-10.183,30.538c5.632,11.241,19.297,15.804,30.538,10.183l68.267-34.133      c11.241-5.632,15.792-19.297,10.183-30.538C187.034-164.204,178.99-168.812,170.65-168.812"/>
				<path style="fill:#553986;" d="M238.939-305.345h-68.267c-12.561,0-22.756,10.194-22.756,22.756      c0,12.572,10.194,22.756,22.756,22.756h68.267c12.572,0,22.756-10.183,22.756-22.756      C261.695-295.151,251.512-305.345,238.939-305.345"/>
				<path style="fill:#553986;" d="M238.939-168.812c-8.351,0-16.384,4.608-20.378,12.584c-5.621,11.241-1.07,24.906,10.183,30.538      l68.267,34.133c11.253,5.643,24.917,1.035,30.527-10.183c5.621-11.241,1.07-24.906-10.172-30.538L249.1-166.411      C245.823-168.038,242.353-168.812,238.939-168.812"/>
			</g>
			<path id="SVGCleanerId_0" style="fill:#553986;" d="M227.561-168.812c0,0,0,22.756,22.756,22.756s22.756-22.756,22.756-22.756     v-22.756c0,0,0-22.756-22.756-22.756s-22.756,22.756-22.756,22.756V-168.812z"/>
			<g transform="translate(-8)">
				<path id="SVGCleanerId_0_1_" style="fill:#553986;" d="M136.539-168.812c0,0,0,22.756,22.756,22.756      s22.756-22.756,22.756-22.756v-22.756c0,0,0-22.756-22.756-22.756s-22.756,22.756-22.756,22.756V-168.812z"/>
			</g>
		</g>
	</g>
</g>
<g>
</g>
<g>
</g>
<g>
</g>
<g>
</g>
<g>
</g>
<g>
</g>
<g>
</g>
<g>
</g>
<g>
</g>
<g>
</g>
<g>
</g>
<g>
</g>
<g>
</g>
<g>
</g>
<g>
</g>
</svg>
